<svg width="96" height="96" viewBox="0 0 96 96" fill="none" xmlns="http://www.w3.org/2000/svg">
<path fill-rule="evenodd" clip-rule="evenodd" d="M61.7579 11.0758C62.1417 10.7974 61.6834 9.51085 60.7343 8.2022C59.7852 6.89355 58.7046 6.05834 58.3208 6.33672C58.3012 6.35098 58.2837 6.36788 58.2684 6.3873C52.7663 8.839 49.668 13.9081 48.04 18.7944C29.3609 18.9591 14.2835 30.8961 14.2835 49.7788C14.2835 68.7935 29.5723 89.7165 48.432 89.7165C67.2917 89.7165 82.5805 68.7935 82.5805 49.7788C82.5805 31.9638 69.16 20.3313 51.956 18.9344C54.5286 14.8036 58.7021 12.2108 61.5216 11.1263C61.6161 11.1365 61.696 11.1206 61.7579 11.0758Z" fill="#850000"/>
<path fill-rule="evenodd" clip-rule="evenodd" d="M55.6405 19.3991C54.4347 19.1912 53.2053 19.0358 51.956 18.9344C52.6601 17.8039 53.484 16.7886 54.3673 15.8878C56.7116 13.4974 59.4737 11.914 61.5216 11.1263C61.6161 11.1365 61.696 11.1206 61.7579 11.0757C61.975 10.9182 61.9226 10.438 61.6642 9.81356C61.466 9.33441 61.1464 8.77038 60.7343 8.20218M61.1893 7.87219L60.7343 8.20218L61.1893 7.87219ZM60.7343 8.20218C60.6882 8.13854 60.6417 8.07603 60.595 8.0147C60.5852 8.00175 60.5753 7.98886 60.5654 7.97602C59.6603 6.79901 58.682 6.07471 58.3208 6.33669C58.3012 6.35095 58.2837 6.36786 58.2684 6.38728C52.7663 8.83898 49.668 13.9081 48.04 18.7944C29.3609 18.9591 14.2835 30.8961 14.2835 49.7788C14.2835 68.7934 29.5723 89.7165 48.432 89.7165C67.2917 89.7165 82.5805 68.7934 82.5805 49.7788C82.5805 33.2575 71.0384 22.0533 55.6405 19.3991M58.4752 16.623C74.0477 20.1983 85.864 32.2031 85.864 49.7788C85.864 60.1115 81.7353 70.8135 75.1273 78.9484C68.5215 87.0806 59.1263 93 48.432 93C37.7378 93 28.3425 87.0806 21.7368 78.9484C15.1288 70.8135 11 60.1115 11 49.7788C11 29.4881 26.7008 16.6891 45.7361 15.5867C47.6693 10.9481 51.0109 6.15835 56.5941 3.54248C57.9437 2.69079 59.3128 3.05296 59.8121 3.2279C60.4492 3.4511 60.9679 3.80144 61.3236 4.07638C62.0706 4.65377 62.7874 5.44031 63.3923 6.27441C63.9973 7.1085 64.5223 8.03415 64.8391 8.92355C64.9899 9.34705 65.1618 9.949 65.1761 10.6238C65.1879 11.1791 65.098 12.7094 63.6856 13.7338C63.243 14.0548 62.7854 14.2356 62.3582 14.3284C61.2047 14.8113 59.821 15.5811 58.4752 16.623Z" fill="#850000"/>
<path d="M82.5805 49.7789C82.5805 68.7935 67.2917 89.7166 48.432 89.7166C29.5723 89.7166 14.2834 68.7935 14.2834 49.7789C14.2834 30.7642 29.5723 18.7927 48.432 18.7927C67.2917 18.7927 82.5805 30.7642 82.5805 49.7789Z" fill="url(#paint0_radial_36_0)"/>
<mask id="mask0_36_0" style="mask-type:alpha" maskUnits="userSpaceOnUse" x="14" y="18" width="69" height="72">
<path d="M82.5805 49.7789C82.5805 68.7935 67.2917 89.7166 48.432 89.7166C29.5723 89.7166 14.2834 68.7935 14.2834 49.7789C14.2834 30.7642 29.5723 18.7927 48.432 18.7927C67.2917 18.7927 82.5805 30.7642 82.5805 49.7789Z" fill="url(#paint1_radial_36_0)"/>
</mask>
<g mask="url(#mask0_36_0)">
<path d="M39.8948 25.6651C35.1665 23.5636 27.8553 24.7895 24.7906 25.6651C38.4501 14.6325 59.377 19.3169 68.133 23.0382C64.1928 23.0382 58.2825 25.6651 54.3422 27.6352C50.402 29.6052 45.8051 28.2919 39.8948 25.6651Z" fill="url(#paint2_linear_36_0)"/>
<path d="M34.6411 72.1626C29.3875 70.0611 23.2583 75.665 20.8504 78.7296C22.1638 85.2966 40.5515 93.8337 53.0288 93.177C63.0107 92.6516 75.1378 77.1972 79.9536 69.5357C72.0732 65.5955 58.9391 76.7595 53.0288 79.3863C47.1185 82.0131 41.2082 74.7894 34.6411 72.1626Z" fill="url(#paint3_linear_36_0)"/>
<g style="mix-blend-mode:multiply" opacity="0.4">
<path d="M24.1339 50.9711C24.1339 30.6134 37.7058 22.2951 43.835 18.7927C20.8504 18.7927 1.80607 44.4041 12.97 73.9557C21.9012 97.597 49.9642 94.3135 62.8794 89.7166C35.9546 85.7763 24.1339 66.0753 24.1339 50.9711Z" fill="#C4C4C4"/>
</g>
</g>
<ellipse cx="65.1999" cy="39.2119" rx="12.3741" ry="9.11774" transform="rotate(42.7602 65.1999 39.2119)" fill="#FFF6A2" fill-opacity="0.4"/>
<path d="M58.2825 6.38098C48.826 10.5839 46.4619 22.514 46.4619 27.9865C47.7753 28.6432 48.8698 28.6432 49.7454 28.6432C48.6946 18.6613 56.9691 12.8604 61.566 11.1092L58.2825 6.38098Z" fill="url(#paint4_linear_36_0)"/>
<ellipse cx="60.0393" cy="8.70618" rx="0.858512" ry="2.92711" transform="rotate(-35.9519 60.0393 8.70618)" fill="#D98A39"/>
<defs>
<radialGradient id="paint0_radial_36_0" cx="0" cy="0" r="1" gradientUnits="userSpaceOnUse" gradientTransform="translate(53.6856 47.6876) rotate(107.266) scale(50.8891 49.0043)">
<stop stop-color="#DB011A"/>
<stop offset="1" stop-color="#B30014"/>
</radialGradient>
<radialGradient id="paint1_radial_36_0" cx="0" cy="0" r="1" gradientUnits="userSpaceOnUse" gradientTransform="translate(53.6856 47.6876) rotate(107.266) scale(50.8891 49.0043)">
<stop stop-color="#DB011A"/>
<stop offset="1" stop-color="#B30014"/>
</radialGradient>
<linearGradient id="paint2_linear_36_0" x1="46.4618" y1="18.7927" x2="46.4618" y2="28.5837" gradientUnits="userSpaceOnUse">
<stop offset="0.416188" stop-color="#A60013" stop-opacity="0"/>
<stop offset="1" stop-color="#A60013"/>
</linearGradient>
<linearGradient id="paint3_linear_36_0" x1="58.2824" y1="66.0753" x2="50.402" y2="93.2127" gradientUnits="userSpaceOnUse">
<stop stop-color="#FFCA5E"/>
<stop offset="1" stop-color="#CC9700"/>
</linearGradient>
<linearGradient id="paint4_linear_36_0" x1="54.0139" y1="6.38098" x2="54.0139" y2="28.6432" gradientUnits="userSpaceOnUse">
<stop stop-color="#9A4F01"/>
<stop offset="1" stop-color="#6A3600"/>
</linearGradient>
</defs>
</svg>
