<svg width="96" height="96" viewBox="0 0 96 96" fill="none" xmlns="http://www.w3.org/2000/svg">
<circle cx="48.5" cy="48.5" r="43.75" fill="#CE8700" stroke="#CE8700" stroke-width="2.5"/>
<circle cx="48.5" cy="48.5" r="42.5" fill="#F8BE1A"/>
<path d="M79.6923 48.5C79.6923 65.7038 65.5066 79.6923 47.9551 79.6923C30.4037 79.6923 16.218 65.7038 16.218 48.5C16.218 31.2963 30.4037 17.3077 47.9551 17.3077C65.5066 17.3077 79.6923 31.2963 79.6923 48.5Z" fill="#FFDF85" stroke="#DAAB07" stroke-width="3"/>
<path d="M47.31 22.7107C47.598 22.2247 48.3123 22.2247 48.6003 22.7107L56.7201 36.4128C56.8256 36.5908 57.0024 36.717 57.2072 36.7606L72.9749 40.1166C73.5341 40.2356 73.7549 40.9033 73.3736 41.3227L62.6243 53.147C62.4846 53.3007 62.4171 53.5049 62.4382 53.7099L64.0634 69.4861C64.121 70.0456 63.5431 70.4583 63.0195 70.2315L48.2562 63.8372C48.0644 63.7542 47.8459 63.7542 47.6541 63.8372L32.8908 70.2315C32.3672 70.4583 31.7893 70.0456 31.8469 69.4861L33.4721 53.7099C33.4932 53.5049 33.4257 53.3007 33.286 53.147L22.5366 41.3227C22.1554 40.9033 22.3761 40.2356 22.9354 40.1166L38.703 36.7606C38.9079 36.717 39.0847 36.5908 39.1902 36.4128L47.31 22.7107Z" fill="#E79800"/>
<mask id="mask0_18_260" style="mask-type:alpha" maskUnits="userSpaceOnUse" x="6" y="6" width="85" height="85">
<path d="M91 48.5C91 71.9721 71.9721 91 48.5 91C25.0279 91 6 71.9721 6 48.5C6 25.0279 25.0279 6 48.5 6C71.9721 6 91 25.0279 91 48.5Z" fill="#CE8700"/>
</mask>
<g mask="url(#mask0_18_260)">
<g opacity="0.2">
<g style="mix-blend-mode:screen">
<rect width="105.683" height="23.8922" transform="matrix(0.912469 -0.409145 0.300017 0.953934 -4.8793 46.2128)" fill="#FFF272"/>
</g>
<g style="mix-blend-mode:screen">
<rect width="105.683" height="11.3696" transform="matrix(0.912469 -0.409145 0.300017 0.953934 1.60211 78.5021)" fill="#FFF272"/>
</g>
</g>
</g>
</svg>
