<svg width="96" height="96" viewBox="0 0 96 96" fill="none" xmlns="http://www.w3.org/2000/svg">
<path d="M21.6 4.5C22 4.5 22.4 4.5 22.8 4.5C24.87 5.38 25.32 5.98 25.31 7.63C25.3 8.86 25.26 10.12 25.47 11.32C26.34 16.35 29.2 22.19 36.39 22.54C43.74 22.9 51.07 23.1 58.4 22.47C60.53 22.29 62.75 22.09 64.44 20.52C67.9 17.29 69.54 13.24 69.46 8.53C69.4 5.88 69.59 5.45 72 4.5C72.4 4.5 72.8 4.5 73.2 4.5C76.28 5.22 77.87 7.33 78.62 10.26C78.71 10.6 78.96 11 79.26 11.16C80.91 12.06 81.68 13.5 82.08 15.26C82.18 15.7 82.58 16.2 82.99 16.42C84.77 17.39 85.84 18.81 85.69 20.84C85.6 22.04 85.36 23.35 84.77 24.37C83.44 26.68 81.87 28.85 80.35 31.05C79.73 31.95 78.99 32.78 78.29 33.68C81.64 36.6 84.28 39.94 86.1 43.86C88.9 49.88 89.67 56.29 89.2 62.82C88.69 69.91 84.93 74.75 78.26 77.31C74.36 78.81 70.32 79.71 66.2 80.3C65.28 80.43 65.05 80.77 65.26 81.62C65.5 82.59 65.68 83.57 65.85 84.55C66.54 88.38 65.49 90.26 61.94 91.61C60.98 91.61 60.02 91.61 59.06 91.61C58.91 91.56 58.76 91.48 58.61 91.46C55.88 91.12 53.31 90.38 51.07 88.71C50.95 88.62 50.78 88.5 50.65 88.52C48.22 88.94 45.56 87.82 43.34 89.7C42.88 90.1 42.22 90.32 41.61 90.48C40.08 90.9 38.53 91.24 36.98 91.61C36.02 91.61 35.06 91.61 34.1 91.61C32.26 91.05 30.64 90.18 30.25 88.12C30.04 87.01 30.06 85.82 30.18 84.69C30.31 83.36 30.66 82.05 30.93 80.62C30.34 80.51 29.88 80.41 29.42 80.34C25.27 79.69 21.19 78.81 17.29 77.21C12.9 75.41 9.42 72.62 7.77 68.03C7.17 66.36 6.91 64.56 6.5 62.82C6.5 61.06 6.5 59.3 6.5 57.54C6.58 56.95 6.69 56.37 6.75 55.77C7.28 50.19 8.43 44.78 11.57 40.04C13.03 37.83 14.79 35.82 16.44 33.69C15.02 31.81 13.41 29.88 12.01 27.8C10.98 26.26 10.02 24.6 9.38 22.87C8.31 19.97 9.34 17.78 12.06 16.3C12.39 16.12 12.64 15.6 12.72 15.2C13.04 13.49 13.85 12.17 15.34 11.24C15.69 11.02 16.03 10.59 16.14 10.19C16.89 7.26 18.52 5.18 21.6 4.5Z" fill="#390000"/>
<path d="M86.1217 52.5C87.1617 59.39 87.8837 67.8802 81.4417 72.64C74.6266 77.6755 58.2715 79 47.6418 79C37.012 79 21.1768 77.6755 14.3617 72.64C7.91978 67.8802 8.64171 59.92 9.68174 52.5C12.059 35.54 26.9642 26 47.6418 26C68.3193 26 83.7218 36.6 86.1217 52.5Z" fill="#5B4028"/>
<mask id="mask0_9_2" style="mask-type:alpha" maskUnits="userSpaceOnUse" x="9" y="26" width="78" height="53">
<path d="M86.1217 52.5C87.1617 59.39 87.8837 67.8802 81.4417 72.64C74.6266 77.6755 58.2715 79 47.6418 79C37.012 79 21.1768 77.6755 14.3617 72.64C7.91978 67.8802 8.64171 59.92 9.68174 52.5C12.059 35.54 26.9642 26 47.6418 26C68.3193 26 83.7218 36.6 86.1217 52.5Z" fill="#5B4028"/>
</mask>
<g mask="url(#mask0_9_2)">
<path d="M84.273 55.68C85.26 62.57 85.9452 71.0602 79.8314 75.82C73.3635 80.8555 57.8415 82.18 47.7533 82.18C37.665 82.18 22.6365 80.8555 16.1686 75.82C10.0548 71.0602 10.74 63.1 11.727 55.68C13.9831 38.72 28.1291 29.18 47.7533 29.18C67.3775 29.18 81.9953 39.78 84.273 55.68Z" fill="#E8E896"/>
<ellipse cx="8.89666" cy="11.5125" rx="8.89666" ry="11.5125" transform="matrix(0.812855 -0.582467 0.567805 0.823163 4.84 60.744)" fill="#DF6653"/>
<ellipse cx="8.89666" cy="11.5125" rx="8.89666" ry="11.5125" transform="matrix(-0.812855 -0.582467 -0.567805 0.823163 91.6571 60.744)" fill="#DF6653"/>
</g>
<path d="M16.5156 52.2015C16.1156 42.2015 22.0156 36.0348 25.0156 34.2015C38.0156 29.2015 46.0156 40.7015 39.0156 52.2015C32.0156 63.7015 17.0156 64.7015 16.5156 52.2015Z" fill="#BEB394"/>
<path d="M18.5317 51.04C18.1973 42.531 23.1308 37.2838 25.6393 35.7238C36.5097 31.4693 43.1992 41.2547 37.3459 51.04C31.4926 60.8254 18.9498 61.6763 18.5317 51.04Z" fill="white"/>
<ellipse cx="29.4714" cy="44.8715" rx="3.79733" ry="5.0631" transform="rotate(14.9536 29.4714 44.8715)" fill="#3F260F"/>
<path d="M78.5909 52.2015C78.9909 42.2015 73.0909 36.0348 70.0909 34.2015C57.0909 29.2015 49.0909 40.7015 56.0909 52.2015C63.0909 63.7015 78.0909 64.7015 78.5909 52.2015Z" fill="#BEB394"/>
<path d="M76.5747 51.04C76.9092 42.531 71.9757 37.2838 69.4672 35.7238C58.5967 31.4693 51.9073 41.2547 57.7606 51.04C63.6139 60.8254 76.1566 61.6763 76.5747 51.04Z" fill="white"/>
<ellipse cx="3.79733" cy="5.0631" rx="3.79733" ry="5.0631" transform="matrix(-0.966135 0.258036 0.258036 0.966135 66.9973 39)" fill="#3F260F"/>
<path fill-rule="evenodd" clip-rule="evenodd" d="M47.3642 25.3125C40.3287 25.3123 31.8645 25.2885 28.8602 22.559C25.2827 19.3086 22.2938 14.2984 22.7989 7.13925C22.4622 6.95568 21.4857 6.80883 20.2734 7.68996C18.7581 8.79136 18.253 12.0956 18.253 12.6463C18.253 12.8193 18.0037 12.8836 17.646 12.9758C16.8654 13.1771 15.5688 13.5115 15.2224 15.3998C14.8183 17.6026 15.054 18.5204 15.2224 18.704C14.3805 18.3369 12.4948 18.0432 11.6866 19.8054C10.6764 22.0082 13.7071 26.4139 20.2734 34.1237C24.8193 34.1237 33.2041 41.867 40.4776 52H47.1793H47.5491H54.2508C61.5243 41.867 69.9091 34.1237 74.455 34.1237C81.0214 26.4139 84.052 22.0082 83.0418 19.8054C82.2336 18.0432 80.3479 18.3369 79.5061 18.704C79.6744 18.5204 79.9101 17.6026 79.5061 15.3998C79.1597 13.5115 77.8631 13.1771 77.0824 12.9758C76.7248 12.8836 76.4754 12.8193 76.4754 12.6463C76.4754 12.0956 75.9703 8.79136 74.455 7.68996C73.2428 6.80883 72.2662 6.95568 71.9295 7.13925C72.4346 14.2984 69.4457 19.3086 65.8682 22.559C62.864 25.2885 54.3998 25.3123 47.3642 25.3125Z" fill="url(#paint0_linear_9_2)"/>
<ellipse cx="42.6501" cy="42.7955" rx="2" ry="2.04545" fill="#B68C5D"/>
<ellipse cx="2.386" cy="2.50695" rx="2.386" ry="2.50695" transform="matrix(-0.341126 0.940018 -0.934915 -0.354871 39.9655 36.3929)" fill="#B68C5D"/>
<ellipse cx="2.53287" cy="2.71918" rx="2.53287" ry="2.71918" transform="matrix(-0.434715 0.900568 -0.89267 -0.450711 33.5818 31.5087)" fill="#B68C5D"/>
<ellipse cx="3.06466" cy="3.31334" rx="3.06466" ry="3.31334" transform="matrix(-0.58527 0.810839 -0.798084 -0.602546 27.3722 26.11)" fill="#B68C5D"/>
<ellipse cx="2" cy="2.04545" rx="2" ry="2.04545" transform="matrix(-1 0 0 1 55.6501 40.9737)" fill="#B68C5D"/>
<ellipse cx="2.386" cy="2.50695" rx="2.386" ry="2.50695" transform="matrix(0.341126 0.940018 0.934915 -0.354871 56.3347 36.6166)" fill="#B68C5D"/>
<ellipse cx="2.53287" cy="2.71918" rx="2.53287" ry="2.71918" transform="matrix(0.434715 0.900568 0.89267 -0.450711 62.7184 31.7324)" fill="#B68C5D"/>
<ellipse cx="3.06466" cy="3.31334" rx="3.06466" ry="3.31334" transform="matrix(0.58527 0.810839 0.798084 -0.602546 68.928 26.3337)" fill="#B68C5D"/>
<path d="M61.4962 62C61.4962 69.1797 55.452 74 47.9962 74C40.5404 74 34.4962 69.1797 34.4962 62C34.4962 54.8203 40.5404 48 47.9962 48C55.452 48 61.4962 54.8203 61.4962 62Z" fill="url(#paint1_linear_9_2)"/>
<path d="M59.8143 60.8592C50.379 64.4627 41.2785 62.891 36.1967 61.0182C35.6397 60.8129 35.1338 61.5502 35.5433 61.9932C45.3833 72.6378 55.3642 67.1485 60.4087 61.7212C60.8059 61.2938 60.351 60.6542 59.8143 60.8592Z" fill="#583A15"/>
<mask id="mask1_9_2" style="mask-type:alpha" maskUnits="userSpaceOnUse" x="35" y="60" width="27" height="9">
<path d="M60.4263 60.6266C50.8115 64.5142 41.4506 62.9382 36.3592 61.0759C35.8546 60.8913 35.3897 61.5325 35.7552 61.9263C45.9169 72.875 56.0509 66.9551 60.9998 61.3667C61.3442 60.9777 60.9079 60.4319 60.4263 60.6266Z" fill="#583A15"/>
</mask>
<g mask="url(#mask1_9_2)">
<ellipse cx="47.9806" cy="60.7375" rx="7.13725" ry="5.29978" transform="rotate(-0.714141 47.9806 60.7375)" fill="#9A4F01"/>
</g>
<ellipse cx="0.736042" cy="1.93048" rx="0.736042" ry="1.93048" transform="matrix(0.665067 -0.746784 0.698534 0.715577 50.8202 51.0993)" fill="#DAAB07"/>
<ellipse cx="0.736042" cy="1.93048" rx="0.736042" ry="1.93048" transform="matrix(-0.665067 -0.746784 -0.698534 0.715577 45.1723 51.0993)" fill="#DAAB07"/>
<path d="M34.2437 74.3113C36.0441 72.8897 42.4955 76.6807 45.4962 78.7539V84.5291C43.6958 86.7504 41.4453 88.5274 36.0441 88.9717C30.6429 89.416 32.8934 84.5291 33.3435 81.4194C33.6281 79.4526 31.9932 76.0883 34.2437 74.3113Z" fill="#1F6543"/>
<path d="M42.2641 79.6901C40.4205 78.4757 36.6474 76.4395 36.304 78.0103C35.8747 79.9738 45.0295 81.5118 42.2641 79.6901Z" fill="#308C60"/>
<path d="M42.3023 82.1548C40.1365 82.5831 36.0194 83.7796 36.8769 85.1398C37.9487 86.84 45.5509 81.5124 42.3023 82.1548Z" fill="#308C60"/>
<path d="M61.7488 74.3113C59.9484 72.8897 53.4969 76.6807 50.4962 78.7539V84.5291C52.2966 86.7504 54.5471 88.5274 59.9484 88.9717C65.3496 89.416 63.0991 84.5291 62.649 81.4194C62.3643 79.4526 63.9993 76.0883 61.7488 74.3113Z" fill="#1F6543"/>
<path d="M53.7283 79.6901C55.572 78.4757 59.3451 76.4395 59.6885 78.0103C60.1177 79.9738 50.9629 81.5118 53.7283 79.6901Z" fill="#308C60"/>
<path d="M53.6901 82.1548C55.8559 82.5831 59.973 83.7796 59.1155 85.1398C58.0437 86.84 50.4415 81.5124 53.6901 82.1548Z" fill="#308C60"/>
<rect x="44.4962" y="78" width="7" height="8" rx="2" fill="#277650"/>
<defs>
<linearGradient id="paint0_linear_9_2" x1="47.3642" y1="7" x2="47.3642" y2="52" gradientUnits="userSpaceOnUse">
<stop stop-color="#5B4028"/>
<stop offset="1" stop-color="#412C19"/>
</linearGradient>
<linearGradient id="paint1_linear_9_2" x1="47.9962" y1="48" x2="47.9962" y2="74" gradientUnits="userSpaceOnUse">
<stop stop-color="#F9E045"/>
<stop offset="1" stop-color="#CEB726"/>
</linearGradient>
</defs>
</svg>
