<svg width="96" height="96" viewBox="0 0 96 96" fill="none" xmlns="http://www.w3.org/2000/svg">
<path fill-rule="evenodd" clip-rule="evenodd" d="M68.8826 17.5867C61.7298 18.7481 57.6488 21.1663 54.5253 24.1878C54.1778 23.5967 53.5352 23.2 52.8 23.2H41.4C40.6648 23.2 40.0222 23.5967 39.6747 24.1878C36.6316 21.2441 32.6797 18.8731 25.8639 17.6789C25.5307 16.0017 25.3975 14.1568 25.5284 12.1349C25.2291 11.9571 24.3611 11.8149 23.2835 12.6682C22.1189 13.5905 21.6256 16.1078 21.5134 17.1171C21.2801 17.0965 21.0441 17.0769 20.8053 17.0585C11.0419 16.3041 12.6431 22.9877 14.0742 28.9608C14.3848 30.2573 14.6874 31.5204 14.864 32.6666C15.0646 33.9685 14.8319 35.5666 14.5857 37.2583C14.3167 39.106 14.0315 41.0653 14.2767 42.8723C11.9065 46.6595 10.3293 51.0932 9.68174 56.1269C8.64171 64.2113 7.91978 72.8844 14.3617 78.0704C21.1768 83.5569 37.012 85 47.6418 85C58.2715 85 74.6266 83.5569 81.4417 78.0704C87.8837 72.8844 87.1617 63.6339 86.1217 56.1269C85.3489 50.5484 83.2279 45.5688 80.0167 41.3807C80.0157 40.0156 79.8107 38.6072 79.6144 37.2584L79.6143 37.2583C79.3681 35.5666 79.1354 33.9685 79.336 32.6666C79.5126 31.5204 79.8152 30.2573 80.1258 28.9608C81.5568 22.9877 83.1581 16.3041 73.3947 17.0585L73.21 17.073C73.0886 16.0363 72.5929 13.5774 71.4449 12.6682C70.3674 11.8149 69.4993 11.9571 69.2 12.1349C69.3285 14.1198 69.2025 15.9341 68.8826 17.5867Z" fill="#FFEBEC"/>
<path fill-rule="evenodd" clip-rule="evenodd" d="M79.6144 37.2584C79.8107 38.6072 80.0157 40.0155 80.0167 41.3806C83.2279 45.5687 85.3489 50.5484 86.1217 56.1268C87.1617 63.6338 87.8837 72.8844 81.4417 78.0704C74.6266 83.5568 58.2715 85 47.6418 85C37.012 85 21.1769 83.5568 14.3617 78.0704C7.91978 72.8844 8.64172 64.2113 9.68175 56.1268C10.3293 51.0932 11.9065 46.6594 14.2767 42.8722C14.0315 41.0653 14.3167 39.1059 14.5857 37.2582C14.8319 35.5665 15.0646 33.9684 14.864 32.6666C14.6874 31.5203 14.3848 30.2573 14.0742 28.9607C12.6431 22.9877 11.0419 16.304 20.8053 17.0584C21.0441 17.0769 21.2801 17.0964 21.5134 17.1171C21.6156 16.1976 22.0341 14.0264 22.9884 12.95C23.0816 12.8449 23.1799 12.7502 23.2835 12.6682C23.7084 12.3317 24.1007 12.15 24.4384 12.0642C24.9572 11.9325 25.3471 12.0271 25.5284 12.1348C25.3975 14.1567 25.5307 16.0016 25.8639 17.6789C31.3495 18.64 34.98 20.3634 37.7746 22.5341C38.4523 23.0605 39.0808 23.6132 39.6747 24.1877C39.8364 23.9128 40.0619 23.6799 40.3309 23.5094C40.6401 23.3134 41.0068 23.2 41.4 23.2H52.8C53.1932 23.2 53.5599 23.3134 53.8691 23.5094C54.1381 23.6799 54.3636 23.9128 54.5253 24.1877C55.1192 23.6132 55.7477 23.0605 56.4254 22.5341C59.3118 20.2921 63.0899 18.5273 68.8826 17.5867C69.2025 15.9341 69.3285 14.1197 69.2 12.1348C69.3813 12.0271 69.7713 11.9325 70.29 12.0642C70.6277 12.15 71.02 12.3317 71.4449 12.6682C71.5485 12.7502 71.6468 12.8449 71.74 12.95C72.6794 14.0096 73.0996 16.1298 73.21 17.073L73.3947 17.0584C83.1581 16.304 81.5568 22.9877 80.1258 28.9607C79.8152 30.2573 79.5126 31.5203 79.336 32.6666C79.1354 33.9684 79.3681 35.5665 79.6144 37.2584ZM82.0871 36.89C81.8232 35.0771 81.6758 33.8978 81.8069 33.0473L79.5775 32.7038L81.8069 33.0473C81.9647 32.0226 82.2403 30.8655 82.557 29.5432L80.1258 28.9607L82.5571 29.5432L82.5714 29.4832C82.9194 28.0308 83.312 26.392 83.5278 24.8135C83.7438 23.2329 83.8219 21.4658 83.3681 19.8216C82.8833 18.0654 81.8002 16.5032 79.9047 15.534C78.5963 14.865 77.029 14.5448 75.2299 14.5043C75.1856 14.3508 75.1381 14.1958 75.087 14.0406C74.7767 13.0988 74.1796 11.6449 72.997 10.7083C71.2989 9.36348 69.3071 9.16347 67.9233 9.98538C67.1151 10.4654 66.6445 11.3583 66.7052 12.2964C66.7779 13.4183 66.7593 14.4688 66.666 15.4516C61.1395 16.5849 57.3528 18.5255 54.366 20.9802C53.8786 20.7991 53.351 20.7 52.8 20.7H41.4C40.849 20.7 40.3214 20.7991 39.834 20.9802C36.948 18.6084 33.3118 16.7137 28.0737 15.566C27.9707 14.5503 27.9477 13.4618 28.0232 12.2964C28.0839 11.3583 27.6133 10.4654 26.8051 9.98538C25.4213 9.16347 23.4296 9.36349 21.7314 10.7083C20.5342 11.6565 19.9349 13.137 19.6261 14.0875C19.5812 14.2256 19.5391 14.3635 19.4997 14.5004C17.4771 14.486 15.7305 14.8002 14.2953 15.534C12.3998 16.5032 11.3167 18.0655 10.8319 19.8216C10.3781 21.4658 10.4562 23.2329 10.6722 24.8135C10.8879 26.3921 11.2806 28.0308 11.6286 29.4832L11.643 29.5432C11.9597 30.8655 12.2353 32.0226 12.3931 33.0473C12.5244 33.899 12.3763 35.0807 12.1117 36.8981C12.1048 36.9457 12.0978 36.9937 12.0908 37.0421C11.8717 38.5439 11.5985 40.4174 11.7101 42.2827C9.38567 46.2286 7.8515 50.7605 7.20218 55.8078C6.68408 59.8351 6.19554 64.3206 6.73663 68.506C7.28802 72.7712 8.93203 76.9087 12.794 80.0178C16.7311 83.1872 22.944 84.9989 29.1511 86.057C35.4687 87.134 42.2326 87.5 47.6418 87.5C53.0503 87.5 59.9409 87.134 66.3839 86.0585C72.706 85.0031 79.0628 83.195 83.0094 80.0178C86.8954 76.8894 88.5218 72.5852 89.0676 68.2837C89.6074 64.0291 89.1204 59.5541 88.5981 55.7838C87.8063 50.0685 85.694 44.9134 82.4945 40.5203C82.4328 39.264 82.2535 38.0329 82.0993 36.9735L82.0883 36.8982C82.0879 36.8955 82.0875 36.8927 82.0871 36.89Z" fill="#9E0C00"/>
<path d="M16.8444 47.3566C20.8053 50.2947 34.9985 42.46 41.6 38.1754V26.2398C37.6391 21.6491 32.688 17.9766 20.8053 17.0585C8.92262 16.1404 13.8738 26.2398 14.864 32.6667C15.4902 36.7314 11.8933 43.6841 16.8444 47.3566Z" fill="#FF80AD"/>
<path d="M34.4893 36.2404C30.4333 38.7503 22.1325 42.9584 21.3771 39.7121C20.4328 35.6542 40.5733 32.4756 34.4893 36.2404Z" fill="#FF9DC1"/>
<path d="M34.5733 31.1466C29.8087 30.2616 20.751 27.7887 22.6375 24.9777C24.9955 21.464 41.7203 32.4742 34.5733 31.1466Z" fill="#FF9DC1"/>
<path d="M77.3556 47.3566C73.3947 50.2947 59.2015 42.46 52.6 38.1754V26.2398C56.5609 21.6491 61.512 17.9766 73.3947 17.0585C85.2774 16.1404 80.3262 26.2398 79.336 32.6667C78.7098 36.7314 82.3067 43.6841 77.3556 47.3566Z" fill="#FF80AD"/>
<path d="M59.7107 36.2404C63.7666 38.7503 72.0675 42.9584 72.8229 39.7121C73.7672 35.6542 53.6267 32.4756 59.7107 36.2404Z" fill="#FF9DC1"/>
<path d="M59.6267 31.1466C64.3913 30.2616 73.449 27.7887 71.5625 24.9777C69.2045 21.464 52.4797 32.4742 59.6267 31.1466Z" fill="#FF9DC1"/>
<rect width="15.4" height="16.5333" rx="2" transform="matrix(1 0 0 -1 39.4 39.7333)" fill="#FF9DC1"/>
<path d="M86.1217 56.1269C87.1617 63.6339 87.8837 72.8844 81.4417 78.0704C74.6266 83.5569 58.2715 85 47.6418 85C37.012 85 21.1768 83.5569 14.3617 78.0704C7.91978 72.8844 8.64171 64.2113 9.68174 56.1269C12.059 37.6481 26.9642 27.2537 47.6418 27.2537C68.3193 27.2537 83.7218 38.803 86.1217 56.1269Z" fill="#D4331A"/>
<mask id="mask0_9_201" style="mask-type:alpha" maskUnits="userSpaceOnUse" x="9" y="27" width="78" height="58">
<path d="M86.1217 56.1269C87.1617 63.6339 87.8837 72.8844 81.4417 78.0704C74.6266 83.5569 58.2715 85 47.6418 85C37.012 85 21.1768 83.5569 14.3617 78.0704C7.91978 72.8844 8.64171 64.2113 9.68174 56.1269C12.059 37.6481 26.9642 27.2537 47.6418 27.2537C68.3193 27.2537 83.7218 38.803 86.1217 56.1269Z" fill="#5B4028"/>
</mask>
<g mask="url(#mask0_9_201)">
<path d="M84.193 59.5916C85.18 67.0987 85.8652 76.3492 79.7514 81.5352C73.2835 87.0217 57.7615 88.4648 47.6733 88.4648C37.585 88.4648 22.5565 87.0217 16.0886 81.5352C9.97481 76.3492 10.66 67.6761 11.647 59.5916C13.9031 41.1128 28.0491 30.7185 47.6733 30.7185C67.2975 30.7185 81.9153 42.2678 84.193 59.5916Z" fill="#FFEBEC"/>
<ellipse cx="6.54847" cy="7.06871" rx="6.54847" ry="7.06871" transform="matrix(0.928576 -0.371142 0.777584 0.628779 11 63.7115)" fill="#FFA193"/>
<ellipse cx="6.54847" cy="7.06871" rx="6.54847" ry="7.06871" transform="matrix(-0.928576 -0.371142 -0.777584 0.628779 84 63.7115)" fill="#FFA193"/>
</g>
<ellipse cx="4.19629" cy="5.61632" rx="4.19629" ry="5.61632" transform="matrix(0.965853 0.259092 -0.256984 0.966416 25.8866 47)" fill="#3F260F"/>
<ellipse cx="4.19629" cy="5.61632" rx="4.19629" ry="5.61632" transform="matrix(-0.965853 0.259092 0.256984 0.966416 69.9527 47)" fill="#3F260F"/>
<path fill-rule="evenodd" clip-rule="evenodd" d="M47.3642 29.7355C41.1104 29.7353 33.5867 29.7123 30.9162 27.0687C27.7362 23.9208 25.0794 19.0684 25.5284 12.1349C25.2291 11.9571 24.3611 11.8149 23.2835 12.6682C21.9366 13.7349 21.4876 16.935 21.4876 17.4684C21.4876 17.6359 21.2659 17.6982 20.948 17.7875C20.2541 17.9825 19.1016 18.3063 18.7937 20.1351C18.4345 22.2685 18.644 23.1574 18.7937 23.3352C18.0454 22.9797 16.3692 22.6952 15.6508 24.4019C14.7528 26.5353 17.4467 30.8022 23.2835 38.2691C27.3243 38.2691 34.7774 45.7684 41.2428 55.5821H47.1999H47.5285H53.4857C59.951 45.7684 67.4041 38.2691 71.4449 38.2691C77.2817 30.8022 79.9756 26.5353 79.0776 24.4019C78.3593 22.6952 76.6831 22.9797 75.9348 23.3352C76.0844 23.1574 76.2939 22.2685 75.9348 20.1351C75.6269 18.3063 74.4743 17.9825 73.7804 17.7875C73.4625 17.6982 73.2409 17.6359 73.2409 17.4684C73.2409 16.935 72.7919 13.7349 71.4449 12.6682C70.3674 11.8149 69.4993 11.9571 69.2 12.1349C69.649 19.0684 66.9922 23.9208 63.8122 27.0687C61.1418 29.7123 53.6181 29.7353 47.3642 29.7355Z" fill="url(#paint0_linear_9_201)"/>
<ellipse cx="43.1739" cy="46.6675" rx="1.77778" ry="1.981" fill="#FFEBEC"/>
<ellipse cx="2.28953" cy="2.2545" rx="2.28953" ry="2.2545" transform="matrix(-0.316 0.948759 -0.924091 -0.382174 40.7876 40.4668)" fill="#FFEBEC"/>
<ellipse cx="2.41625" cy="2.46256" rx="2.41625" ry="2.46256" transform="matrix(-0.405064 0.914289 -0.876172 -0.481998 35.1132 35.7364)" fill="#FFEBEC"/>
<ellipse cx="2.88685" cy="3.04359" rx="2.88685" ry="3.04359" transform="matrix(-0.552282 0.833657 -0.772282 -0.63528 29.5935 30.5079)" fill="#FFEBEC"/>
<ellipse cx="1.77778" cy="1.981" rx="1.77778" ry="1.981" transform="matrix(-1 0 0 1 54.7294 44.9032)" fill="#FFEBEC"/>
<ellipse cx="2.28953" cy="2.2545" rx="2.28953" ry="2.2545" transform="matrix(0.316 0.948759 0.924091 -0.382174 55.338 40.6835)" fill="#FFEBEC"/>
<ellipse cx="2.41625" cy="2.46256" rx="2.41625" ry="2.46256" transform="matrix(0.405064 0.914289 0.876172 -0.481998 61.0123 35.9531)" fill="#FFEBEC"/>
<ellipse cx="2.88685" cy="3.04359" rx="2.88685" ry="3.04359" transform="matrix(0.552282 0.833657 0.772282 -0.63528 66.5321 30.7245)" fill="#FFEBEC"/>
<path d="M61.4962 66.4776C61.4962 74.3003 55.452 79.5522 47.9962 79.5522C40.5403 79.5522 34.4962 74.3003 34.4962 66.4776C34.4962 58.6549 40.5403 51.2239 47.9962 51.2239C55.452 51.2239 61.4962 58.6549 61.4962 66.4776Z" fill="url(#paint1_linear_9_201)"/>
<path d="M59.8143 65.2346C50.379 69.1609 41.2785 67.4484 36.1967 65.4078C35.6397 65.1842 35.1337 65.9875 35.5432 66.4701C45.3833 78.0681 55.3642 72.0872 60.4087 66.1738C60.8059 65.7081 60.3509 65.0113 59.8143 65.2346Z" fill="#583A15"/>
<mask id="mask1_9_201" style="mask-type:alpha" maskUnits="userSpaceOnUse" x="35" y="64" width="27" height="10">
<path d="M60.4786 64.9581C50.809 69.2393 41.3888 67.4904 36.3015 65.4476C35.8046 65.2481 35.3119 65.8722 35.657 66.2815C45.9106 78.4381 56.153 71.8204 61.0856 65.6814C61.4102 65.2774 60.9523 64.7484 60.4786 64.9581Z" fill="#583A15"/>
</mask>
<g mask="url(#mask1_9_201)">
<ellipse cx="7.13736" cy="5.77432" rx="7.13736" ry="5.77432" transform="matrix(0.999908 -0.0135797 0.0114395 0.999935 40.7778 59.425)" fill="#9A4F01"/>
</g>
<ellipse cx="0.773494" cy="2.02085" rx="0.773494" ry="2.02085" transform="matrix(0.632864 -0.774263 0.667296 0.744793 50.8202 54.6007)" fill="#DAAB07"/>
<ellipse cx="0.773494" cy="2.02085" rx="0.773494" ry="2.02085" transform="matrix(-0.632864 -0.774263 -0.667296 0.744793 45.1722 54.6007)" fill="#DAAB07"/>
<defs>
<linearGradient id="paint0_linear_9_201" x1="47.3642" y1="12" x2="47.3642" y2="55.5821" gradientUnits="userSpaceOnUse">
<stop offset="0.129713" stop-color="#D4331A"/>
<stop offset="1" stop-color="#AD0000"/>
</linearGradient>
<linearGradient id="paint1_linear_9_201" x1="47.9962" y1="51.2239" x2="47.9962" y2="79.5522" gradientUnits="userSpaceOnUse">
<stop stop-color="#F9E045"/>
<stop offset="1" stop-color="#DCBD00"/>
</linearGradient>
</defs>
</svg>
