<svg width="96" height="96" viewBox="0 0 96 96" fill="none" xmlns="http://www.w3.org/2000/svg">
<g clip-path="url(#clip0_36_12)">
<path fill-rule="evenodd" clip-rule="evenodd" d="M27.1858 8.1007L62.6364 8.5288C64.3351 10.4274 64.2184 12.5258 63.9478 13.3377L52.71 15.2036C54.3334 16.6112 55.769 18.2975 57.0365 20.1454C59.4075 23.6021 61.269 27.7371 62.7185 31.9865C65.3898 39.8179 66.7458 48.2886 67.225 54.2266C68.1976 53.9254 69.1464 53.6839 69.8546 53.6737C78.2895 53.553 83.9074 58.9238 86.2294 67.4387C88.9815 77.5311 82.6752 86.6384 72.5828 89.3906C62.4904 92.1428 52.4337 87.4976 49.6815 77.4052C47.2959 68.6569 49.5546 60.4342 57.2765 56.4026C59.3429 55.3237 61.0567 55.3529 62.3663 55.3751C62.5995 55.3791 62.8199 55.3829 63.0272 55.3801C62.6336 49.7025 61.3328 41.1581 58.6748 33.3659C57.3027 29.3433 55.5936 25.5951 53.5132 22.562C52.1362 20.5545 50.6308 18.9094 48.9957 17.6959C47.8594 26.152 44.1512 41.1752 35.5476 54.4556C36.8809 54.8832 38.3131 55.3683 39.1113 55.9377C45.9787 60.8367 47.3237 68.4916 44.1509 76.7274C40.3902 86.4889 29.9146 90.0911 20.153 86.3304C10.3915 82.5697 5.0404 72.8703 8.8011 63.1087C12.0609 54.6472 18.7514 49.3601 27.3609 50.6858C29.384 50.9974 30.682 51.8362 31.6738 52.5735C40.296 39.4827 43.8695 24.3905 44.8416 16.5101L29.3488 19.0824L29.3486 19.0825C27.8309 19.4963 25.9296 17.3712 25.1019 14.3359C24.2742 11.3006 24.8335 8.50451 26.3511 8.09065L26.3511 8.09063C26.62 8.01731 26.9009 8.0237 27.1858 8.1007Z" fill="url(#paint0_radial_36_12)"/>
<path fill-rule="evenodd" clip-rule="evenodd" d="M62.6702 5.72904C63.455 5.73851 64.1998 6.07694 64.7231 6.66186C67.1834 9.41176 67.1465 12.5961 66.6041 14.2233C66.2759 15.2077 65.4301 15.93 64.4064 16.0999L58.2965 17.1144C58.6595 17.5878 59.009 18.071 59.3455 18.5616C61.907 22.296 63.8684 26.6845 65.3686 31.0826C67.6896 37.8872 69.042 45.1184 69.7077 50.8765C69.7434 50.8754 69.7791 50.8746 69.8146 50.874C74.679 50.8044 78.8721 52.3341 82.1723 55.2055C85.4361 58.0453 87.6623 62.0505 88.9308 66.7021C92.1599 78.5436 84.6329 89.0068 73.3194 92.092C62.006 95.1771 50.2094 89.9834 46.9802 78.1419C46.9277 77.9493 46.8772 77.7566 46.8287 77.5638C46.8072 77.6206 46.7856 77.6773 46.7637 77.734C42.3513 89.1873 30.0891 93.159 19.1465 88.9433C8.20384 84.7276 1.77587 73.5554 6.18832 62.1021C9.76447 52.8196 17.4893 46.3328 27.787 47.9185C28.943 48.0965 29.923 48.4104 30.7572 48.7796C36.9231 38.5738 40.1127 27.4297 41.4849 19.9058L29.9158 21.8266C27.661 22.3501 25.8461 20.9497 24.8798 19.8696C23.7646 18.6231 22.904 16.9187 22.4006 15.0726C21.8971 13.2265 21.7733 11.3212 22.1014 9.68107C22.3921 8.22793 23.2772 6.0357 25.5984 5.39373C25.6038 5.39223 25.6092 5.39075 25.6146 5.38928C26.2633 5.2124 26.9018 5.20234 27.4934 5.30424L62.6702 5.72904ZM27.1858 8.10073C26.9009 8.02373 26.62 8.01734 26.3512 8.09068C24.8335 8.50454 24.2742 11.3006 25.1019 14.336C25.9296 17.3713 27.8309 19.4964 29.3486 19.0825L44.8416 16.5101C44.7326 17.3936 44.5909 18.3677 44.4131 19.4196C43.0999 27.1869 39.8155 39.1894 33.1711 50.1988C32.6898 50.9962 32.1909 51.7885 31.6739 52.5735C31.2898 52.288 30.8598 51.9873 30.3595 51.7078C29.568 51.2656 28.6006 50.8767 27.3609 50.6858C18.7514 49.3602 12.061 54.6472 8.80112 63.1087C5.04043 72.8703 10.3915 82.5698 20.1531 86.3305C29.9146 90.0912 40.3902 86.489 44.1509 76.7274C47.3238 68.4916 45.9788 60.8367 39.1114 55.9377C38.8713 55.7665 38.5739 55.6028 38.239 55.4461C37.4606 55.0817 36.4799 54.7546 35.5476 54.4556C36.0727 53.645 36.5797 52.8279 37.0689 52.0061C43.6573 40.9396 47.0334 29.0382 48.488 20.9179C48.6949 19.763 48.8629 18.6846 48.9958 17.696C49.8628 18.3395 50.6934 19.1043 51.4878 19.9803C52.1913 20.7561 52.8664 21.6191 53.5132 22.5621C55.5936 25.5951 57.3027 29.3433 58.6748 33.3659C60.9254 39.9639 62.203 47.1012 62.7807 52.5807C62.8853 53.5725 62.9669 54.51 63.0273 55.3801C62.82 55.3829 62.5996 55.3791 62.3663 55.3752C61.7427 55.3646 61.0274 55.3524 60.2259 55.4591C59.3445 55.5764 58.3588 55.8375 57.2765 56.4026C49.5546 60.4342 47.2959 68.6569 49.6816 77.4052C52.4337 87.4976 62.4904 92.1428 72.5828 89.3906C82.6752 86.6384 88.9816 77.5311 86.2294 67.4387C83.9197 58.969 78.3491 53.6102 69.9888 53.6723C69.9441 53.6726 69.8994 53.6731 69.8546 53.6738C69.1464 53.6839 68.1977 53.9255 67.225 54.2267C67.153 53.3337 67.0611 52.3834 66.9478 51.3867C66.3082 45.7554 64.9881 38.6402 62.7185 31.9866C61.269 27.7372 59.4075 23.6021 57.0365 20.1454C56.4364 19.2705 55.7986 18.4317 55.121 17.6417C54.3675 16.7631 53.5648 15.9447 52.7101 15.2036L63.9478 13.3378C64.2185 12.5259 64.3351 10.4275 62.6364 8.52883L27.1858 8.10073ZM59.9742 52.6683C59.404 47.3831 58.1674 40.5514 56.0247 34.2698C54.7033 30.3959 53.0941 26.9012 51.2042 24.1458C51.0775 23.9612 50.9503 23.7809 50.8226 23.6049C49.1578 31.7325 45.7877 42.7004 39.7068 53.0463C40.0611 53.2246 40.414 53.4275 40.7375 53.6583C44.1381 56.0843 46.4416 59.167 47.6313 62.6922C49.2023 59.1029 51.9333 56.0336 55.9806 53.9205C57.4591 53.1486 58.8184 52.8114 59.9742 52.6683Z" fill="#450000"/>
<path fill-rule="evenodd" clip-rule="evenodd" d="M62.6364 8.52873L26.3512 8.09055L29.3486 19.0824L44.8416 16.51C43.8365 24.6583 40.0501 40.5171 30.7769 53.9013C30.105 54.871 30.3464 56.2019 31.3162 56.8738C32.286 57.5457 33.6169 57.3042 34.2888 56.3345C43.7933 42.6165 47.8055 26.5534 48.9958 17.6959C50.6308 18.9093 52.1363 20.5544 53.5132 22.5619C55.5936 25.595 57.3027 29.3432 58.6748 33.3658C61.421 41.4166 62.7185 50.2703 63.0635 55.9356C63.1352 57.1132 64.148 58.0098 65.3256 57.938C66.5033 57.8663 67.3998 56.8535 67.3281 55.6759C66.9656 49.7249 65.6156 40.4796 62.7185 31.9865C61.269 27.7371 59.4076 23.602 57.0365 20.1453C55.7691 18.2975 54.3335 16.6111 52.7101 15.2035L63.9478 13.3377C64.2185 12.5258 64.3351 10.4274 62.6364 8.52873Z" fill="url(#paint1_linear_36_12)"/>
<ellipse cx="27.8499" cy="13.5865" rx="2.8483" ry="5.6966" transform="rotate(-15.2535 27.8499 13.5865)" fill="#C87927"/>
<path d="M86.2294 67.4387C88.9816 77.5311 82.6752 86.6384 72.5828 89.3905C62.4904 92.1427 52.4337 87.4976 49.6816 77.4052C47.2959 68.6569 49.5546 60.4342 57.2765 56.4025C60.3454 54.8003 62.6367 55.6419 63.9808 55.2754C65.5583 54.8452 68.292 53.6961 69.8546 53.6737C78.2895 53.553 83.9074 58.9237 86.2294 67.4387Z" fill="url(#paint2_radial_36_12)"/>
<mask id="mask0_36_12" style="mask-type:alpha" maskUnits="userSpaceOnUse" x="48" y="53" width="39" height="38">
<path d="M86.2294 67.4387C88.9816 77.5311 82.6752 86.6384 72.5828 89.3905C62.4904 92.1427 52.4337 87.4976 49.6816 77.4052C47.2959 68.6569 49.5546 60.4342 57.2765 56.4025C60.3454 54.8003 62.6367 55.6419 63.9808 55.2754C65.5583 54.8452 68.292 53.6961 69.8546 53.6737C78.2895 53.553 83.9074 58.9237 86.2294 67.4387Z" fill="url(#paint3_radial_36_12)"/>
</mask>
<g mask="url(#mask0_36_12)">
<g style="mix-blend-mode:multiply">
<path d="M64.873 84.2602C55.1904 79.6084 54.4314 63.9689 55.2622 56.7306C35.0302 69.9607 55.2019 92.5068 63.7455 92.9817C70.5804 93.3616 78.2222 89.5014 81.1888 87.5238C79.7846 88.3742 74.5556 88.9119 64.873 84.2602Z" fill="#C4C4C4" fill-opacity="0.5"/>
</g>
<path fill-rule="evenodd" clip-rule="evenodd" d="M76.122 60.9713C78.0923 59.9022 80.5562 60.6327 81.6253 62.6029C82.4242 64.0752 83.325 66.4264 83.7428 69.1315C84.1614 71.8426 84.1418 75.2275 82.7197 78.5157C81.8298 80.5731 79.4406 81.5196 77.3831 80.6298C75.3257 79.74 74.3792 77.3507 75.269 75.2933C75.8955 73.8448 75.9905 72.1209 75.7202 70.3704C75.449 68.6139 74.8573 67.1506 74.4904 66.4746C73.4213 64.5043 74.1518 62.0404 76.122 60.9713Z" fill="#FFE6D8" fill-opacity="0.5"/>
</g>
<path d="M44.1509 76.7274C40.3902 86.4889 29.9146 90.0911 20.1531 86.3304C10.3915 82.5697 5.04046 72.8703 8.80115 63.1087C12.061 54.6472 18.7514 49.3601 27.3609 50.6858C30.7826 51.2127 32.1302 53.248 33.4302 53.7489C34.956 54.3367 37.8391 55.0301 39.1114 55.9377C45.9788 60.8367 47.3238 68.4916 44.1509 76.7274Z" fill="url(#paint4_radial_36_12)"/>
<mask id="mask1_36_12" style="mask-type:alpha" maskUnits="userSpaceOnUse" x="7" y="50" width="39" height="38">
<path d="M44.1509 76.7274C40.3902 86.4889 29.9146 90.0911 20.1531 86.3304C10.3915 82.5697 5.04046 72.8703 8.80115 63.1087C12.061 54.6472 18.7514 49.3601 27.3609 50.6858C30.7826 51.2127 32.1302 53.248 33.4302 53.7489C34.956 54.3367 37.8391 55.0301 39.1114 55.9377C45.9788 60.8367 47.3238 68.4916 44.1509 76.7274Z" fill="url(#paint5_radial_36_12)"/>
</mask>
<g mask="url(#mask1_36_12)">
<g style="mix-blend-mode:multiply">
<path d="M16.9803 77.6302C11.9345 68.147 20.5869 55.0968 25.5438 49.7571C1.4063 48.4323 4.30363 78.546 10.9058 83.9892C16.1876 88.3439 24.6311 89.7603 28.1926 89.9241C26.5576 89.7775 22.0261 87.1135 16.9803 77.6302Z" fill="#C4C4C4" fill-opacity="0.5"/>
</g>
<path fill-rule="evenodd" clip-rule="evenodd" d="M39.8385 65.5296C42.0592 65.8353 43.6116 67.8833 43.3059 70.104C43.0775 71.7634 42.4106 74.1914 41.1448 76.6183C39.8762 79.0505 37.8555 81.7661 34.762 83.573C32.8263 84.7036 30.3407 84.0509 29.2101 82.1153C28.0795 80.1797 28.7321 77.694 30.6678 76.5634C32.0305 75.7675 33.1282 74.4349 33.9473 72.8644C34.7692 71.2885 35.1592 69.7591 35.2641 68.9971C35.5698 66.7764 37.6178 65.224 39.8385 65.5296Z" fill="#FFE6D8" fill-opacity="0.5"/>
</g>
</g>
<defs>
<radialGradient id="paint0_radial_36_12" cx="0" cy="0" r="1" gradientUnits="userSpaceOnUse" gradientTransform="translate(33.5482 66.6147) rotate(124.193) scale(23.8358 25.036)">
<stop stop-color="#D60432"/>
<stop offset="1" stop-color="#A70021"/>
</radialGradient>
<linearGradient id="paint1_linear_36_12" x1="33.8455" y1="11.2134" x2="54.726" y2="60.8755" gradientUnits="userSpaceOnUse">
<stop stop-color="#9A4F01"/>
<stop offset="1" stop-color="#4E2219"/>
</linearGradient>
<radialGradient id="paint2_radial_36_12" cx="0" cy="0" r="1" gradientUnits="userSpaceOnUse" gradientTransform="translate(71.6967 65.5712) rotate(87.8696) scale(23.8358 25.036)">
<stop stop-color="#D60432"/>
<stop offset="1" stop-color="#A70021"/>
</radialGradient>
<radialGradient id="paint3_radial_36_12" cx="0" cy="0" r="1" gradientUnits="userSpaceOnUse" gradientTransform="translate(71.6967 65.5712) rotate(87.8696) scale(23.8358 25.036)">
<stop stop-color="#D60432"/>
<stop offset="1" stop-color="#A70021"/>
</radialGradient>
<radialGradient id="paint4_radial_36_12" cx="0" cy="0" r="1" gradientUnits="userSpaceOnUse" gradientTransform="translate(33.5482 66.6146) rotate(124.193) scale(23.8358 25.036)">
<stop stop-color="#D60432"/>
<stop offset="1" stop-color="#A70021"/>
</radialGradient>
<radialGradient id="paint5_radial_36_12" cx="0" cy="0" r="1" gradientUnits="userSpaceOnUse" gradientTransform="translate(33.5482 66.6146) rotate(124.193) scale(23.8358 25.036)">
<stop stop-color="#D60432"/>
<stop offset="1" stop-color="#A70021"/>
</radialGradient>
<clipPath id="clip0_36_12">
<rect width="96" height="96" fill="white"/>
</clipPath>
</defs>
</svg>
