<svg width="96" height="96" viewBox="0 0 96 96" fill="none" xmlns="http://www.w3.org/2000/svg">
<path fill-rule="evenodd" clip-rule="evenodd" d="M73.1354 6L66.561 18.4183L60.8959 19.3951C59.7593 19.5911 58.7419 20.2176 58.0553 21.1444L54.7308 25.6599C52.2448 25.4325 49.8958 25.4575 47.7456 25.5693C43.2627 25.7451 33.6641 26.3077 31.1326 27.1515C27.9682 28.2063 20.5846 32.4255 19.0024 34.0077C17.4202 35.5899 10.8278 45.083 13.7285 60.1138C16.1536 72.6807 23.0028 78.9804 26.7242 82.4033C27.4539 83.0744 28.0633 83.6349 28.4956 84.1104C31.1326 87.0111 37.9887 90.4392 47.7456 90.9666C57.5024 91.494 68.5777 85.6926 72.2695 80.1549C75.9613 74.6173 82.0264 58.7953 82.2901 55.8947C82.5537 52.994 81.7627 46.4015 79.9168 42.1824C78.0709 37.9632 74.3791 32.9529 67.2592 29.2611C64.7645 27.9676 62.3021 27.0919 59.9175 26.5124L61.8066 24.0547L67.4951 23.0739C68.8637 22.8379 70.0456 21.981 70.6953 20.7537L77.3304 8.22086L73.1354 6Z" fill="url(#paint0_linear_36_307)"/>
<path fill-rule="evenodd" clip-rule="evenodd" d="M70.6953 20.7537C70.0456 21.9811 68.8636 22.838 67.4951 23.0739L61.8065 24.0547L59.9175 26.5125C60.8677 26.7434 61.8302 27.0213 62.8022 27.3539C64.2696 27.8561 65.7586 28.483 67.2592 29.2611C74.3791 32.9529 78.0709 37.9632 79.9168 42.1824C81.7626 46.4015 82.5537 52.994 82.29 55.8947C82.0263 58.7954 75.9613 74.6173 72.2695 80.1549C68.5777 85.6926 57.5024 91.494 47.7456 90.9666C37.9887 90.4392 31.1325 87.0111 28.4956 84.1104C28.0633 83.6349 27.4539 83.0744 26.7242 82.4033C23.0028 78.9804 16.1536 72.6807 13.7284 60.1139C10.8278 45.0831 17.4202 35.5899 19.0024 34.0077C20.5846 32.4255 27.9682 28.2064 31.1325 27.1516C33.6641 26.3077 43.2627 25.7452 47.7456 25.5694C49.8958 25.4575 52.2448 25.4325 54.7308 25.6599L58.0553 21.1445C58.7419 20.2176 59.7593 19.5911 60.8959 19.3951L66.561 18.4184L73.1354 6.00002L77.3304 8.22089L70.6953 20.7537ZM64.7299 15.8928L70.6608 4.68994C71.3843 3.32325 73.0788 2.80188 74.4455 3.52542L78.6404 5.74628C79.2968 6.09374 79.7882 6.68768 80.0065 7.39744C80.2249 8.10721 80.1524 8.87466 79.805 9.53097L73.1699 22.0638C72.1143 24.0577 70.1942 25.4499 67.9708 25.8332L66.9703 26.0057C67.4947 26.2458 68.0208 26.502 68.5481 26.7754C76.2823 30.7857 80.4005 36.3023 82.482 41.0601C83.538 43.4738 84.2457 46.4365 84.6611 49.1018C85.0736 51.749 85.2397 54.3757 85.0785 56.1482C84.9775 57.2592 84.4272 59.1117 83.7869 61.0208C83.1029 63.06 82.1849 65.5345 81.1639 68.0788C79.1536 73.088 76.6228 78.6728 74.5992 81.7081C72.3633 85.062 68.1713 88.1767 63.466 90.3725C58.7113 92.5913 53.042 94.057 47.5944 93.7625C37.3998 93.2114 29.7257 89.6261 26.4237 85.9939C26.0952 85.6325 25.5947 85.1687 24.8287 84.4641L24.8256 84.4613C20.987 80.9306 13.5792 74.1171 10.9792 60.6444C7.8833 44.6022 14.8576 34.1928 17.0225 32.0278C17.6402 31.4101 18.6151 30.714 19.581 30.0784C20.6079 29.4025 21.8325 28.6616 23.0921 27.9467C25.5497 26.5519 28.3879 25.115 30.2471 24.4952C31.1629 24.19 32.4804 23.9704 33.8013 23.7969C35.1904 23.6145 36.8177 23.4552 38.4789 23.3193C41.7958 23.0479 45.3472 22.8615 47.6181 22.7722C49.3941 22.6803 51.3335 22.6437 53.392 22.7557L55.8054 19.4778C56.9207 17.9721 58.5736 16.9542 60.4202 16.6358L64.7299 15.8928Z" fill="#223B23"/>
<path d="M31.1326 27.1515C33.6641 26.3077 43.2627 25.7451 47.7456 25.5693C53.2832 25.2813 60.1394 25.5693 67.2592 29.2611C74.3791 32.9529 78.0709 37.9632 79.9168 42.1823C81.7627 46.4015 82.5537 52.994 82.2901 55.8947C82.0264 58.7953 75.9613 74.6173 72.2695 80.1549C68.5777 85.6926 57.5024 91.494 47.7456 90.9666C37.9887 90.4392 31.1326 87.0111 28.4956 84.1104C25.8586 81.2097 16.6291 75.1447 13.7285 60.1138C10.8278 45.083 17.4202 35.5899 19.0024 34.0077C20.5846 32.4255 27.9682 28.2063 31.1326 27.1515Z" fill="url(#paint1_radial_36_307)"/>
<mask id="mask0_36_307" style="mask-type:alpha" maskUnits="userSpaceOnUse" x="13" y="25" width="70" height="66">
<path d="M31.1326 27.1515C33.6641 26.3077 43.2627 25.7451 47.7456 25.5693C53.2832 25.2813 60.1394 25.5693 67.2592 29.2611C74.3791 32.9529 78.0709 37.9632 79.9168 42.1823C81.7627 46.4015 82.5537 52.994 82.2901 55.8947C82.0264 58.7953 75.9613 74.6173 72.2695 80.1549C68.5777 85.6926 57.5024 91.494 47.7456 90.9666C37.9887 90.4392 31.1326 87.0111 28.4956 84.1104C25.8586 81.2097 16.6291 75.1447 13.7285 60.1138C10.8278 45.083 17.4202 35.5899 19.0024 34.0077C20.5846 32.4255 27.9682 28.2063 31.1326 27.1515Z" fill="url(#paint2_radial_36_307)"/>
</mask>
<g mask="url(#mask0_36_307)">
<path d="M17.5005 30.096L25.3868 24.788C25.9114 24.4349 26.5146 24.2094 27.1431 24.14C57.5817 20.7817 86.2364 32.9519 81.3068 41.8697C80.6697 43.0223 79.2132 43.3219 77.9307 43.0227L76.0494 42.5837C73.8649 42.074 71.7291 43.5832 70.2547 45.2737C69.4224 46.2279 68.2872 47.0059 66.7945 47.1925C64.2717 47.5078 60.1188 46.0752 57.0441 44.7441C55.4467 44.0526 53.4962 44.2824 51.9273 45.0364C49.4074 46.2476 44.9815 47.791 38.0513 49.0384C29.7039 50.5409 25.4301 44.6557 23.6618 39.5644C22.9594 37.5424 21.0577 36.0452 18.9397 35.7351C18.6606 35.6943 18.3865 35.6474 18.1179 35.5954C15.3001 35.0494 15.1194 31.6987 17.5005 30.096Z" fill="url(#paint3_linear_36_307)" stroke="#E0BF7C" stroke-width="2"/>
</g>
<ellipse cx="47.5445" cy="31.107" rx="16.613" ry="3.95548" fill="url(#paint4_linear_36_307)"/>
<mask id="mask1_36_307" style="mask-type:alpha" maskUnits="userSpaceOnUse" x="30" y="27" width="35" height="9">
<ellipse cx="47.5445" cy="31.107" rx="16.613" ry="3.95548" fill="url(#paint5_linear_36_307)"/>
</mask>
<g mask="url(#mask1_36_307)">
<path d="M46.4897 30.0521C37.4185 30.0521 33.0411 32.3375 31.9863 33.4802L29.613 29.5247C31.1952 28.5578 36.5747 26.5186 45.4349 26.0966C54.2952 25.6747 62.839 28.5578 66.0034 30.0521L63.8938 32.4254C61.8721 31.6343 55.561 30.0521 46.4897 30.0521Z" fill="#D4C283"/>
</g>
<path fill-rule="evenodd" clip-rule="evenodd" d="M66.561 18.4183L73.1354 6L77.3304 8.22086L70.6953 20.7537C70.0456 21.981 68.8637 22.8379 67.4951 23.0739L61.8066 24.0547L53.3459 35.0625H47.8082L58.0553 21.1444C58.7419 20.2176 59.7593 19.5911 60.8959 19.3951L66.561 18.4183Z" fill="url(#paint6_linear_36_307)"/>
<defs>
<linearGradient id="paint0_linear_36_307" x1="73.1233" y1="7.63781" x2="54.4007" y2="36.3809" gradientUnits="userSpaceOnUse">
<stop stop-color="#FD4C44"/>
<stop offset="1" stop-color="#C50902"/>
</linearGradient>
<radialGradient id="paint1_radial_36_307" cx="0" cy="0" r="1" gradientUnits="userSpaceOnUse" gradientTransform="translate(57.565 42.7097) rotate(101.58) scale(49.2937 69.8932)">
<stop stop-color="#B7E268"/>
<stop offset="1" stop-color="#597A0F"/>
</radialGradient>
<radialGradient id="paint2_radial_36_307" cx="0" cy="0" r="1" gradientUnits="userSpaceOnUse" gradientTransform="translate(57.565 42.7097) rotate(101.58) scale(49.2937 69.8932)">
<stop stop-color="#B7E268"/>
<stop offset="1" stop-color="#597A0F"/>
</radialGradient>
<linearGradient id="paint3_linear_36_307" x1="47.1677" y1="23.5688" x2="47.1677" y2="49.277" gradientUnits="userSpaceOnUse">
<stop stop-color="#FFF9E3"/>
<stop offset="1" stop-color="#E9D48C"/>
</linearGradient>
<linearGradient id="paint4_linear_36_307" x1="47.5445" y1="27.1515" x2="47.5445" y2="35.0624" gradientUnits="userSpaceOnUse">
<stop stop-color="#8A4600"/>
<stop offset="1" stop-color="#4E2219"/>
</linearGradient>
<linearGradient id="paint5_linear_36_307" x1="47.5445" y1="27.1515" x2="47.5445" y2="35.0624" gradientUnits="userSpaceOnUse">
<stop stop-color="#8A4600"/>
<stop offset="1" stop-color="#4E2219"/>
</linearGradient>
<linearGradient id="paint6_linear_36_307" x1="73.1233" y1="7.63781" x2="54.4007" y2="36.3809" gradientUnits="userSpaceOnUse">
<stop stop-color="#FD4C44"/>
<stop offset="1" stop-color="#C50902"/>
</linearGradient>
</defs>
</svg>
