<svg width="96" height="96" viewBox="0 0 96 96" fill="none" xmlns="http://www.w3.org/2000/svg">
<path fill-rule="evenodd" clip-rule="evenodd" d="M48.111 9.45035C47.1443 8.43049 45.7046 7.55002 43.6072 7.04609C36.1403 5.25204 29.7221 8.55552 30.2524 10.8219C30.4306 11.584 32.7019 12.1185 35.6371 12.5567C34.0648 12.9756 32.4122 13.6075 30.7849 14.4969C28.8948 15.5301 27.7495 16.6681 27.1024 17.7762C25.8421 17.2814 24.1723 17.0485 21.9924 17.3239C14.2317 18.3046 9.13339 22.9728 10.3786 24.5917C11.0419 25.454 16.5693 24.1796 21.669 23.0037L21.7755 22.9792C20.5087 24.7989 20.013 26.8931 20.2109 29.11C10.9113 34.9 4.99997 43.5842 4.99997 53.2922C4.99997 68.2598 19.0521 80.7941 37.9088 84.039C35.5179 86.7598 32.3165 87.763 31 87.4339C34.5976 90.093 42.7166 93.1338 48 85.5621C53.2834 93.1338 61.4024 90.093 65 87.4339C63.6667 87.7672 60.4 86.734 58 83.934C57.9921 83.9248 57.9842 83.9156 57.9763 83.9065C76.4595 80.4647 90.1452 68.0634 90.1452 53.2922C90.1452 45.4868 86.3238 38.3431 79.9924 32.8335L80.0066 32.7896C81.385 28.5052 79.699 23.9242 75.7327 21.0408C80.3567 21.6429 85.281 22.2691 85.773 21.421C86.7124 19.8017 81.646 15.9503 74.5955 15.7709C72.6151 15.7205 71.1461 16.0938 70.0718 16.6715C69.373 15.7043 68.2253 14.7562 66.4224 13.9756C64.9404 13.334 63.4631 12.9123 62.0686 12.666C64.2055 12.335 65.7335 11.9084 65.9029 11.297C66.5269 9.04601 60.2492 5.57331 52.712 7.16736C50.5948 7.61512 49.1194 8.45677 48.111 9.45035Z" fill="#E9E2DC"/>
<path fill-rule="evenodd" clip-rule="evenodd" d="M30.2524 10.822C29.7221 8.55553 36.1403 5.25205 43.6072 7.0461C45.5754 7.51897 46.9643 8.32341 47.9268 9.26346C47.99 9.32519 48.0514 9.38751 48.111 9.45036C48.174 9.38822 48.2389 9.32668 48.3057 9.26579C49.3065 8.35305 50.7272 7.58713 52.712 7.16736C60.037 5.61819 66.1724 8.85452 65.9394 11.1042C65.9326 11.1694 65.9205 11.2337 65.9029 11.2971C65.7335 11.9084 64.2055 12.335 62.0686 12.666C63.4631 12.9123 64.9404 13.334 66.4224 13.9756C66.462 13.9928 66.5013 14.01 66.5403 14.0273C68.2755 14.7979 69.3884 15.7256 70.0718 16.6715C71.1461 16.0938 72.6151 15.7205 74.5955 15.7709C81.646 15.9503 86.7124 19.8017 85.773 21.421C85.4313 22.0101 82.9513 21.8879 79.9188 21.5566C78.5854 21.4109 77.145 21.2247 75.7327 21.0408C76.8798 21.8747 77.8361 22.8506 78.5828 23.9202C80.4179 26.5491 80.9864 29.7443 80.0066 32.7896L79.9924 32.8335C86.3238 38.3431 90.1452 45.4868 90.1452 53.2922C90.1452 67.2792 77.8741 79.1413 60.8782 83.2835C59.9484 83.5102 59.0045 83.7137 58.0476 83.8931C58.0238 83.8976 58.0001 83.902 57.9763 83.9065L58 83.934C58.7173 84.7708 59.5121 85.4499 60.3094 85.9818C60.6935 86.238 61.0782 86.46 61.4551 86.6491C62.914 87.3811 64.2571 87.6196 65 87.4339C64.074 88.1184 62.8483 88.8281 61.4486 89.3757C57.9543 90.7426 53.375 91.0985 49.6627 87.5262C49.085 86.9703 48.5283 86.3193 48 85.5621C47.4717 86.3193 46.915 86.9703 46.3373 87.5262C42.625 91.0985 38.0457 90.7426 34.5514 89.3757C33.1517 88.8282 31.9261 88.1184 31 87.4339C31.7429 87.6196 33.086 87.3811 34.5449 86.6491C34.8524 86.4949 35.165 86.3187 35.4782 86.12C36.3126 85.5905 37.1514 84.901 37.9088 84.039C36.9022 83.8658 35.9094 83.6661 34.9316 83.441C17.5919 79.449 4.99997 67.4608 4.99997 53.2922C4.99997 43.5843 10.9113 34.9 20.2109 29.11C20.1104 27.9842 20.1888 26.8901 20.4562 25.8474C20.7035 24.8829 21.1127 23.9624 21.6916 23.1018C21.7191 23.0608 21.7471 23.0199 21.7755 22.9792L21.669 23.0037C20.6278 23.2438 19.5688 23.488 18.537 23.7172C14.515 24.6109 10.9065 25.278 10.3786 24.5917C9.13339 22.9728 14.2317 18.3047 21.9924 17.3239C24.1723 17.0485 25.8421 17.2814 27.1024 17.7762C27.7495 16.6681 28.8948 15.5301 30.7849 14.4969C30.9512 14.4061 31.1177 14.3179 31.2844 14.2323C32.7491 13.4806 34.2254 12.9328 35.6371 12.5567C33.7119 12.2693 32.0724 11.9404 31.1217 11.5331C30.6229 11.3195 30.3137 11.0842 30.2524 10.822ZM28.6412 12.8596C28.2982 12.5118 27.968 12.0324 27.8181 11.3915L30.1979 10.8347L27.8181 11.3915C27.3772 9.50709 28.4844 8.01204 29.3603 7.19519C30.3258 6.29476 31.6419 5.57547 33.0881 5.05766C36.0098 4.01163 39.9767 3.60266 44.1913 4.61527C45.7456 4.98871 47.0636 5.55366 48.1613 6.26807C49.2846 5.58376 50.624 5.05366 52.1947 4.72147C56.4443 3.82273 60.3937 4.33553 63.2773 5.46156C64.704 6.01869 65.9962 6.77564 66.9308 7.70828C67.7843 8.55988 68.83 10.0962 68.3121 11.9648C68.3008 12.0056 68.2887 12.0458 68.276 12.0852C69.2306 12.5703 70.0492 13.1194 70.7382 13.7235C71.8854 13.394 73.1906 13.2343 74.6591 13.2717C78.6026 13.3721 82.0447 14.4954 84.4427 15.898C85.6237 16.5888 86.6819 17.4236 87.3992 18.3602C87.9993 19.1439 88.9769 20.8803 87.9355 22.6755L85.9316 21.5129L87.9355 22.6755C87.4062 23.5879 86.5446 23.9246 86.1725 24.0472C85.7175 24.1972 85.2484 24.262 84.8582 24.2951C84.0626 24.3626 83.1051 24.3344 82.1346 24.2691C81.981 24.2588 81.8244 24.2473 81.665 24.2348C82.8464 26.6213 83.2763 29.3024 82.7818 31.988C88.8696 37.7333 92.6452 45.1213 92.6452 53.2922C92.6452 68.0689 80.4841 80.0872 64.1906 84.9718C64.2708 84.984 64.3298 84.9897 64.3672 84.9934C64.4205 84.9986 64.4298 84.9995 64.3937 85.0086C65.5513 84.7192 66.7521 85.2882 67.2611 86.3674C67.7701 87.4466 67.4455 88.7351 66.486 89.4444C64.4069 90.9811 61.0116 92.6567 57.2484 92.8318C54.1127 92.9778 50.8131 92.0658 48 89.3955C45.1869 92.0658 41.8873 92.9778 38.7516 92.8318C34.9884 92.6567 31.5931 90.9811 29.514 89.4444C28.5545 88.7351 28.2299 87.4466 28.7389 86.3674C29.1363 85.5248 29.9555 84.9932 30.8465 84.9383C14.6 80.0299 2.49997 68.0356 2.49997 53.2922C2.49997 42.9419 8.53811 33.8854 17.6755 27.7714C17.6901 27.3235 17.7289 26.8786 17.7926 26.4383C16.7287 26.6651 15.7053 26.869 14.7796 27.0266C13.6955 27.2111 12.6406 27.351 11.7654 27.372C11.3354 27.3823 10.8354 27.3679 10.3498 27.2698C9.96185 27.1914 9.0466 26.9605 8.397 26.1159C7.07738 24.4003 7.89453 22.4881 8.45481 21.5889C9.11398 20.5311 10.1568 19.54 11.3553 18.6841C13.79 16.9452 17.3984 15.3846 21.679 14.8437C23.3402 14.6337 24.8231 14.6707 26.135 14.9154C26.8116 14.1813 27.6441 13.493 28.6412 12.8596Z" fill="#963C05"/>
<path d="M52.712 7.16737C46.6822 8.44261 45.8584 12.9127 46.2002 14.9883C46.2353 13.2943 65.279 13.5481 65.903 11.2971C66.5269 9.04602 60.2492 5.57332 52.712 7.16737Z" fill="#004F29"/>
<path d="M43.6073 7.04612C49.5808 8.48135 50.2189 12.9709 49.7913 15.0363C49.8264 13.3422 30.7826 13.0884 30.2524 10.822C29.7221 8.55555 36.1403 5.25208 43.6073 7.04612Z" fill="#046034"/>
<path d="M63.9268 23.618C63.6127 29.9634 57.045 34.7948 49.2574 34.4093C41.4698 34.0237 35.4114 28.5672 35.7256 22.2218C35.9651 17.3843 38.6176 13.6254 43.8957 12.1885C44.6824 11.9743 46.6926 12.2062 47.5344 12.1095C48.453 12.0039 50.235 11.4225 51.2008 11.4704C58.9883 11.8559 64.241 17.2725 63.9268 23.618Z" fill="url(#paint0_radial_11_297)"/>
<path d="M46.854 11.1371C48.6434 12.1703 49.4695 11.7683 49.6589 11.4382C52.7153 9.13764 57.8575 9.68963 57.6059 12.2913C57.3543 14.893 53.1114 19.6949 48.9041 19.2432C44.6969 18.7915 39.7057 16.6785 39.9069 14.5972C40.1082 12.5158 44.6173 9.84547 46.854 11.1371Z" fill="#03361E"/>
<path d="M30.7849 14.4969C25.4019 17.4392 26.0604 21.2324 27.0625 22.7613C26.5466 21.4127 44.9372 15.4998 44.8065 13.5225C44.6759 11.5452 37.5137 10.819 30.7849 14.4969Z" fill="#277650"/>
<path d="M21.9924 17.3239C28.201 16.5393 30.2713 19.8787 30.5304 21.6464C30.0145 20.2978 11.6239 26.2106 10.3786 24.5917C9.1334 22.9728 14.2317 18.3046 21.9924 17.3239Z" fill="#308C60"/>
<path d="M45.6973 24.5336C47.1611 30.192 42.7183 36.2354 35.7739 38.032C28.8295 39.8285 22.0132 36.6979 20.5494 31.0395C19.4334 26.7258 20.7321 22.6977 24.9732 19.9887C25.6053 19.5849 27.4342 19.2375 28.1468 18.9217C28.9246 18.5771 30.33 17.578 31.1913 17.3552C38.1357 15.5587 44.2334 18.8752 45.6973 24.5336Z" fill="url(#paint1_radial_11_297)"/>
<path d="M26.4414 17.8004C28.497 17.9515 29.1607 17.5867 29.2356 17.3854C31.4274 15.6336 36.5501 14.8727 37.1525 16.2095C37.7549 17.5463 35.2341 20.7732 31.0428 21.3957C26.8515 22.0182 21.3673 21.977 20.8854 20.9076C20.4035 19.8381 23.8719 17.6115 26.4414 17.8004Z" fill="#066135"/>
<path d="M74.5955 15.7709C68.9551 15.6273 67.4633 18.9205 67.4224 20.585C67.7384 19.2852 84.8337 23.0403 85.7731 21.4209C86.7125 19.8016 81.6461 15.9503 74.5955 15.7709Z" fill="#277650"/>
<path d="M66.4224 13.9756C71.5572 16.1988 71.3777 19.7803 70.6461 21.2931C70.9621 19.9933 53.8668 16.2383 53.7701 14.3914C53.6734 12.5445 60.0039 11.1965 66.4224 13.9756Z" fill="#308C60"/>
<path d="M80.0067 32.7896C78.2166 38.3535 71.2301 41.083 64.4017 38.8861C57.5734 36.6893 53.489 30.398 55.2791 24.8342C56.6437 20.5926 59.8958 17.8839 64.9281 17.8638C65.6782 17.8607 67.4093 18.5455 68.1803 18.66C69.0218 18.7849 70.7437 18.6925 71.5905 18.965C78.4188 21.1618 81.7967 27.2258 80.0067 32.7896Z" fill="url(#paint2_radial_11_297)"/>
<path d="M68.6573 16.5284C70.0942 17.2368 70.9051 17.1394 71.1309 17.0021C74.2677 16.2488 78.8026 17.1173 78.1394 18.3443C77.4762 19.5714 72.8517 21.3938 69.1414 20.6832C65.431 19.9726 61.294 18.3679 61.8246 17.3863C62.3551 16.4047 66.8613 15.6428 68.6573 16.5284Z" fill="#066135"/>
<ellipse cx="47.5726" cy="53.2922" rx="42.5726" ry="31.5635" fill="#E09D40"/>
<ellipse cx="47.0404" cy="54.8195" rx="40.9761" ry="29.0181" fill="url(#paint3_linear_11_297)"/>
<path d="M15.5185 34.0408C16.1936 31.3745 25.3639 34.3185 29.8647 36.1238L19.316 49.0386C17.7689 45.1502 14.8434 36.7071 15.5185 34.0408Z" fill="#DC7131"/>
<mask id="mask0_11_297" style="mask-type:alpha" maskUnits="userSpaceOnUse" x="15" y="32" width="15" height="18">
<path d="M15.5185 34.0408C16.1936 31.3745 25.3639 34.3185 29.8647 36.1238L19.316 49.0386C17.7689 45.1502 14.8434 36.7071 15.5185 34.0408Z" fill="#DC7131"/>
</mask>
<g mask="url(#mask0_11_297)">
<path d="M17.6282 36.1238C17.8433 35.2143 28.3001 38.117 33.0466 39.6926L20.9966 47.2885C19.5413 44.5954 16.7844 39.6927 17.6282 36.1238Z" fill="#FFCC52"/>
<g style="mix-blend-mode:multiply" opacity="0.3">
<path d="M16.3624 47.5005C17.8927 42.1167 26.5641 36.2842 30.7086 34.041L20.6663 51.5383L16.3624 47.5005Z" fill="#9A5A29"/>
</g>
</g>
<path d="M81.1316 34.86C80.7142 32.1428 71.3036 34.2199 66.6505 35.5981L75.9186 49.4374C77.8302 45.7104 81.5491 37.5773 81.1316 34.86Z" fill="#DC7131"/>
<mask id="mask1_11_297" style="mask-type:alpha" maskUnits="userSpaceOnUse" x="66" y="33" width="16" height="17">
<path d="M81.1316 34.86C80.7142 32.1428 71.3036 34.2199 66.6505 35.5981L75.9186 49.4374C77.8302 45.7104 81.5491 37.5773 81.1316 34.86Z" fill="#DC7131"/>
</mask>
<g mask="url(#mask1_11_297)">
<path d="M78.8325 36.7374C78.7052 35.8119 68.0178 37.7281 63.1419 38.8548L74.4128 47.5387C76.1188 44.9931 79.3317 40.3689 78.8325 36.7374Z" fill="#FFCC52"/>
<g style="mix-blend-mode:multiply" opacity="0.3">
<path d="M79.0061 48.1809C77.9969 42.6786 69.9211 36.0648 66.0094 33.4457L74.3358 51.8001L79.0061 48.1809Z" fill="#9A5A29"/>
</g>
</g>
<path d="M38 83.934C40.4 81.134 44.6667 82.1005 46.5 82.4339L49 83.9339C43.8 93.5339 34.8334 90.2672 31 87.4339C32.3334 87.7672 35.6 86.734 38 83.934Z" fill="#E9E2DC"/>
<path d="M58 83.934C55.6 81.134 51.3334 82.1005 49.5 82.4339L47 83.9339C52.2 93.5339 61.1667 90.2672 65 87.4339C63.6667 87.7672 60.4 86.734 58 83.934Z" fill="#E9E2DC"/>
<path d="M79.4379 44.8158C74.9937 26.3866 55.7355 23.5513 34.3122 28.2767L76.703 75.0588C79.7417 73.1686 84.2496 64.7692 79.4379 44.8158Z" fill="#E2DED9"/>
<path d="M16.5354 44.8159C22.8467 23.5513 47.9866 24.4964 62.5727 27.8042L18.3587 75.0589C15.3199 73.1687 10.701 64.4738 16.5354 44.8159Z" fill="#EEEBE8"/>
<path d="M23.4997 41.1232C30.2647 32.3509 43.0142 30.6294 48.5433 30.8652C64.155 30.8652 69.8055 37.051 72.2417 40.7747C81.8689 55.4895 80.417 68.0061 78.4656 72.2507C76.2973 76.8491 67.3062 84.631 48.5433 84.631C25.4511 84.631 17.9706 77.2029 16.0191 72.2507C14.0677 67.2986 15.0434 52.0886 23.4997 41.1232Z" fill="url(#paint4_linear_11_297)"/>
<mask id="mask2_11_297" style="mask-type:alpha" maskUnits="userSpaceOnUse" x="15" y="30" width="65" height="55">
<path d="M23.4997 41.1232C30.2647 32.3509 43.0142 30.6294 48.5433 30.8652C64.155 30.8652 69.8055 37.051 72.2417 40.7747C81.8689 55.4895 80.417 68.0061 78.4656 72.2507C76.2973 76.8491 67.3062 84.631 48.5433 84.631C25.4511 84.631 17.9706 77.2029 16.0191 72.2507C14.0677 67.2986 15.0434 52.0886 23.4997 41.1232Z" fill="url(#paint5_linear_11_297)"/>
</mask>
<g mask="url(#mask2_11_297)">
<rect x="41.6052" y="28.1099" width="10.9395" height="21.8791" rx="3" fill="url(#paint6_linear_11_297)"/>
<path d="M54.368 31.1099C54.368 29.4531 55.7111 28.1099 57.368 28.1099H58.5282C60.0131 28.1099 61.2746 29.1962 61.495 30.6646L63.8787 46.5437C64.151 48.3576 62.7462 49.989 60.9119 49.989H57.368C55.7111 49.989 54.368 48.6459 54.368 46.989V31.1099Z" fill="url(#paint7_linear_11_297)"/>
<path d="M32.6549 30.6646C32.8753 29.1962 34.1368 28.11 35.6216 28.11H36.7819C38.4387 28.11 39.7819 29.4531 39.7819 31.11V46.9891C39.7819 48.6459 38.4387 49.9891 36.7819 49.9891H33.2379C31.4037 49.9891 29.9989 48.3576 30.2712 46.5437L32.6549 30.6646Z" fill="url(#paint8_linear_11_297)"/>
<ellipse cx="17.2063" cy="72.133" rx="12.6584" ry="12.4981" fill="#EB553E"/>
<ellipse cx="77.9664" cy="72.1331" rx="12.6584" ry="12.4981" fill="#EB553E"/>
</g>
<path opacity="0.6" d="M37.9587 61.3843C41.5303 58.7426 50.5417 55.0443 58.0145 61.3843C55.084 57.2567 46.9701 51.478 37.9587 61.3843Z" fill="url(#paint9_linear_11_297)"/>
<rect width="6.18335" height="11.7375" rx="3.09168" transform="matrix(0.996244 -0.0865868 0.0610114 0.998137 57.5197 54.1709)" fill="#341F0C"/>
<rect width="6.18335" height="11.7375" rx="3.09168" transform="matrix(-0.996244 -0.0865868 -0.0610114 0.998137 38.4536 54.1709)" fill="#341F0C"/>
<path d="M37.3312 61.6374C40.3308 57.9203 45.984 57.1909 48.4356 57.2908C55.3578 57.2908 57.8633 59.9119 58.9435 61.4897C63.2122 67.7249 62.5684 73.0285 61.7032 74.8271C60.7417 76.7755 56.7551 80.073 48.4356 80.073C38.1965 80.073 34.8796 76.9254 34.0143 74.8271C33.149 72.7287 33.5817 66.2838 37.3312 61.6374Z" fill="#FFCC52"/>
<path d="M41.4378 75.0083C45.8152 75.0083 46.7245 69.1229 46.6181 64.9824C46.5919 63.9606 45.7015 63.1721 44.7566 63.5619C39.8996 65.5659 35.7789 75.0083 41.4378 75.0083Z" fill="#604401"/>
<path d="M54.6452 75.0083C50.2677 75.0083 49.3585 69.1229 49.4649 64.9824C49.4911 63.9606 50.3815 63.1721 51.3264 63.5619C56.1834 65.5659 60.3041 75.0083 54.6452 75.0083Z" fill="#604401"/>
<path d="M54.7724 87C49.6571 87 51.6293 80.0128 53.834 75.21C54.2054 74.4009 55.3394 74.4009 55.7108 75.21C57.9155 80.0128 59.8877 87 54.7724 87Z" fill="url(#paint10_radial_11_297)"/>
<path d="M55.8226 83.0225C55.8226 84.1589 55.2946 83.9695 54.2386 84.4431C53.7106 84.6009 52.8658 85.106 53.7106 85.8636C54.7666 86.8106 56.3505 86.3371 56.8785 85.3901C57.4065 84.4431 57.4065 80.1814 56.3505 80.1814C55.2946 80.1814 55.8226 81.6019 55.8226 83.0225Z" fill="white" fill-opacity="0.6"/>
<defs>
<radialGradient id="paint0_radial_11_297" cx="0" cy="0" r="1" gradientUnits="userSpaceOnUse" gradientTransform="translate(54.1927 16.2975) rotate(105.243) scale(18.7722 37.9927)">
<stop stop-color="#E9E9BA"/>
<stop offset="1" stop-color="#957E5A"/>
</radialGradient>
<radialGradient id="paint1_radial_11_297" cx="0" cy="0" r="1" gradientUnits="userSpaceOnUse" gradientTransform="translate(35.1421 20.7739) rotate(87.9035) scale(17.2696 34.9518)">
<stop stop-color="#FFFFE0"/>
<stop offset="1" stop-color="#D0BA98"/>
</radialGradient>
<radialGradient id="paint2_radial_11_297" cx="0" cy="0" r="1" gradientUnits="userSpaceOnUse" gradientTransform="translate(73.0998 23.9668) rotate(120.243) scale(17.2696 34.9518)">
<stop stop-color="#FFFFE0"/>
<stop offset="1" stop-color="#D0BA98"/>
</radialGradient>
<linearGradient id="paint3_linear_11_297" x1="47.0404" y1="25.8015" x2="47.0404" y2="83.8376" gradientUnits="userSpaceOnUse">
<stop offset="0.442232" stop-color="#C68730"/>
<stop offset="1" stop-color="#A25E00"/>
</linearGradient>
<linearGradient id="paint4_linear_11_297" x1="47.9174" y1="30.8874" x2="47.4899" y2="84.6306" gradientUnits="userSpaceOnUse">
<stop stop-color="#F69F44"/>
<stop offset="1" stop-color="#DA6E30"/>
</linearGradient>
<linearGradient id="paint5_linear_11_297" x1="47.9174" y1="30.8874" x2="47.4899" y2="84.6306" gradientUnits="userSpaceOnUse">
<stop stop-color="#F69F44"/>
<stop offset="1" stop-color="#DA6E30"/>
</linearGradient>
<linearGradient id="paint6_linear_11_297" x1="47.075" y1="28.1099" x2="47.075" y2="49.989" gradientUnits="userSpaceOnUse">
<stop stop-color="#4E2219"/>
<stop offset="1" stop-color="#9A4F01"/>
</linearGradient>
<linearGradient id="paint7_linear_11_297" x1="59.3819" y1="28.1099" x2="59.3819" y2="49.989" gradientUnits="userSpaceOnUse">
<stop stop-color="#4E2219"/>
<stop offset="1" stop-color="#9A4F01"/>
</linearGradient>
<linearGradient id="paint8_linear_11_297" x1="34.7679" y1="28.11" x2="34.7679" y2="49.9891" gradientUnits="userSpaceOnUse">
<stop stop-color="#4E2219"/>
<stop offset="1" stop-color="#9A4F01"/>
</linearGradient>
<linearGradient id="paint9_linear_11_297" x1="47.9866" y1="55.9146" x2="47.9866" y2="61.3843" gradientUnits="userSpaceOnUse">
<stop stop-color="#DCD8D4"/>
<stop offset="0.0001" stop-color="#DE6801"/>
<stop offset="0.791211" stop-color="#DE6801" stop-opacity="0"/>
</linearGradient>
<radialGradient id="paint10_radial_11_297" cx="0" cy="0" r="1" gradientUnits="userSpaceOnUse" gradientTransform="translate(55.4179 82.8677) rotate(98.8786) scale(4.1824 7.37439)">
<stop stop-color="#D0EBFF"/>
<stop offset="1" stop-color="#93CCF5"/>
</radialGradient>
</defs>
</svg>
