<svg width="96" height="96" viewBox="0 0 96 96" fill="none" xmlns="http://www.w3.org/2000/svg">
<path fill-rule="evenodd" clip-rule="evenodd" d="M49.696 4.64239C50.3036 4.42807 50.9704 4.45657 51.5575 4.72195L82.919 18.899C83.5556 19.1867 84.0428 19.7278 84.2625 20.391L92.3732 44.8785C92.5579 45.4361 92.5404 46.0409 92.3237 46.5868L88.6823 55.7623L87.3573 74.964C87.3227 75.4646 87.1383 75.9432 86.8281 76.3376L77.9063 87.6792C77.6113 88.0542 77.2152 88.3369 76.7647 88.4941L65.68 92.3605C65.4154 92.4529 65.137 92.5 64.8567 92.5H27.8176C27.3339 92.5 26.8606 92.3597 26.455 92.0961L20.6831 88.344L6.00591 81.9833C4.99629 81.5458 4.39145 80.4995 4.51609 79.4063L5.84489 67.7508L4.50294 40.115C4.47597 39.5595 4.635 39.0109 4.95488 38.5559L21.4467 15.0994C21.7458 14.6741 22.1699 14.3526 22.6602 14.1797L49.696 4.64239ZM8.35179 67.8323L7 79.6894L21.8697 86.1335L27.8176 90H64.8567L75.9414 86.1335L84.8632 74.7919L86.215 55.2019L90 45.6646L81.8892 21.177L50.5277 7L23.4919 16.5373L7 39.9938L8.35179 67.8323Z" fill="#241E88"/>
<path d="M23.4919 16.5373L50.5277 7L81.8892 21.177L90 45.6646L86.215 55.2019L84.8632 74.7919L75.9414 86.1335L64.8567 90H27.8176L21.8697 86.1335L7 79.6894L8.35179 67.8323L7 39.9938L23.4919 16.5373Z" fill="#6862CC"/>
<mask id="mask0_18_103" style="mask-type:alpha" maskUnits="userSpaceOnUse" x="7" y="7" width="83" height="83">
<path d="M23.4919 16.5373L50.5277 7L81.8892 21.177L90 45.6646L86.215 55.2019L84.8632 74.7919L75.9414 86.1335L64.8567 90H27.8176L21.8697 86.1335L7 79.6894L8.35179 67.8323L7 39.9938L23.4919 16.5373Z" fill="#6862CC"/>
</mask>
<g mask="url(#mask0_18_103)">
<path d="M12.1875 42.5344L7.25938 39.9406L0.515627 51.6125L-1.81875 81.7L10.8906 97.7813L57.5781 113.863L91.8156 89.4813L100.634 42.5344L81.7 20.2281V52.9094L76.5125 66.9156L67.9531 71.0657L58.875 68.7313L32.4188 77.2906L15.0406 68.7313L12.1875 42.5344Z" fill="#3D37A6"/>
<path d="M50.3156 14.0031L84.2938 29.825V14.0031L51.6125 -5.96875L15.3 7L4.66563 38.9031L12.4469 42.7938L27.2313 20.4875L50.3156 14.0031Z" fill="#A09AFF"/>
</g>
<path d="M50.3061 77.644L52.4092 74.2115C52.6814 73.7674 53.3479 73.8417 53.5156 74.3348L54.9092 78.433C54.9654 78.5982 55.0891 78.7318 55.2495 78.8004L58.4714 80.1781C58.9474 80.3817 58.9741 81.0464 58.5159 81.2875L54.3535 83.4778C54.2646 83.5245 54.1886 83.5923 54.132 83.6752L51.6986 87.2402C51.4053 87.6698 50.7442 87.5638 50.6 87.0639L49.4068 82.9257C49.3773 82.8234 49.3218 82.7306 49.2457 82.6562L45.7636 79.2541C45.3844 78.8837 45.6203 78.2393 46.149 78.2012L49.8261 77.936C50.0238 77.9218 50.2025 77.813 50.3061 77.644Z" fill="#B19E77"/>
<path fill-rule="evenodd" clip-rule="evenodd" d="M68.5546 30.1902C71.7644 34.957 72.8636 40.6135 72.1577 46.4019C71.5919 51.041 69.7085 56.2711 64.9604 59.9008C60.4189 63.3725 55.4308 63.6826 52.426 63.5334C51.1047 63.4678 49.8133 63.2908 48.6627 63.0842C47.8475 65.4619 46.3122 67.6183 44.1154 69.1964C38.4856 73.2408 30.6432 71.9555 26.5988 66.3258C21.6079 59.3783 19.1626 51.2986 20.2061 43.2822C21.2605 35.1809 25.7809 28.1676 32.6844 23.7558C39.6386 19.3115 49.192 18.6079 56.8859 21.339C61.0409 22.8139 65.4403 25.5653 68.5546 30.1902Z" fill="#FAEFD9"/>
<mask id="mask1_18_103" style="mask-type:alpha" maskUnits="userSpaceOnUse" x="19" y="19" width="54" height="53">
<path fill-rule="evenodd" clip-rule="evenodd" d="M68.5546 30.1902C71.7644 34.957 72.8636 40.6135 72.1577 46.4019C71.5919 51.041 69.7085 56.2711 64.9604 59.9008C60.4189 63.3725 55.4308 63.6826 52.426 63.5334C51.1047 63.4678 49.8133 63.2908 48.6627 63.0842C47.8475 65.4619 46.3122 67.6183 44.1154 69.1964C38.4856 73.2408 30.6432 71.9555 26.5988 66.3258C21.6079 59.3783 19.1626 51.2986 20.2061 43.2822C21.2605 35.1809 25.7809 28.1676 32.6844 23.7558C39.6386 19.3115 49.192 18.6079 56.8859 21.339C61.0409 22.8139 65.4403 25.5653 68.5546 30.1902Z" fill="#FAEFD9"/>
</mask>
<g mask="url(#mask1_18_103)">
<path fill-rule="evenodd" clip-rule="evenodd" d="M49.6146 34.6955C47.494 34.6705 45.5812 35.3688 44.4815 36.2361L44.4815 36.2361C40.2044 39.6095 39.3682 43.4981 39.979 47.0565C40.6062 50.711 42.7829 54.0729 44.6226 56.0856C45.0645 56.5691 45.0278 57.3165 44.5405 57.755C44.0533 58.1935 43.3 58.157 42.8581 57.6735C40.8268 55.4513 38.3582 51.6925 37.6306 47.4534C36.8865 43.118 37.9858 38.3399 42.9992 34.3858C44.5794 33.1394 47.0438 32.3013 49.6429 32.332C52.2765 32.3631 55.1324 33.288 57.4104 35.6813C58.8832 37.2286 59.4888 38.9861 59.3704 40.6612C59.2535 42.3139 58.4381 43.7893 57.2495 44.8099C56.0586 45.8325 54.4593 46.4271 52.7499 46.2703C51.0245 46.112 49.3125 45.2009 47.8767 43.4411C47.4628 42.9338 47.5417 42.1896 48.053 41.7789C48.5643 41.3682 49.3143 41.4465 49.7282 41.9539C50.8235 43.2963 51.9775 43.8257 52.9692 43.9166C53.977 44.0091 54.946 43.662 55.6906 43.0226C56.4375 42.3813 56.9248 41.4744 56.9941 40.4957C57.0617 39.5394 56.7369 38.4161 55.6785 37.3043C53.9069 35.4429 51.7006 34.7201 49.6146 34.6955Z" fill="#B29E77"/>
<path d="M49.3438 63.3958C44.0235 60.4227 40.244 55.5512 38.6751 50.8445C38.3442 50.1544 39.7536 47.4328 40.244 48.0204C43.3819 53.3547 48.2757 58.0615 54.9919 58.0615C62.98 58.0615 68.784 51.8854 71.6367 47.0111C71.9736 46.4355 72.8727 46.6456 72.8074 47.3093C71.6289 59.2878 59.2652 68.9402 49.3438 63.3958Z" fill="#B29E77"/>
<path d="M34.5959 67.1611C28.8223 66.157 22.7768 58.166 20.4757 54.296C20.4757 66.5336 25.81 73.7506 37.7338 74.3782C47.2728 74.8802 49.2392 66.2198 49.03 61.8268C46.6243 64.0233 40.3696 68.1652 34.5959 67.1611Z" fill="#B29E77"/>
<path d="M25.1825 46.1377C20.1619 48.397 19.116 43.1045 19.2206 40.1759C26.1238 17.5834 49.6576 14.1318 57.8159 18.211C65.9743 22.2902 62.2089 27.6245 59.0711 29.5072C55.9332 31.3899 51.5403 24.4867 41.4992 27.6245C29.8892 31.2526 31.4581 43.3137 25.1825 46.1377Z" fill="#FFFBF3"/>
<path d="M64.0916 32.3313C64.3426 29.821 67.1248 28.7751 68.4846 28.5659C71.6224 31.2853 76.8312 37.4146 72.5638 40.1759C67.2294 43.6274 63.7778 35.4691 64.0916 32.3313Z" fill="#FFFBF3"/>
<path fill-rule="evenodd" clip-rule="evenodd" d="M45.5114 48.393C46.5621 47.0149 48.5311 46.7496 49.9092 47.8004C49.9181 47.8072 49.9271 47.814 49.9361 47.8209C51.0683 48.6845 53.329 50.4088 57.0652 48.9578C58.6806 48.3305 60.4988 49.1315 61.1262 50.7469C61.7535 52.3623 60.9526 54.1805 59.3371 54.8078C52.3216 57.5324 47.5831 53.9188 46.1224 52.8049C46.1162 52.8001 46.11 52.7955 46.104 52.7908C44.7259 51.74 44.4606 49.7711 45.5114 48.393Z" fill="#FFFBF3"/>
</g>
<path d="M64.3777 70.4063L59.2997 73.3685C58.922 73.5888 58.9695 74.1488 59.3789 74.3023L64.2889 76.1435C64.4688 76.211 64.5966 76.3723 64.6212 76.5628L65.4752 83.181C65.5318 83.6196 66.076 83.7908 66.3735 83.4636L70.6252 78.7867C70.7387 78.6618 70.9059 78.6 71.0734 78.6209L76.2602 79.2693C76.6272 79.3152 76.923 78.9731 76.8246 78.6166L75.0014 72.0076C74.9721 71.9012 74.9774 71.7881 75.0168 71.685L76.7178 67.2196C76.8586 66.8503 76.551 66.4655 76.1597 66.5214L71.7744 67.1479C71.6518 67.1654 71.527 67.1385 71.4225 67.072L66.5219 63.9535C66.213 63.7569 65.8032 63.9336 65.734 64.2932L64.6258 70.0561C64.5975 70.2032 64.5071 70.3308 64.3777 70.4063Z" fill="#FAEFD9"/>
<path d="M64.3777 70.4062L59.2997 73.3684C58.922 73.5887 58.9695 74.1487 59.3789 74.3023L64.2889 76.1435C64.4688 76.211 64.5966 76.3723 64.6212 76.5628L65.4752 83.181C65.5318 83.6196 66.076 83.7908 66.3735 83.4635L70.6252 78.7867C70.7387 78.6618 70.9059 78.6 71.0734 78.6209L76.2602 79.2693C76.6272 79.3151 76.923 78.9731 76.8246 78.6166L75.0014 72.0076C74.9721 71.9012 74.9774 71.7881 75.0168 71.685L76.7178 67.2196C76.7983 67.0084 76.7322 66.7923 76.5878 66.6562L76.5125 66.9156L67.9531 71.0656L64.5812 70.1883C64.5366 70.2784 64.4663 70.3546 64.3777 70.4062Z" fill="#B19E77"/>
<path fill-rule="evenodd" clip-rule="evenodd" d="M68.2679 71.1938C67.9995 70.5907 68.272 69.8214 68.8766 69.4755L71.4298 68.0145C72.0344 67.6685 72.7421 67.877 73.0105 68.48C73.2789 69.0831 73.0064 69.8524 72.4018 70.1984L69.8486 71.6594C69.244 72.0053 68.5363 71.7969 68.2679 71.1938Z" fill="#FFFBF3"/>
</svg>
