<svg width="96" height="96" viewBox="0 0 96 96" fill="none" xmlns="http://www.w3.org/2000/svg">
<path fill-rule="evenodd" clip-rule="evenodd" d="M10.6374 26.8811C14.2036 27.0922 17.9167 26.1642 21.3459 25.0357C21.3461 24.7128 21.3271 24.4043 21.2823 24.1135C21.1345 23.1541 20.8812 22.0969 20.6212 21.0116C19.4234 16.012 18.0831 10.4175 26.2554 11.049C33.1555 11.5821 37.2633 13.2248 40.2391 15.464C40.9262 15.981 41.5529 16.5298 42.1398 17.104C42.2858 16.8786 42.4759 16.6843 42.698 16.5336C43.0179 16.3165 43.404 16.1896 43.8198 16.1896H52.7101C53.1259 16.1896 53.512 16.3165 53.8319 16.5336C54.054 16.6843 54.2442 16.8786 54.3902 17.104C54.977 16.5298 55.6037 15.981 56.2908 15.464C59.2667 13.2248 63.3744 11.5821 70.2745 11.049C78.4468 10.4175 77.1065 16.012 75.9087 21.0116C75.6487 22.0969 75.3954 23.1541 75.2476 24.1135C75.2054 24.3873 75.1861 24.6768 75.1842 24.9792C78.6607 26.133 82.4382 27.0957 86.0638 26.8811C87.202 26.8137 88.3253 26.6303 89.4196 26.3004L84.4798 33.9204L92.3293 39.0989C91.2791 39.3548 90.1159 39.5966 88.8669 39.8097C86.1793 40.2681 83.0944 40.5935 79.8831 40.6397V40.7533C79.8831 41.3055 79.4354 41.7533 78.8831 41.7533H77.9611V83C77.9611 84.1046 77.0656 85 75.9611 85H21.3377C20.2331 85 19.3377 84.1046 19.3377 83V41.7533H18.4156C17.8633 41.7533 17.4156 41.3055 17.4156 40.7533V40.645C13.9901 40.6333 10.6882 40.2965 7.8343 39.8097C6.58526 39.5966 5.42205 39.3548 4.37186 39.0989L12.2214 33.9204L7.28152 26.3004C8.37583 26.6303 9.49911 26.8137 10.6374 26.8811ZM8.77456 33.1993L5.18375 27.6603C4.6132 26.7802 4.65269 25.6375 5.28264 24.7989C5.91259 23.9602 6.99904 23.604 8.00325 23.9068C11.1732 24.8626 14.8065 24.3556 18.58 23.2742C18.468 22.7565 18.3349 22.199 18.19 21.5941L18.176 21.5356C17.886 20.3254 17.5534 18.937 17.37 17.5954C17.1864 16.2519 17.1131 14.7083 17.5146 13.2535C17.9471 11.6866 18.921 10.2794 20.6208 9.41026C22.2037 8.60089 24.1784 8.38103 26.448 8.55639C34.2003 9.15538 38.8776 11.1228 42.3444 13.9374C42.8064 13.777 43.3028 13.6896 43.8198 13.6896H52.7101C53.2271 13.6896 53.7236 13.777 54.1855 13.9374C57.6523 11.1228 62.3297 9.15538 70.0819 8.55639C72.3516 8.38103 74.3262 8.60089 75.9091 9.41026C77.6089 10.2794 78.5828 11.6866 79.0153 13.2535C79.4168 14.7083 79.3435 16.2519 79.1599 17.5954C78.9766 18.937 78.6439 20.3253 78.3539 21.5355L78.3399 21.5941C78.1993 22.1809 78.0699 22.7231 77.96 23.2276C81.7879 24.3398 85.4802 24.877 88.6979 23.9068C89.7021 23.604 90.7886 23.9602 91.4185 24.7989C92.0485 25.6375 92.088 26.7802 91.5174 27.6603L87.9266 33.1993L93.706 37.0121C94.5361 37.5597 94.9627 38.5472 94.7924 39.527C94.6221 40.5067 93.8873 41.2924 92.9212 41.5278C89.8132 42.2851 85.7978 42.9187 81.4836 43.0959C81.1953 43.4157 80.8489 43.682 80.4611 43.8782V83C80.4611 85.4853 78.4464 87.5 75.9611 87.5H21.3377C18.8524 87.5 16.8377 85.4853 16.8377 83V43.8782C16.4588 43.6865 16.1195 43.428 15.8353 43.1181C11.2859 42.9787 7.03421 42.3208 3.78 41.5278C2.81383 41.2924 2.07906 40.5067 1.90878 39.527C1.7385 38.5472 2.16509 37.5597 2.99517 37.0121L8.77456 33.1993Z" fill="#483C3C"/>
<path d="M22.94 36.4095C26.2554 38.8688 38.1356 32.3109 43.6613 28.7245V18.734C40.3459 14.8915 36.2016 11.8175 26.2554 11.049C16.3092 10.2805 20.4535 18.734 21.2823 24.1135C21.8065 27.5158 18.7958 33.3355 22.94 36.4095Z" fill="#D10E0E"/>
<path d="M73.5899 36.4095C70.2745 38.8688 58.3943 32.3109 52.8686 28.7245V18.734C56.184 14.8915 60.3283 11.8175 70.2745 11.049C80.2207 10.2805 76.0764 18.734 75.2476 24.1135C74.7234 27.5158 77.7342 33.3355 73.5899 36.4095Z" fill="#D10E0E"/>
<path d="M32.6121 21.6772C36.6246 21.7553 41.3051 24.77 43.1438 26.2676C38.2062 42.8875 15.2385 41.7468 4.37184 39.0989L12.2214 33.9205L7.2815 26.3004C16.427 29.058 27.5964 21.5796 32.6121 21.6772Z" fill="#9E0101"/>
<path d="M64.089 21.6772C60.0765 21.7553 55.396 24.77 53.5573 26.2676C58.4949 42.8875 81.4626 41.7468 92.3293 39.0989L84.4797 33.9205L89.4196 26.3004C80.2741 29.058 69.1047 21.5796 64.089 21.6772Z" fill="#9E0101"/>
<rect width="12.8903" height="13.839" rx="2" transform="matrix(1 0 0 -1 41.8198 30.0286)" fill="#AB0000"/>
<path fill-rule="evenodd" clip-rule="evenodd" d="M18.4156 28.2987C17.8633 28.2987 17.4156 28.7464 17.4156 29.2987V40.7533C17.4156 41.3055 17.8633 41.7533 18.4156 41.7533H19.3377V83C19.3377 84.1046 20.2331 85 21.3377 85H75.961C77.0656 85 77.961 84.1046 77.961 83V41.7533H78.8831C79.4354 41.7533 79.8831 41.3055 79.8831 40.7533V29.2987C79.8831 28.7464 79.4354 28.2987 78.8831 28.2987H18.4156Z" fill="#F8F5EA"/>
<rect x="19.3376" y="41.7532" width="58.6234" height="4.80519" fill="#E0DBCB"/>
<rect x="34.7143" y="28.2987" width="27.8701" height="13.4545" fill="#D10E0E"/>
<rect x="34.7143" y="41.7532" width="27.8701" height="4.80519" fill="#AF0000"/>
<rect x="34.7143" y="46.5585" width="27.8701" height="38.4416" fill="#D10E0E"/>
</svg>
