<svg width="96" height="96" viewBox="0 0 96 96" fill="none" xmlns="http://www.w3.org/2000/svg">
<path fill-rule="evenodd" clip-rule="evenodd" d="M58.7366 15.5288C57.551 13.2845 55.6076 10.561 52.9225 8.27312C49.5891 5.43291 45.0005 3.17982 39.2815 3.53726C32.3875 3.96813 27.6022 7.17864 25.4707 11.9899C23.3952 16.6744 24.0869 22.3219 26.8779 27.2597C27.2102 27.8477 27.5851 28.3837 27.9954 28.8712C26.4236 29.5671 24.9394 30.4652 23.6481 31.6205C20.6704 34.2848 18.9497 38.19 17.9519 41.9701C14.2552 45.5847 10.1971 50.3674 7.32865 55.672C4.33998 61.1989 2.48061 67.603 4.09602 73.9178C5.29843 78.6181 7.41014 81.7616 10.3311 83.3692C12.5549 84.5932 14.9247 84.7487 17.0991 84.3821C19.2215 87.4102 22.6413 89.7039 27.6965 90.7447C40.8869 93.4604 45.297 93.4879 48.9411 93.488C52.1359 93.5529 57.0301 93.3542 61.616 92.8989C63.9192 92.6702 66.1843 92.373 68.1431 92.0023C70.0373 91.6438 71.8671 91.1779 73.1586 90.5321C75.491 89.3659 77.7482 87.608 79.1938 84.5073C81.21 84.6907 83.3487 84.38 85.3436 83.1713C88.0931 81.5055 90.0824 78.4277 91.2361 73.9178C92.8602 67.5689 90.9722 61.1298 87.9541 55.581C85.0566 50.2539 80.9651 45.4573 77.2549 41.8479C76.253 38.1086 74.538 34.2572 71.5912 31.6206C70.5013 30.6454 69.2764 29.856 67.9845 29.2178C68.6322 26.6999 68.6297 23.8811 67.5478 21.3848C66.1493 18.158 63.1666 15.9541 58.7366 15.5288ZM67.1444 31.5942C66.4142 31.2165 65.6438 30.8899 64.8457 30.609C65.1562 29.9406 65.4076 29.2286 65.5893 28.4962C66.787 23.6694 64.9615 17.9538 57.1272 17.9538C55.3326 13.7236 49.2822 5.41709 39.4374 6.03239C27.1315 6.80151 24.055 17.1847 29.0543 26.0296C29.4671 26.7599 29.9681 27.39 30.5409 27.9305C31.3803 28.7226 32.374 29.3223 33.4702 29.7632C32.2919 30.0081 31.1367 30.3279 30.0386 30.7377C28.2681 31.3984 26.646 32.2928 25.3151 33.4837C22.7021 35.8216 21.1189 39.4761 20.2012 43.2724C12.7733 50.3832 3.72751 62.3898 6.51802 73.2982C8.72325 81.9186 13.7698 82.9512 18.2952 81.5249C19.871 84.6373 22.8709 87.1987 28.2006 88.296C41.2757 90.988 45.5059 90.988 48.9669 90.988C55.1199 91.1162 68.1949 90.2188 72.0406 88.296C74.3921 87.1203 76.525 85.331 77.5858 81.6849C81.964 82.8558 86.6976 81.5716 88.8141 73.2982C91.6198 62.3305 82.4601 50.2526 75.0099 43.1569C74.0882 39.4021 72.5106 35.7979 69.9242 33.4837C69.0983 32.7447 68.1603 32.1199 67.1444 31.5942Z" fill="#C18F00"/>
<path d="M39.4374 6.03238C49.2822 5.41708 55.3326 13.7236 57.1272 17.9538C69.8177 17.9538 66.7413 32.9517 60.5883 34.8745C55.6659 36.4127 52.1279 31.4134 50.9743 28.7215C45.334 30.7725 33.0537 33.1055 29.0543 26.0296C24.055 17.1847 27.1315 6.8015 39.4374 6.03238Z" fill="url(#paint0_linear_1_1080)"/>
<mask id="mask0_1_1080" style="mask-type:alpha" maskUnits="userSpaceOnUse" x="26" y="6" width="40" height="30">
<path d="M39.4374 6.03238C49.2822 5.41708 55.3326 13.7236 57.1272 17.9538C69.8177 17.9538 66.7413 32.9517 60.5883 34.8745C55.6659 36.4127 52.1279 31.4134 50.9743 28.7215C45.334 30.7725 33.0537 33.1055 29.0543 26.0296C24.055 17.1847 27.1315 6.8015 39.4374 6.03238Z" fill="#F8BE1A"/>
</mask>
<g mask="url(#mask0_1_1080)">
<path d="M31.9489 25.0699C30.9123 26.4668 28.0619 25.6519 26.7663 25.0699C29.0697 28.1256 36.5268 34.6735 47.9284 36.4196C62.1805 38.6022 69.0906 30.7447 68.2268 27.689C67.3631 24.6334 64.3399 27.2525 61.3167 27.689C58.2936 28.1256 60.0211 24.1968 56.5661 20.7046C53.111 17.2124 51.8154 21.5777 47.9284 22.8873C44.0415 24.1968 43.1778 18.522 37.1314 17.6489C31.0851 16.7759 33.2445 23.3238 31.9489 25.0699Z" fill="#F6E75A"/>
</g>
<ellipse cx="47.9172" cy="30.2274" rx="11.1523" ry="4.99929" fill="#FE425B"/>
<path d="M24.5924 77.913C19.9777 81.8867 9.90216 86.5271 6.51802 73.2982C3.13783 60.0847 17.1249 45.2598 24.5664 39.477L24.5924 77.913Z" fill="#F8BE1A"/>
<mask id="mask1_1_1080" style="mask-type:alpha" maskUnits="userSpaceOnUse" x="6" y="39" width="19" height="44">
<path d="M24.5924 77.913C19.9777 81.8867 9.90216 86.5271 6.51802 73.2982C3.13783 60.0847 17.1249 45.2598 24.5664 39.477L24.5924 77.913Z" fill="#F8BE1A"/>
</mask>
<g mask="url(#mask1_1_1080)">
<g style="mix-blend-mode:multiply">
<path d="M17.6703 57.1467C16.4397 55.6084 18.1831 47.5327 19.2086 43.687L23.4387 42.1488L24.5924 79.4512C23.1824 82.1431 18.9778 86.6041 13.4401 82.9123C6.51805 78.2975 19.2086 59.0695 17.6703 57.1467Z" fill="#F9E8B9"/>
</g>
</g>
<path d="M70.7397 77.913C75.3544 81.8868 85.4299 86.5272 88.8141 73.2983C92.1943 60.0848 78.2072 45.2599 70.7657 39.4771L70.7397 77.913Z" fill="#F8BE1A"/>
<mask id="mask2_1_1080" style="mask-type:alpha" maskUnits="userSpaceOnUse" x="70" y="39" width="20" height="44">
<path d="M70.7397 77.913C75.3544 81.8868 85.4299 86.5272 88.8141 73.2983C92.1943 60.0848 78.2072 45.2599 70.7657 39.4771L70.7397 77.913Z" fill="#F8BE1A"/>
</mask>
<g mask="url(#mask2_1_1080)">
<g style="mix-blend-mode:multiply">
<path d="M77.6618 57.1467C78.8924 55.6085 77.149 47.5327 76.1235 43.6871L71.8934 42.1489L70.7397 79.4513C72.1498 82.1432 76.3543 86.6041 81.892 82.9123C88.8141 78.2976 76.1235 59.0695 77.6618 57.1467Z" fill="#F9E8B9"/>
</g>
</g>
<path d="M23.5859 41.7641L48.9669 31.7656L73.1943 41.7641C73.1943 46.6865 75.221 56.1211 75.9901 60.9922C80.9894 80.6048 77.0013 85.8157 72.0406 88.296C68.195 90.2188 55.1199 91.1161 48.9669 90.988C45.5059 90.988 41.2757 90.988 28.2006 88.296C10.8374 84.7212 18.2021 65.6069 18.9712 62.5304C19.5865 60.0693 22.304 47.6608 23.5859 41.7641Z" fill="url(#paint1_linear_1_1080)"/>
<ellipse cx="27.5354" cy="67.5298" rx="3.07649" ry="1.53824" fill="#E6AE11"/>
<ellipse cx="67.5297" cy="67.5298" rx="3.07649" ry="1.53824" fill="#E6AE11"/>
<path fill-rule="evenodd" clip-rule="evenodd" d="M47.9171 63.6841C54.4187 63.6841 59.8436 66.4537 61.1017 70.1364C65.6263 70.8223 69.068 74.284 69.068 78.4513C69.068 83.1117 64.7636 86.8896 59.454 86.8896C58.0391 86.8896 56.6957 86.6214 55.486 86.1397C53.726 87.4526 50.9899 88.2961 47.9171 88.2961C44.8444 88.2961 42.1083 87.4526 40.3483 86.1397C39.1386 86.6214 37.7952 86.8896 36.3803 86.8896C31.0706 86.8896 26.7663 83.1117 26.7663 78.4513C26.7663 74.284 30.208 70.8223 34.7326 70.1364C35.9907 66.4537 41.4156 63.6841 47.9171 63.6841Z" fill="#FDF6B3"/>
<path d="M47.7278 76.1925C42.3364 76.1925 38.3983 74.0926 36.354 72.4399C36.042 72.1876 35.5182 72.4873 35.6394 72.8699C37.0951 77.4606 40.9432 84.4505 47.7278 84.4505C54.5417 84.4505 58.598 77.3999 60.1721 72.8103C60.3012 72.4338 59.8017 72.1272 59.4869 72.3707C57.3371 74.0333 53.1947 76.1925 47.7278 76.1925Z" fill="#DF6653"/>
<mask id="mask3_1_1080" style="mask-type:alpha" maskUnits="userSpaceOnUse" x="35" y="72" width="26" height="13">
<path d="M47.7278 76.1925C42.6431 76.1925 38.851 74.3247 36.7211 72.7258C36.3039 72.4125 35.6173 72.8194 35.7851 73.3134C37.342 77.8968 41.1583 84.4504 47.7278 84.4504C54.3342 84.4504 58.3483 77.8228 60.0214 73.2362C60.1987 72.7501 59.5448 72.3375 59.1255 72.6409C56.8909 74.2578 52.9027 76.1925 47.7278 76.1925Z" fill="#DF6653"/>
</mask>
<g mask="url(#mask3_1_1080)">
<ellipse cx="47.9172" cy="84.4505" rx="7.30666" ry="4.61473" fill="#E39A93"/>
<path d="M47.5326 77.5283C43.9727 77.5283 44.4813 75.9901 44.4812 75.2209H50.584C50.584 75.9901 51.0926 77.5283 47.5326 77.5283Z" fill="white"/>
</g>
<ellipse cx="47.5326" cy="68.2989" rx="4.61473" ry="2.30737" fill="#3F260F"/>
<path fill-rule="evenodd" clip-rule="evenodd" d="M35.8138 55.7643C36.4465 55.8276 36.9997 55.9439 37.3498 56.0439C37.7194 56.0439 37.7193 51.9793 33.2852 53.4573C28.8511 54.9354 28.8511 59 29.2206 59C29.3547 59 29.6349 58.7079 30.0256 58.3006C30.2703 58.0455 30.5584 57.7452 30.8812 57.443C30.6701 58.0256 30.5517 58.6791 30.5517 59.3695C30.5517 61.8184 32.0406 63.8036 33.8773 63.8036C35.714 63.8036 37.2029 61.8184 37.2029 59.3695C37.2029 57.8839 36.6549 56.569 35.8138 55.7643Z" fill="#3F260F"/>
<ellipse cx="34.2303" cy="58.2605" rx="0.923729" ry="1.84746" transform="rotate(2.56514 34.2303 58.2605)" fill="white"/>
<path fill-rule="evenodd" clip-rule="evenodd" d="M60.0206 55.7643C59.3879 55.8276 58.8346 55.9438 58.4845 56.0439C58.115 56.0439 58.115 51.9793 62.5491 53.4573C66.9832 54.9354 66.9832 59 66.6137 59C66.4796 59 66.1995 58.7079 65.8087 58.3006C65.564 58.0455 65.276 57.7453 64.9533 57.4431C65.1644 58.0257 65.2827 58.6792 65.2827 59.3695C65.2827 61.8184 63.7938 63.8036 61.9571 63.8036C60.1204 63.8036 58.6315 61.8184 58.6315 59.3695C58.6315 57.8839 59.1795 56.5689 60.0206 55.7643Z" fill="#3F260F"/>
<ellipse cx="0.923729" cy="1.84746" rx="0.923729" ry="1.84746" transform="matrix(-0.998998 0.0447551 0.0447551 0.998998 62.4443 56.3736)" fill="white"/>
<g style="mix-blend-mode:multiply">
<mask id="mask4_1_1080" style="mask-type:alpha" maskUnits="userSpaceOnUse" x="16" y="31" width="63" height="60">
<path d="M23.5859 41.7641L48.9669 31.7656L73.1943 41.7641C73.1943 46.6865 75.221 56.1211 75.9901 60.9922C80.9894 80.6048 77.0013 85.8157 72.0406 88.296C68.195 90.2188 55.1199 91.1161 48.9669 90.988C45.5059 90.988 41.2757 90.988 28.2006 88.296C10.8374 84.7212 18.2021 65.6069 18.9712 62.5304C19.5865 60.0693 22.304 47.6608 23.5859 41.7641Z" fill="url(#paint2_linear_1_1080)"/>
</mask>
<g mask="url(#mask4_1_1080)">
<g style="mix-blend-mode:multiply" opacity="0.3">
<path fill-rule="evenodd" clip-rule="evenodd" d="M19.0751 57.5312C19.5878 57.6594 20.9979 57.7619 22.5361 57.1466C22.7925 57.403 23.7667 57.8388 25.6126 57.5312C25.837 57.4938 26.2288 57.4527 26.7532 57.3978C31.3097 56.9204 45.8817 55.3939 47.7249 46.0876C49.568 55.3939 64.1401 56.9204 68.6966 57.3978C69.221 57.4527 69.6127 57.4938 69.8371 57.5312C71.683 57.8388 72.6572 57.403 72.9136 57.1466C74.4519 57.7619 75.8619 57.6594 76.3747 57.5312C76.3747 48.4232 57.6494 44.8079 47.9171 44.0984C47.9171 44.0894 47.9171 44.0805 47.9171 44.0715C47.8535 44.0758 47.7894 44.0802 47.7249 44.0847C47.6604 44.0802 47.5963 44.0758 47.5326 44.0715C47.5326 44.0805 47.5326 44.0894 47.5326 44.0984C37.8003 44.8079 19.0751 48.4232 19.0751 57.5312Z" fill="#CB8807"/>
</g>
</g>
</g>
<path fill-rule="evenodd" clip-rule="evenodd" d="M47.6196 29.6425C42.6203 28.7381 31.1604 28.2471 25.3151 33.5186C19.4697 38.7901 18.7775 50.7027 19.1621 56C20.3564 55.7222 22.8411 54.7277 25.399 52.7026C24.2968 53.9288 23.3923 55.1923 23.3923 56C30.1862 55.354 44.5431 52.2014 47.6196 44.7593V29.6425ZM47.6196 29.6425C52.6189 28.7381 64.0789 28.2471 69.9242 33.5186C75.7695 38.7901 76.4617 50.7027 76.0772 56C74.8829 55.7222 72.3981 54.7277 69.8403 52.7026C70.9425 53.9288 71.847 55.1923 71.847 56C65.0531 55.354 50.6961 52.2014 47.6196 44.7593V29.6425Z" fill="url(#paint3_linear_1_1080)"/>
<defs>
<linearGradient id="paint0_linear_1_1080" x1="46.3455" y1="6" x2="46.3455" y2="35.1624" gradientUnits="userSpaceOnUse">
<stop stop-color="#FFD04B"/>
<stop offset="1" stop-color="#F8BE1A"/>
</linearGradient>
<linearGradient id="paint1_linear_1_1080" x1="47.5297" y1="31.7656" x2="47.5297" y2="91" gradientUnits="userSpaceOnUse">
<stop stop-color="#FBEE74"/>
<stop offset="1" stop-color="#EDDD44"/>
</linearGradient>
<linearGradient id="paint2_linear_1_1080" x1="47.5297" y1="31.7656" x2="47.5297" y2="91" gradientUnits="userSpaceOnUse">
<stop stop-color="#FBEE74"/>
<stop offset="1" stop-color="#EDDD44"/>
</linearGradient>
<linearGradient id="paint3_linear_1_1080" x1="47.6196" y1="29.0736" x2="47.6196" y2="56" gradientUnits="userSpaceOnUse">
<stop stop-color="#FFF272"/>
<stop offset="1" stop-color="#EEDE46"/>
</linearGradient>
</defs>
</svg>
