<svg width="96" height="96" viewBox="0 0 96 96" fill="none" xmlns="http://www.w3.org/2000/svg">
<path fill-rule="evenodd" clip-rule="evenodd" d="M82 41C82 48.4198 78.8298 57.015 73.8436 64.3733L73.4302 70.9422C72.9328 78.845 66.3783 85 58.4598 85H37.5402C29.6217 85 23.0672 78.845 22.5698 70.9422L22.2136 65.2827C16.6425 57.7303 13 48.7277 13 41C13 40.7143 13.005 40.4301 13.0148 40.1474C9.94726 41.0114 7.28896 40.9498 6.04132 39.2343C2.04132 33.7343 10.5413 14.7343 15.0413 13.2343C18.4561 12.0961 24.8402 15.3666 28.0484 17.4131C33.9961 13.9517 41.0603 12 48 12C54.8247 12 61.6109 13.8876 67.305 17.2422C70.5901 15.1907 76.7201 12.1272 80.0413 13.2343C84.5413 14.7343 93.0413 33.7343 89.0413 39.2343C87.7825 40.9652 85.0876 41.0124 81.9852 40.124C81.995 40.4144 82 40.7064 82 41Z" fill="url(#paint0_linear_11_134)"/>
<path fill-rule="evenodd" clip-rule="evenodd" d="M76.2964 65.2028L75.9253 71.0992C75.345 80.3192 67.698 87.5 58.4598 87.5H37.5402C28.302 87.5 20.655 80.3192 20.0747 71.0992L19.7642 66.1655C14.7078 59.1209 11.1575 50.7963 10.5822 43.1483C9.90712 43.2067 9.24003 43.2109 8.59389 43.1455C6.92481 42.9766 5.18653 42.3094 4.01948 40.7047C2.43394 38.5246 2.32475 35.4749 2.64454 32.769C2.98147 29.9181 3.88047 26.7682 5.02381 23.8282C6.16982 20.8813 7.60562 18.0317 9.08559 15.7822C9.82431 14.6593 10.6068 13.6358 11.4063 12.8137C12.1637 12.0348 13.1253 11.2378 14.2508 10.8626C15.6356 10.401 17.1235 10.4396 18.4537 10.65C19.8117 10.8647 21.207 11.2917 22.5189 11.7957C24.5429 12.5733 26.5239 13.5948 28.1051 14.5196C34.1384 11.2992 41.1154 9.5 48 9.5C54.7581 9.5 61.4743 11.2338 67.2669 14.3519C68.8518 13.4414 70.8011 12.4554 72.7822 11.7128C74.0626 11.2329 75.42 10.8304 76.7421 10.6326C78.0388 10.4385 79.4834 10.4131 80.8319 10.8626C81.9574 11.2378 82.9189 12.0348 83.6764 12.8137C84.4759 13.6358 85.2583 14.6593 85.9971 15.7822C87.477 18.0317 88.9128 20.8813 90.0588 23.8282C91.2022 26.7682 92.1012 29.9181 92.4381 32.769C92.7579 35.4749 92.6487 38.5246 91.0632 40.7047C89.8852 42.3244 88.1265 42.9882 86.4437 43.1499C85.7871 43.213 85.1089 43.2048 84.4225 43.1413C83.9031 50.4344 80.812 58.3603 76.2964 65.2028ZM81.9462 42.7024C81.5101 49.7127 78.4527 57.5715 73.8436 64.3733L73.4302 70.9422C72.9328 78.845 66.3783 85 58.4598 85H37.5402C29.6217 85 23.0672 78.845 22.5698 70.9422L22.2136 65.2827C17.0516 58.285 13.5454 50.0421 13.0583 42.722C13.0196 42.1418 13 41.5675 13 41C13 40.7143 13.005 40.4301 13.0148 40.1474C12.1359 40.395 11.2905 40.5666 10.5023 40.645C8.5397 40.8403 6.93147 40.4583 6.04132 39.2343C2.04132 33.7343 10.5413 14.7343 15.0413 13.2343C18.4561 12.0961 24.8402 15.3666 28.0484 17.4131C33.9961 13.9517 41.0603 12 48 12C54.8247 12 61.6109 13.8876 67.305 17.2422C70.5901 15.1907 76.7201 12.1272 80.0413 13.2343C84.5413 14.7343 93.0413 33.7343 89.0413 39.2343C88.1387 40.4754 86.4978 40.8509 84.4977 40.6365C83.7084 40.5519 82.8631 40.3754 81.9852 40.124C81.995 40.4144 82 40.7064 82 41C82 41.5611 81.9819 42.1289 81.9462 42.7024Z" fill="#8C8C87"/>
<path d="M15.0413 13.2343C18.6413 12.0343 25.5413 15.7343 28.5413 17.7343V28.7343C28.5413 33.2343 10.0413 44.7343 6.04132 39.2343C2.04132 33.7343 10.5413 14.7343 15.0413 13.2343Z" fill="#EEEBE8"/>
<mask id="mask0_11_134" style="mask-type:alpha" maskUnits="userSpaceOnUse" x="5" y="13" width="24" height="28">
<path d="M15.0413 13.2343C18.6413 12.0343 25.5413 15.7343 28.5413 17.7343V28.7343C28.5413 33.2343 10.0413 44.7343 6.04132 39.2343C2.04132 33.7343 10.5413 14.7343 15.0413 13.2343Z" fill="#EEEBE8"/>
</mask>
<g mask="url(#mask0_11_134)">
<g style="mix-blend-mode:multiply">
<path d="M18.219 17.1692C20.9717 16.3026 26.2475 18.9747 28.5413 20.4191V28.3632C28.5413 31.6131 14.396 39.9184 11.3375 35.9463C8.27908 31.9742 14.7783 18.2525 18.219 17.1692Z" fill="url(#paint1_linear_11_134)"/>
</g>
<path style="mix-blend-mode:multiply" opacity="0.5" d="M10.0413 42.5C10.0413 25.3 22.3747 18 28.5413 16.5L25.5413 41.5L10.0413 42.5Z" fill="#C4C4C4" fill-opacity="0.3"/>
</g>
<path d="M80.0413 13.2343C76.4413 12.0343 69.5413 15.7343 66.5413 17.7343V28.7343C66.5413 33.2343 85.0413 44.7343 89.0413 39.2343C93.0413 33.7343 84.5413 14.7343 80.0413 13.2343Z" fill="#EEEBE8"/>
<mask id="mask1_11_134" style="mask-type:alpha" maskUnits="userSpaceOnUse" x="66" y="13" width="25" height="28">
<path d="M80.0413 13.2343C76.4413 12.0343 69.5413 15.7343 66.5413 17.7343V28.7343C66.5413 33.2343 85.0413 44.7343 89.0413 39.2343C93.0413 33.7343 84.5413 14.7343 80.0413 13.2343Z" fill="#EEEBE8"/>
</mask>
<g mask="url(#mask1_11_134)">
<g style="mix-blend-mode:multiply">
<path d="M76.8636 17.1692C74.111 16.3026 68.8352 18.9747 66.5413 20.4191V28.3632C66.5413 31.6131 80.6867 39.9184 83.7451 35.9463C86.8036 31.9742 80.3044 18.2525 76.8636 17.1692Z" fill="url(#paint2_linear_11_134)"/>
</g>
<path style="mix-blend-mode:multiply" opacity="0.5" d="M85.0413 42.5C85.0413 25.3 72.708 18 66.5413 16.5L69.5413 41.5L85.0413 42.5Z" fill="#C4C4C4" fill-opacity="0.3"/>
</g>
<path fill-rule="evenodd" clip-rule="evenodd" d="M73.8436 64.3733C78.8298 57.015 82 48.4198 82 41C82 23.8792 65.1208 12 48 12C30.8792 12 13 23.8792 13 41C13 48.7277 16.6425 57.7303 22.2136 65.2827L22.5698 70.9422C23.0672 78.845 29.6217 85 37.5402 85H58.4598C66.3783 85 72.9328 78.845 73.4302 70.9422L73.8436 64.3733Z" fill="url(#paint3_linear_11_134)"/>
<path fill-rule="evenodd" clip-rule="evenodd" d="M27.4348 49.5181C25.0831 49.4207 22.6089 49.6124 20.2461 50.2968C20.0642 50.3495 19.9223 50.1532 20.06 50.0328C23.1884 47.3 30.1581 44.3818 37.2083 51.1654C37.3447 51.2966 37.1837 51.5075 37.0006 51.4383C36.1503 51.1167 35.0881 50.776 33.8772 50.4712C34.619 51.2683 35.0663 52.2998 35.0663 53.4265C35.0663 55.9523 32.8179 58 30.0443 58C27.2707 58 25.0223 55.9523 25.0223 53.4265C25.0223 51.7709 25.9882 50.3208 27.4348 49.5181Z" fill="url(#paint4_linear_11_134)"/>
<path d="M25.8636 33.0266C31.6223 32.4519 37.0342 41.3363 39.376 46.5907C39.4987 46.8662 39.126 47.1076 38.8327 46.95C30.2686 42.3482 21.7224 43.571 17.9153 44.9649C17.661 45.058 17.3754 44.8945 17.4017 44.6606C17.8452 40.7152 20.0399 33.6077 25.8636 33.0266Z" fill="url(#paint5_linear_11_134)"/>
<path fill-rule="evenodd" clip-rule="evenodd" d="M67.5969 49.5181C69.9485 49.4207 72.4228 49.6124 74.7855 50.2968C74.9674 50.3495 75.1093 50.1532 74.9716 50.0328C71.8432 47.3 64.8735 44.3818 57.8233 51.1654C57.687 51.2966 57.8479 51.5075 58.031 51.4383C58.8813 51.1167 59.9435 50.776 61.1544 50.4712C60.4127 51.2683 59.9653 52.2998 59.9653 53.4265C59.9653 55.9523 62.2138 58 64.9873 58C67.7609 58 70.0094 55.9523 70.0094 53.4265C70.0094 51.7709 69.0435 50.3208 67.5969 49.5181Z" fill="url(#paint6_linear_11_134)"/>
<path d="M69.3211 33.0266C63.8241 32.4519 58.6583 41.3363 56.4229 46.5907C56.3058 46.8662 56.6615 47.1076 56.9415 46.95C65.1163 42.3482 73.2741 43.571 76.9081 44.9649C77.1508 45.058 77.4235 44.8945 77.3984 44.6606C76.975 40.7152 74.88 33.6077 69.3211 33.0266Z" fill="url(#paint7_linear_11_134)"/>
<path opacity="0.6" d="M23 67C31.9041 63.1363 54.3699 57.7272 73 67C65.6941 60.963 45.4658 52.5112 23 67Z" fill="url(#paint8_linear_11_134)"/>
<path fill-rule="evenodd" clip-rule="evenodd" d="M35.0528 76.1144C38.2368 76.8331 44.0728 77.2856 46.3278 74.2114C46.3491 74.1824 46.3619 74.1476 46.3649 74.1117L46.9422 67.1834C46.9509 67.0797 47.0375 67 47.1415 67H47.7547H47.9519H48.5651C48.6691 67 48.7558 67.0797 48.7644 67.1834L49.3418 74.1117C49.3448 74.1476 49.3575 74.1824 49.3788 74.2114C51.6338 77.2856 57.4699 76.8331 60.6539 76.1144C60.8466 76.071 60.977 76.2946 60.8312 76.4279C57.5478 79.4314 51.4435 78.2509 48.1791 77.6196C48.0671 77.5979 47.9584 77.5769 47.8533 77.5568C47.7482 77.5769 47.6396 77.5979 47.5276 77.6196C44.2632 78.2509 38.1588 79.4314 34.8754 76.4279C34.7297 76.2946 34.8601 76.071 35.0528 76.1144Z" fill="#8C8C87"/>
<path d="M40.2029 61.7503C44.899 58.6454 52.8717 60.3339 55.2917 61.7606C55.3682 61.8057 55.4171 61.88 55.4328 61.9694C55.9161 64.7339 55.2806 70 47.7979 70C40.3214 70 39.7488 64.7426 40.0652 61.9762C40.0759 61.8828 40.1261 61.8011 40.2029 61.7503Z" fill="url(#paint9_linear_11_134)"/>
<path opacity="0.3" d="M45.0509 62.0792C46.8899 61.4049 48.9456 61.7053 50.4035 62.1658C51.0923 62.3834 51.3127 63.1975 50.9121 63.7986C50.6893 64.1326 50.3144 64.3333 49.9128 64.3333H45.6983C45.262 64.3333 44.8546 64.1153 44.6126 63.7523C44.2129 63.1527 44.3744 62.3272 45.0509 62.0792Z" fill="white"/>
<defs>
<linearGradient id="paint0_linear_11_134" x1="47.5" y1="12" x2="47.5" y2="85" gradientUnits="userSpaceOnUse">
<stop stop-color="#F8F9F7"/>
<stop offset="1" stop-color="#E9E9E1"/>
</linearGradient>
<linearGradient id="paint1_linear_11_134" x1="16.5413" y1="18" x2="25.0413" y2="36" gradientUnits="userSpaceOnUse">
<stop stop-color="#DCD8D4"/>
<stop offset="0.589865" stop-color="#EEEBE8" stop-opacity="0"/>
</linearGradient>
<linearGradient id="paint2_linear_11_134" x1="78.5413" y1="18" x2="70.0413" y2="36" gradientUnits="userSpaceOnUse">
<stop stop-color="#DCD8D4"/>
<stop offset="0.589865" stop-color="#EEEBE8" stop-opacity="0"/>
</linearGradient>
<linearGradient id="paint3_linear_11_134" x1="47.5" y1="12" x2="47.5" y2="85" gradientUnits="userSpaceOnUse">
<stop stop-color="#F8F9F7"/>
<stop offset="1" stop-color="#E9E9E1"/>
</linearGradient>
<linearGradient id="paint4_linear_11_134" x1="28.632" y1="47" x2="28.632" y2="58" gradientUnits="userSpaceOnUse">
<stop offset="0.312016" stop-color="#2B2D31"/>
<stop offset="1"/>
</linearGradient>
<linearGradient id="paint5_linear_11_134" x1="28.4" y1="33" x2="28.4" y2="47" gradientUnits="userSpaceOnUse">
<stop offset="0.312016" stop-color="#2B2D31"/>
<stop offset="1"/>
</linearGradient>
<linearGradient id="paint6_linear_11_134" x1="66.3996" y1="47" x2="66.3996" y2="58" gradientUnits="userSpaceOnUse">
<stop offset="0.312016" stop-color="#2B2D31"/>
<stop offset="1"/>
</linearGradient>
<linearGradient id="paint7_linear_11_134" x1="66.9" y1="33" x2="66.9" y2="47" gradientUnits="userSpaceOnUse">
<stop offset="0.312016" stop-color="#2B2D31"/>
<stop offset="1"/>
</linearGradient>
<linearGradient id="paint8_linear_11_134" x1="48" y1="59" x2="48" y2="67" gradientUnits="userSpaceOnUse">
<stop stop-color="#DCD8D4"/>
<stop offset="0.791211" stop-color="#C4C4C4" stop-opacity="0"/>
</linearGradient>
<linearGradient id="paint9_linear_11_134" x1="47.7778" y1="60" x2="47.7778" y2="70" gradientUnits="userSpaceOnUse">
<stop offset="0.312016" stop-color="#2B2D31"/>
<stop offset="1"/>
</linearGradient>
</defs>
</svg>
