<svg width="96" height="96" viewBox="0 0 96 96" fill="none" xmlns="http://www.w3.org/2000/svg">
<path fill-rule="evenodd" clip-rule="evenodd" d="M71.2273 14.4849C70.6204 11.4519 67.8786 5.31403 61.7654 5.02293C54.1231 4.659 48.6642 8.66213 47.5725 14.4849C46.9287 17.9185 47.0442 20.5928 47.2473 22.7317C47.29 23.1809 47.3365 23.6066 47.3807 24.0107C47.4315 24.4755 47.4792 24.9118 47.5144 25.3227C47.2728 25.1895 46.9743 25.1945 46.7517 25.3687C46.7426 25.3759 46.7335 25.383 46.7244 25.3902C44.8175 26.8982 44.3046 28.8824 44.2795 30.0428C44.2788 30.076 44.2784 30.1084 44.2785 30.1402C44.2786 30.2054 44.2897 30.2686 44.3101 30.3282C43.4752 30.4179 42.6473 30.5379 41.8276 30.6869C25.8417 33.5921 13 47.505 13 62.1585C13 78.6395 29.2445 92 47.9364 92C66.6283 92 82.5089 78.6395 82.5089 62.1585C82.5089 56.4841 80.6264 50.9207 77.3947 46.0646C77.6219 45.7378 77.6548 45.3029 77.4327 44.9475L79.5524 43.6221C79.9485 44.2556 80.1099 44.9491 80.0802 45.6187C83.1817 50.6091 85.0089 56.2984 85.0089 62.1585C85.0089 80.37 67.631 94.5 47.9364 94.5C28.2777 94.5 10.5 80.4005 10.5 62.1585C10.5 45.9032 24.7511 30.932 42.0585 28.1108C42.4405 26.689 43.2645 25.073 44.8336 23.711C44.5853 21.3769 44.3314 18.205 45.1153 14.0241C46.4904 6.69019 53.3081 2.11736 61.8843 2.52576C65.858 2.71498 68.6895 4.83178 70.5307 7.18546C71.8671 8.8938 72.7486 10.7996 73.2651 12.4159C73.4515 12.4999 73.6332 12.5925 73.8089 12.6911C74.6422 13.1585 75.5016 13.8486 76.2888 14.7285C77.8793 16.5063 79.274 19.17 79.5427 22.6633C79.8744 26.9751 77.4207 29.9067 74.5263 31.6836C72.7814 32.7547 70.7718 33.489 68.8215 33.976C72.0162 35.854 76.8756 39.3412 79.5524 43.6221L77.4327 44.9475C74.7366 40.6359 69.3274 37.0411 66.4136 35.491C66.2302 35.3771 66.0457 35.2648 65.86 35.1541C65.9233 34.9954 65.9672 34.8259 65.9883 34.6481L66.052 34.1133C66.1502 33.2877 65.7307 32.5198 65.0493 32.1348C65.9783 32.0205 66.964 31.8501 67.9555 31.6139C72.6322 30.5001 77.4399 27.9225 77.0501 22.855C76.6023 17.0335 72.4414 14.2436 71.2273 14.4849Z" fill="#963C05"/>
<path fill-rule="evenodd" clip-rule="evenodd" d="M71.2273 14.4849C70.6208 11.4522 67.8793 5.31407 61.7654 5.02293C54.1231 4.65901 48.6642 8.66214 47.5725 14.4849C46.7935 18.6397 47.1262 21.6828 47.3807 24.0107C47.4829 24.9453 47.5725 25.7645 47.5725 26.4943C47.5725 27.672 46.4382 29.0684 45.1528 30.2482C27.6608 31.6901 13 46.5015 13 62.1585C13 78.6395 29.2445 92 47.9364 92C66.6283 92 82.5089 78.6395 82.5089 62.1585C82.5089 49.9791 73.8362 38.3114 61.7654 33.0504V32.317C66.6177 32.4383 77.6323 30.4246 77.0501 22.855C76.6022 17.0323 72.4404 14.2423 71.2273 14.4849Z" fill="url(#paint0_radial_18_177)"/>
<mask id="mask0_18_177" style="mask-type:alpha" maskUnits="userSpaceOnUse" x="13" y="5" width="70" height="87">
<path fill-rule="evenodd" clip-rule="evenodd" d="M71.2273 14.4849C70.6208 11.4522 67.8793 5.31407 61.7654 5.02293C54.1231 4.65901 48.6642 8.66214 47.5725 14.4849C46.7935 18.6397 47.1262 21.6828 47.3807 24.0107C47.4829 24.9453 47.5725 25.7645 47.5725 26.4943C47.5725 27.672 46.4382 29.0684 45.1528 30.2482C27.6608 31.6901 13 46.5015 13 62.1585C13 78.6395 29.2445 92 47.9364 92C66.6283 92 82.5089 78.6395 82.5089 62.1585C82.5089 49.9791 73.8362 38.3114 61.7654 33.0504V32.317C66.6177 32.4383 77.6323 30.4246 77.0501 22.855C76.6022 17.0323 72.4404 14.2423 71.2273 14.4849Z" fill="url(#paint1_radial_18_177)"/>
</mask>
<g mask="url(#mask0_18_177)">
<path d="M64.3128 15.9406C66.4964 10.1178 66.0111 7.20647 64.3128 5.02295L75.2305 10.1178L81.4171 17.7602V31.5892L60.6736 33.7727L46.8446 26.4943V19.2159C50.8478 30.1335 64.2972 25.2819 66.4964 21.7633C70.1356 15.9406 66.4964 15.9406 64.3128 15.9406Z" fill="#DEA35F"/>
<path d="M48.2172 41.8075L50.9843 53.8328L63.8354 59.3293C64.5944 59.7653 64.5227 60.9135 63.7159 61.2438L52.4564 68.8798L50.9843 82.4047C50.8897 83.3047 49.8156 83.6765 49.2115 83.0184L39.4247 74.2765C39.1942 74.0253 38.8596 73.9053 38.5278 73.9548L28.2522 75.4858C27.5251 75.5942 26.9238 74.9058 27.1048 74.172L30.29 61.5801C30.344 61.3611 30.3288 61.13 30.2465 60.9203L24.1322 50.5912C23.8378 49.8407 24.433 49.0411 25.2125 49.1401L37.3664 50.3292L46.6385 41.1432C47.2441 40.7286 48.0653 41.0742 48.2172 41.8075Z" fill="#9A4F01"/>
<g style="mix-blend-mode:multiply" opacity="0.15">
<path d="M49.4142 73.4212C21.8753 72.7949 17.8593 45.7574 19.2936 32.317C11.8612 38.972 -8.08883 83.2079 38.4613 92.9946C75.7014 100.824 88.9232 68.0711 90.879 50.716C88.532 58.5454 76.9531 74.0476 49.4142 73.4212Z" fill="#9D7E5E"/>
</g>
</g>
<ellipse opacity="0.3" cx="37.1786" cy="44.5108" rx="14.655" ry="9.60154" transform="rotate(-17.9437 37.1786 44.5108)" fill="#FFFBD0"/>
<ellipse opacity="0.3" cx="56.3878" cy="11.7472" rx="6.55928" ry="4.29746" transform="rotate(-17.9437 56.3878 11.7472)" fill="#FFFBD0"/>
<path d="M63.3161 31.9308C56.284 31.3073 50.2118 27.5401 47.6345 25.4046C47.379 25.1928 47.013 25.1642 46.7517 25.3688C44.7675 26.9223 44.2764 28.991 44.2785 30.1402C44.2789 30.3661 44.4111 30.5672 44.6055 30.682C52.1554 35.1395 60.4221 35.4415 64.3016 34.9717C64.7082 34.9224 64.9778 34.5309 64.8484 34.1424C64.548 33.2406 64.086 32.5386 63.765 32.1526C63.6539 32.019 63.4892 31.9462 63.3161 31.9308Z" fill="#C53434"/>
<path d="M65.0407 34.8644C64.7496 33.4087 63.9489 32.3169 63.585 31.953C59.2903 31.6227 55.3393 30.1052 52.3035 28.4774C50.8478 29.2441 47.2086 30.5674 44.2972 29.7276C44.2841 29.8749 44.2783 30.013 44.2785 30.1399C44.2789 30.3657 44.4111 30.5671 44.6055 30.6819C52.6766 35.4472 61.5671 35.4633 65.0407 34.8644Z" fill="#A51919"/>
<path d="M77.4327 44.9476C74.5707 40.3706 68.6514 36.6015 65.9053 35.2284H62.2661C60.9104 41.4646 62.6059 48.6058 63.8251 52.007C63.9758 52.4272 64.3784 52.6966 64.8248 52.6966H70.4603C71.1278 52.6966 71.6395 52.1033 71.4924 51.4522C70.225 45.8439 66.1165 39.1407 64.0857 36.3202C68.434 39.1337 71.977 44.2133 73.6783 47.2152C74.007 47.7952 74.766 47.9862 75.3121 47.6039L77.1247 46.3351C77.5759 46.0192 77.7247 45.4146 77.4327 44.9476Z" fill="#8A0E0E"/>
<mask id="mask1_18_177" style="mask-type:alpha" maskUnits="userSpaceOnUse" x="61" y="35" width="17" height="18">
<path d="M77.4327 44.9476C74.5707 40.3706 68.6514 36.6015 65.9053 35.2284H62.2661C60.9104 41.4646 62.6059 48.6058 63.8251 52.007C63.9758 52.4272 64.3784 52.6966 64.8248 52.6966H70.4603C71.1278 52.6966 71.6395 52.1033 71.4924 51.4522C70.225 45.8439 66.1165 39.1407 64.0857 36.3202C68.434 39.1337 71.977 44.2133 73.6783 47.2152C74.007 47.7952 74.766 47.9862 75.3121 47.6039L77.1247 46.3351C77.5759 46.0192 77.7247 45.4146 77.4327 44.9476Z" fill="#8A0E0E"/>
</mask>
<g mask="url(#mask1_18_177)">
<path d="M63.2211 35.9563C63.4637 41.0512 64.604 49.7125 68.6799 49.4213C71.2049 49.241 72.1378 49.1444 72.309 48.924C72.1898 48.7083 72.0701 48.5083 71.9552 48.3296C72.2321 48.6065 72.4142 48.7886 72.309 48.924C73.3227 50.7584 74.2997 53.7347 71.9552 54.5162C69.335 55.3896 63.3424 53.9097 60.6736 53.0605V42.5068L60.3097 36.6841L63.2211 35.9563Z" fill="#770000"/>
<path d="M70.8634 44.6904C70.5723 43.817 66.0111 38.5037 63.9489 35.9563L64.3129 35.001C68.316 37.7759 74.1387 44.1081 75.5944 44.6904C77.0501 45.2726 77.6566 44.4478 77.7779 43.5986L79.2336 45.7821L74.5026 49.4213C73.4109 48.2083 71.1546 45.5638 70.8634 44.6904Z" fill="#770000"/>
</g>
<rect x="61.7654" y="31.5891" width="4.55481" height="4.53861" rx="2" transform="rotate(6.78557 61.7654 31.5891)" fill="#8A0E0E"/>
<defs>
<radialGradient id="paint0_radial_18_177" cx="0" cy="0" r="1" gradientUnits="userSpaceOnUse" gradientTransform="translate(39.5662 42.8707) rotate(78.1664) scale(78.0829 62.3845)">
<stop offset="0.0231558" stop-color="#FFC981"/>
<stop offset="1" stop-color="#D8954F"/>
</radialGradient>
<radialGradient id="paint1_radial_18_177" cx="0" cy="0" r="1" gradientUnits="userSpaceOnUse" gradientTransform="translate(39.5662 42.8707) rotate(78.1664) scale(78.0829 62.3845)">
<stop offset="0.0231558" stop-color="#FFC981"/>
<stop offset="1" stop-color="#D8954F"/>
</radialGradient>
</defs>
</svg>
