<svg width="96" height="96" viewBox="0 0 96 96" fill="none" xmlns="http://www.w3.org/2000/svg">
<path fill-rule="evenodd" clip-rule="evenodd" d="M68.8235 14.2764C69.1231 13.9382 69.6076 13.9049 69.9372 14.2065L75.3295 19.14C75.6327 19.4175 75.7072 19.8851 75.5687 20.2859C75.5705 20.3109 75.5715 20.3361 75.5715 20.3615L75.5317 20.3798C75.52 20.4062 75.5074 20.4321 75.4937 20.4576C74.982 21.4145 74.6881 22.5326 74.6881 23.7272C74.6881 27.2608 77.2599 30.1253 80.4323 30.1253C81.9079 30.1253 83.2536 29.5055 84.271 28.4869C84.6056 28.1519 85.1148 28.093 85.4625 28.4111L91.6955 34.1139C91.9501 34.3468 92.0512 34.7085 91.9754 35.0369C91.9807 35.0788 91.9834 35.1214 91.9834 35.1646V39.2294C91.9834 39.4625 91.9007 39.6902 91.7569 39.8595C65.0465 71.3058 41.2861 80.2412 27.1816 82.4833C26.9058 82.5271 26.6364 82.4086 26.4551 82.173L19.558 73.2105C19.4305 73.0448 19.3605 72.8339 19.3605 72.6157V69.5979C19.3605 69.3806 19.3952 69.1673 19.4613 68.9672C19.4576 68.6735 19.5698 68.3742 19.7758 68.1597C20.4373 67.4709 20.9208 66.6532 21.1664 65.7577C19.3619 60.6881 14.3958 61.2761 11.6406 61.8664C11.3396 61.931 11.0271 61.8249 10.8243 61.5688L5.20528 54.4757C5.073 54.3087 5 54.0937 5 53.8709V51.4407C5 51.2803 5.03688 51.1294 5.10187 50.998C4.82273 50.4351 5.14235 49.6887 5.75466 49.6171C18.5916 48.1152 46.5969 39.3623 68.8235 14.2764Z" fill="#85ACC9"/>
<path fill-rule="evenodd" clip-rule="evenodd" d="M75.3295 19.1401C75.6328 19.4176 75.7072 19.8851 75.5687 20.2859C75.5705 20.3109 75.5715 20.3362 75.5715 20.3615L75.5317 20.3798C75.52 20.4062 75.5074 20.4322 75.4937 20.4576C74.982 21.4145 74.6881 22.5326 74.6881 23.7272C74.6881 27.2608 77.2599 30.1253 80.4323 30.1253C81.908 30.1253 83.2537 29.5055 84.271 28.4869C84.6056 28.1519 85.1148 28.0931 85.4625 28.4111L91.6955 34.114C91.9501 34.3468 92.0512 34.7086 91.9754 35.037C91.9807 35.0789 91.9835 35.1215 91.9835 35.1646V39.2294C91.9835 39.4625 91.9008 39.6902 91.7569 39.8595C65.0465 71.3059 41.2861 80.2412 27.1816 82.4833C26.9058 82.5272 26.6364 82.4086 26.4551 82.173L19.558 73.2105C19.4306 73.0449 19.3605 72.8339 19.3605 72.6157V69.5979C19.3605 69.3806 19.3952 69.1673 19.4613 68.9672C19.4577 68.6735 19.5698 68.3743 19.7758 68.1597C20.4373 67.4709 20.9208 66.6533 21.1664 65.7577C19.3619 60.6881 14.3958 61.2761 11.6406 61.8665C11.3396 61.931 11.0272 61.8249 10.8243 61.5689L5.20529 54.4757C5.07301 54.3087 5.00001 54.0937 5.00001 53.871V51.4407C5.00001 51.2804 5.03688 51.1294 5.10188 50.9981C4.82274 50.4352 5.14236 49.6887 5.75467 49.6171C18.5916 48.1152 46.5969 39.3624 68.8235 14.2765C69.1231 13.9383 69.6076 13.905 69.9373 14.2065L75.3295 19.1401ZM2.52757 51.0001C2.44253 50.326 2.55814 49.6575 2.82025 49.0841C3.23475 48.1772 4.13422 47.2896 5.46416 47.134C17.802 45.6905 45.202 37.167 66.9523 12.6185C68.1395 11.2786 70.2228 11.0793 71.6248 12.3621L77.017 17.2956C78.0338 18.2259 78.2626 19.512 78.0715 20.5652V21.9633L77.428 22.2593C77.2748 22.7071 77.1881 23.2014 77.1881 23.7272C77.1881 26.1404 78.8873 27.6253 80.4323 27.6253C81.1816 27.6253 81.9074 27.3157 82.5022 26.7202C83.5929 25.6281 85.6286 25.1747 87.1501 26.5667L93.3831 32.2695C94.2194 33.0346 94.5832 34.1222 94.4834 35.1564C94.4834 35.1591 94.4835 35.1618 94.4835 35.1646V39.2294C94.4835 40.0337 94.2039 40.8405 93.6623 41.478C66.6034 73.3346 42.3238 82.6077 27.5741 84.9523C26.2895 85.1565 25.1462 84.5714 24.4738 83.6977L17.5768 74.7352C17.0974 74.1123 16.8605 73.3595 16.8605 72.6157V69.5979C16.8605 69.2424 16.9023 68.8896 16.9841 68.5471C17.0706 67.7778 17.4025 67.0218 17.9727 66.4281C18.1665 66.2262 18.3271 66.0145 18.4554 65.7974C17.8709 64.7451 17.0711 64.3246 16.2044 64.1271C14.9513 63.8414 13.471 64.031 12.1644 64.311C10.9386 64.5737 9.6616 64.1272 8.86468 63.1212L3.24568 56.0281C2.74669 55.3982 2.50001 54.6297 2.50001 53.871V51.4407C2.50001 51.2925 2.5093 51.1454 2.52757 51.0001ZM77.6983 21.6367C77.6983 21.6367 77.6983 21.6367 77.6983 21.6367V21.6367Z" fill="#B0D2EB"/>
<path d="M5 53.871V51.4407C5 50.9493 5.34635 50.5463 5.78701 50.523C13.392 50.121 29.1753 48.1894 37.4136 43.2484C45.745 38.2516 61.7927 22.6857 69.2948 15.0039C69.6014 14.6899 70.0658 14.6847 70.382 14.9866L75.2849 19.6675C75.4668 19.8412 75.5715 20.0947 75.5715 20.3615L70.382 22.7488C70.382 22.792 72.2891 28.1672 74.3406 29.5383C73.7482 34.5014 79.7479 29.9009 82.3774 29.9923C82.4899 29.9962 82.5998 30.0211 82.7031 30.0711L91.49 34.3264C91.7896 34.4715 91.9834 34.8007 91.9834 35.1646V39.2294C91.9834 39.4625 91.9007 39.6902 91.7569 39.8595C65.0465 71.3059 41.2861 80.2412 27.1816 82.4833C26.9058 82.5271 26.6364 82.4086 26.4551 82.173L19.558 73.2105C19.4305 73.0449 19.3605 72.8339 19.3605 72.6157V69.5979C19.3605 69.1131 19.5334 68.6482 19.8412 68.3053L21.0675 66.9394C21.2799 66.7029 21.3621 66.3537 21.2613 66.0387C19.5425 60.6668 14.4457 61.2654 11.6406 61.8665C11.3396 61.931 11.0271 61.8249 10.8243 61.5689L5.20528 54.4757C5.073 54.3087 5 54.0937 5 53.871Z" fill="#D4E5EA"/>
<path fill-rule="evenodd" clip-rule="evenodd" d="M69.9372 14.2065C69.6076 13.9049 69.1231 13.9382 68.8235 14.2764C46.5969 39.3623 18.5916 48.1152 5.75466 49.6171C5.07942 49.6961 4.76013 50.5957 5.20723 51.1648L11.0167 58.56C11.2396 58.8438 11.5951 58.9418 11.9204 58.8377C12.6837 58.5933 13.5106 58.4596 14.3741 58.4596C18.2263 58.4596 21.3492 61.1195 21.3492 64.4007C21.3492 65.8269 20.7592 67.1357 19.7758 68.1597C19.4182 68.532 19.3435 69.1596 19.6658 69.57L26.7866 78.6344C26.9768 78.8766 27.2681 78.9897 27.5521 78.93C57.3124 72.6688 82.3998 47.772 91.8125 35.3862C92.1057 35.0004 92.0462 34.4348 91.6955 34.1139L85.4625 28.4111C85.1148 28.093 84.6056 28.1519 84.271 28.4869C83.2536 29.5055 81.9079 30.1253 80.4323 30.1253C77.2599 30.1253 74.6881 27.2608 74.6881 23.7272C74.6881 22.5326 74.982 21.4145 75.4937 20.4576C75.7242 20.0268 75.6774 19.4584 75.3295 19.14L69.9372 14.2065Z" fill="#E7F4F6"/>
<mask id="mask0_19_0" style="mask-type:alpha" maskUnits="userSpaceOnUse" x="5" y="14" width="87" height="65">
<path fill-rule="evenodd" clip-rule="evenodd" d="M69.9372 14.2065C69.6076 13.9049 69.1231 13.9382 68.8235 14.2764C46.5969 39.3623 18.5916 48.1152 5.75466 49.6171C5.07942 49.6961 4.76013 50.5957 5.20723 51.1648L11.0167 58.56C11.2396 58.8438 11.5951 58.9418 11.9204 58.8377C12.6837 58.5933 13.5106 58.4596 14.3741 58.4596C18.2263 58.4596 21.3492 61.1195 21.3492 64.4007C21.3492 65.8269 20.7592 67.1357 19.7758 68.1597C19.4182 68.532 19.3435 69.1596 19.6658 69.57L26.7866 78.6344C26.9768 78.8766 27.2681 78.9897 27.5521 78.93C57.3124 72.6688 82.3998 47.772 91.8125 35.3862C92.1057 35.0004 92.0462 34.4348 91.6955 34.1139L85.4625 28.4111C85.1148 28.093 84.6056 28.1519 84.271 28.4869C83.2536 29.5055 81.9079 30.1253 80.4323 30.1253C77.2599 30.1253 74.6881 27.2608 74.6881 23.7272C74.6881 22.5326 74.982 21.4145 75.4937 20.4576C75.7242 20.0268 75.6774 19.4584 75.3295 19.14L69.9372 14.2065Z" fill="#E7F4F6"/>
</mask>
<g mask="url(#mask0_19_0)">
<path d="M79.2642 55.1305L51.3638 28.1672L68.5964 10.3439L96.907 36.3933L79.2642 55.1305Z" fill="url(#paint0_linear_19_0)"/>
<path fill-rule="evenodd" clip-rule="evenodd" d="M51.9644 27.9971C52.2417 27.6452 52.7204 27.6125 53.0337 27.924L53.9 28.7856C54.2133 29.0971 54.2424 29.635 53.9651 29.9869C53.6878 30.3388 53.2091 30.3715 52.8959 30.06L52.0295 29.1984C51.7163 28.8868 51.6871 28.349 51.9644 27.9971ZM55.7187 31.7308C55.996 31.3789 56.4747 31.3461 56.7879 31.6577L58.5206 33.3809C58.8339 33.6924 58.863 34.2302 58.5857 34.5821C58.3084 34.934 57.8297 34.9668 57.5165 34.6553L55.7837 32.932C55.4705 32.6205 55.4414 32.0827 55.7187 31.7308ZM60.3393 36.3261C60.6166 35.9742 61.0953 35.9414 61.4085 36.2529L63.1412 37.9762C63.4545 38.2877 63.4836 38.8255 63.2063 39.1774C62.929 39.5293 62.4503 39.562 62.1371 39.2505L60.4043 37.5273C60.0911 37.2158 60.062 36.678 60.3393 36.3261ZM64.9599 40.9213C65.2371 40.5694 65.7159 40.5367 66.0291 40.8482L67.7618 42.5714C68.0751 42.883 68.1042 43.4208 67.8269 43.7727C67.5496 44.1246 67.0709 44.1573 66.7577 43.8458L65.0249 42.1226C64.7117 41.811 64.6826 41.2732 64.9599 40.9213ZM69.5805 45.5166C69.8577 45.1647 70.3365 45.132 70.6497 45.4435L72.3824 47.1667C72.6957 47.4782 72.7248 48.016 72.4475 48.3679C72.1702 48.7198 71.6915 48.7526 71.3783 48.4411L69.6455 46.7178C69.3323 46.4063 69.3032 45.8685 69.5805 45.5166ZM74.201 50.1119C74.4783 49.76 74.9571 49.7272 75.2703 50.0387L76.1367 50.9004C76.4499 51.2119 76.479 51.7497 76.2017 52.1016C75.9245 52.4535 75.4457 52.4862 75.1325 52.1747L74.2661 51.3131C73.9529 51.0016 73.9238 50.4638 74.201 50.1119Z" fill="#0E5F9A"/>
</g>
<path fill-rule="evenodd" clip-rule="evenodd" d="M51.9441 34.833C52.2645 35.19 52.2645 35.7687 51.9441 36.1256C50.423 37.8199 47.9797 39.6124 45.1232 41.3577C42.2511 43.1125 38.9029 44.8541 35.5259 46.4333C28.7913 49.5827 21.8514 52.1281 18.2722 52.8316C17.8259 52.9194 17.4002 52.5875 17.3215 52.0904C17.2427 51.5933 17.5407 51.1192 17.987 51.0314C21.3829 50.3639 28.188 47.8823 34.8906 44.7478C38.2323 43.1851 41.5259 41.4706 44.3339 39.755C47.1574 38.0299 49.4326 36.3378 50.7836 34.833C51.104 34.4761 51.6236 34.4761 51.9441 34.833Z" fill="#98D4FF"/>
<path fill-rule="evenodd" clip-rule="evenodd" d="M55.1332 38.2591C55.341 38.5587 55.2915 38.9892 55.0225 39.2207C50.4479 43.158 43.8272 46.9554 37.4994 49.9351C31.1738 52.9137 25.0729 55.107 21.5189 55.8056C21.1842 55.8714 20.8649 55.6225 20.8059 55.2496C20.7468 54.8768 20.9703 54.5212 21.305 54.4554C24.7261 53.783 30.729 51.6347 37.0201 48.6723C43.309 45.7109 49.8179 41.9676 54.2699 38.1358C54.5388 37.9044 54.9253 37.9595 55.1332 38.2591Z" fill="#D2E4F1"/>
<path fill-rule="evenodd" clip-rule="evenodd" d="M67.4105 49.6793C67.8474 50.2594 67.7794 51.1242 67.2585 51.6108C62.3763 56.1728 55.2213 60.7284 48.3731 64.3818C41.5278 68.0337 34.859 70.8527 30.9087 71.887C30.2469 72.0603 29.5844 71.6032 29.4288 70.8661C29.2733 70.129 29.6836 69.391 30.3454 69.2177C34.0449 68.2491 40.5303 65.5255 47.3097 61.9088C54.0863 58.2936 61.0266 53.8547 65.6764 49.5101C66.1972 49.0235 66.9736 49.0992 67.4105 49.6793Z" fill="#B6DEFC"/>
<g opacity="0.5">
<mask id="mask1_19_0" style="mask-type:alpha" maskUnits="userSpaceOnUse" x="24" y="41" width="39" height="23">
<path d="M24.9098 59.3721C43.3034 53.6044 54.5595 45.8137 59.1562 41.4772L62.8995 45.533C54.4659 53.7069 36.5602 61.3257 29.069 63.8786L24.9098 59.3721Z" fill="#C4C4C4"/>
</mask>
<g mask="url(#mask1_19_0)">
<path d="M25.6962 56.6177L34.6823 53.2801L40.5519 60.2604L32.8143 65.4381L25.6962 56.6177Z" fill="#B6D6ED"/>
<path d="M36.3038 51.6779L45.2898 48.3402L51.1595 55.3205L43.4219 60.4982L36.3038 51.6779Z" fill="#B6D6ED"/>
<path d="M46.9025 46.0301L55.8886 42.6924L61.7582 49.6727L54.0206 54.8504L46.9025 46.0301Z" fill="#B6D6ED"/>
</g>
</g>
<defs>
<linearGradient id="paint0_linear_19_0" x1="74.1354" y1="10.3439" x2="74.1354" y2="55.1305" gradientUnits="userSpaceOnUse">
<stop stop-color="#53AAFF"/>
<stop offset="1" stop-color="#3590EA"/>
</linearGradient>
</defs>
</svg>
