<svg width="96" height="96" viewBox="0 0 96 96" fill="none" xmlns="http://www.w3.org/2000/svg">
<path fill-rule="evenodd" clip-rule="evenodd" d="M41.9136 15.1728C43.9296 9.93323 46.6808 4 48.482 4C50.2832 4 53.0344 9.93323 55.0504 15.1728C56.7406 10.9595 58.9102 6.52692 60.3609 6.52692C62.4078 6.52692 65.886 15.3518 67.4293 19.9334C72.176 23.1583 75.842 28.1744 77.8976 35.5772L81.2123 35.2178L81.2172 35.2173C82.7553 35.0505 84.6732 41.4113 85.501 49.4245C86.0483 54.7216 85.9822 59.4147 85.4303 62.0359C85.6799 63.1632 85.9398 64.5328 86.1169 65.8928C86.2454 66.8798 86.3333 67.885 86.3376 68.8013C86.3417 69.6936 86.2681 70.606 86.0114 71.3514C85.4943 72.8525 84.1802 73.9457 83.0049 74.675L83.0426 74.774C83.6494 76.3685 82.8796 78.165 81.3232 78.7866L78.3997 79.9543C77.3434 81.2373 75.9309 82.2408 74.1758 83.1157C70.7864 84.8054 60.7029 85.9638 53.414 86.358C51.5223 88.5056 49.7843 90.3006 48.6518 91.4355C47.9007 92.1881 46.7298 92.1881 45.9787 91.4355C44.8396 90.2939 43.0879 88.4846 41.1834 86.3204C37.7689 86.0488 33.0704 85.4723 26.0617 84.2978C15.2764 82.4904 13.6278 75.3987 14.3815 68.9815C14.2901 67.7228 14.2112 66.258 14.1675 64.6013C14.1539 64.6006 14.1403 64.5994 14.1267 64.598L10.7849 64.2357C9.24685 64.0689 8.67112 57.4377 9.49897 49.4245C10.3268 41.4113 12.2448 35.0505 13.7828 35.2173L13.7873 35.2178L17.103 35.5773C19.3377 27.9478 23.9249 22.7477 29.6878 19.4836C31.2978 14.7992 34.6213 6.52692 36.6031 6.52692C38.0538 6.52692 40.2234 10.9595 41.9136 15.1728ZM82.1013 72.3009L81.9438 71.8871C81.8083 71.5311 81.6156 71.2153 81.3808 70.9464C81.4719 69.2724 81.5154 67.1056 81.4672 64.5336L83.3997 64.3241C83.5115 64.9409 83.6147 65.5845 83.6978 66.2233C83.8182 67.1481 83.8936 68.0397 83.8971 68.8131C83.9008 69.6106 83.8266 70.1811 83.71 70.5195C83.5097 71.1009 82.9443 71.72 82.1013 72.3009Z" fill="#313A52"/>
<path fill-rule="evenodd" clip-rule="evenodd" d="M81.2172 35.2173L81.2123 35.2178L77.8976 35.5772C75.842 28.1744 72.176 23.1583 67.4292 19.9334C65.886 15.3518 62.4078 6.52692 60.3609 6.52692C59.2876 6.52692 57.8207 8.9534 56.4456 11.9222C55.9621 12.966 55.49 14.0768 55.0503 15.1728C54.6329 14.0878 54.1839 12.9731 53.7184 11.8875C51.9357 7.73041 49.9102 4 48.482 4C47.0538 4 45.0283 7.73041 43.2456 11.8875C42.7801 12.9731 42.3311 14.0878 41.9136 15.1728C41.474 14.0768 41.0019 12.966 40.5184 11.9222C39.1433 8.9534 37.6764 6.52692 36.6031 6.52692C34.6213 6.52692 31.2978 14.7992 29.6878 19.4836C23.9249 22.7477 19.3376 27.9478 17.103 35.5773L13.7873 35.2178L13.7828 35.2173C12.2448 35.0505 10.3268 41.4113 9.49896 49.4245C8.67111 57.4377 9.24684 64.0689 10.7848 64.2357L14.1267 64.598C14.1403 64.5994 14.1539 64.6006 14.1675 64.6013C14.2112 66.258 14.2901 67.7228 14.3815 68.9815C13.6277 75.3987 15.2764 82.4904 26.0617 84.2978C33.0704 85.4723 37.7689 86.0488 41.1834 86.3204C43.0879 88.4846 44.8396 90.2939 45.9787 91.4355C46.7298 92.1881 47.9007 92.1881 48.6518 91.4355C49.7843 90.3006 51.5223 88.5056 53.414 86.358C60.7029 85.9638 70.7864 84.8054 74.1758 83.1157C75.9309 82.2408 77.3434 81.2373 78.3997 79.9543L81.3232 78.7866C82.8796 78.165 83.6494 76.3685 83.0426 74.774L83.0049 74.675C83.171 74.5719 83.34 74.4615 83.5091 74.3437C84.5358 73.6284 85.5674 72.6403 86.0113 71.3514C86.0154 71.3398 86.0193 71.3281 86.0233 71.3163C86.2703 70.5776 86.3416 69.6801 86.3375 68.8019C86.3375 68.8017 86.3375 68.8021 86.3375 68.8019C86.3334 67.8903 86.2463 66.8902 86.1188 65.9081C86.1182 65.903 86.1175 65.8979 86.1168 65.8928C86.0288 65.2167 85.9203 64.5383 85.8028 63.8884C85.6839 63.231 85.5558 62.6028 85.4303 62.0359C85.4474 61.9545 85.464 61.8712 85.4802 61.7859C85.9857 59.1229 86.0313 54.5572 85.501 49.4245C84.6732 41.4113 82.7552 35.0505 81.2172 35.2173ZM81.4672 64.5336C81.4681 64.5805 81.469 64.6273 81.4698 64.674C81.481 65.3121 81.4865 65.925 81.487 66.5111C81.4878 67.3364 81.4787 68.1087 81.4617 68.8243C81.4542 69.1393 81.4452 69.4432 81.4348 69.7358C81.4195 70.1639 81.4014 70.5677 81.3808 70.9464C81.6156 71.2153 81.8083 71.5311 81.9438 71.8871L82.1013 72.3009C82.5092 72.0198 82.8522 71.7297 83.1202 71.4393C83.2377 71.312 83.3409 71.1846 83.4287 71.0578C83.5463 70.8883 83.6366 70.7199 83.6975 70.5544C83.7018 70.5428 83.706 70.5311 83.71 70.5195C83.7525 70.3962 83.7893 70.2421 83.8188 70.0575C83.8703 69.7353 83.8995 69.3201 83.8971 68.8131C83.8971 68.8129 83.8971 68.8133 83.8971 68.8131C83.8936 68.0398 83.8182 67.1478 83.6978 66.2233C83.6972 66.2182 83.6965 66.2131 83.6958 66.208C83.6208 65.6336 83.5296 65.0556 83.4306 64.4968C83.4204 64.439 83.4101 64.3814 83.3997 64.3241L81.4672 64.5336ZM85.7481 75.7803C86.7806 74.9239 87.8333 73.7383 88.375 72.1656C88.7692 71.0214 88.842 69.7752 88.8375 68.7898C88.8327 67.7341 88.7324 66.618 88.5959 65.5701C88.4335 64.3227 88.2076 63.0796 87.9812 62.005C88.5106 58.9652 88.5116 54.238 87.9878 49.1676C87.5627 45.0531 86.8524 41.2956 86.019 38.5317C85.6084 37.17 85.131 35.9233 84.576 34.9761C84.3029 34.5099 83.9354 33.9839 83.4419 33.5583C82.9485 33.1326 82.084 32.6086 80.9477 32.7318L80.9429 32.7324L80.9364 32.7331L80.9315 32.7336L79.6833 32.8689C77.5113 26.38 74.0257 21.6295 69.5315 18.3561C68.7347 16.0668 67.5724 13.0327 66.3427 10.4405C65.6612 9.00403 64.9134 7.60521 64.1505 6.53036C63.7727 5.99815 63.3254 5.45046 62.8094 5.01129C62.3402 4.61197 61.494 4.02692 60.3609 4.02692C59.541 4.02692 58.8796 4.33612 58.4342 4.62229C57.9822 4.91269 57.6044 5.27354 57.2996 5.61173C56.6919 6.28611 56.129 7.14809 55.6253 8.02869C55.4612 8.31569 55.2971 8.61571 55.1339 8.92607C54.7222 8.04307 54.3019 7.19809 53.881 6.42551C53.2661 5.29703 52.5947 4.21895 51.889 3.38925C51.5364 2.97459 51.1112 2.5453 50.6124 2.20329C50.1252 1.86928 49.3936 1.5 48.482 1.5C47.5704 1.5 46.8387 1.86927 46.3516 2.20329C45.8528 2.5453 45.4276 2.97459 45.0749 3.38925C44.3693 4.21895 43.6978 5.29703 43.083 6.42551C42.6621 7.19809 42.2417 8.04307 41.8301 8.92607C41.6668 8.61571 41.5028 8.31569 41.3387 8.02869C40.835 7.14809 40.2721 6.28611 39.6643 5.61173C39.3596 5.27354 38.9818 4.91269 38.5298 4.62229C38.0844 4.33612 37.4229 4.02692 36.6031 4.02692C35.5028 4.02692 34.675 4.57903 34.2068 4.96743C33.6974 5.39002 33.258 5.91623 32.889 6.42507C32.1444 7.45195 31.4175 8.78748 30.7542 10.1626C29.5724 12.613 28.4445 15.5032 27.6308 17.7923C22.2277 21.0752 17.8435 26.0085 15.3578 32.8734L14.0668 32.7335L14.0623 32.7329L14.0568 32.7323L14.0523 32.7318C12.9159 32.6086 12.0515 33.1326 11.5581 33.5583C11.0646 33.9839 10.6971 34.5099 10.424 34.9761C9.86898 35.9233 9.39159 37.17 8.981 38.5317C8.14762 41.2956 7.43728 45.0531 7.0122 49.1676C6.58711 53.2823 6.51401 57.1084 6.76408 59.9887C6.88731 61.4082 7.09926 62.7276 7.44746 63.77C7.61887 64.2832 7.86933 64.8723 8.26136 65.3897C8.65171 65.905 9.38275 66.5983 10.5153 66.7211L11.7494 66.8549C11.7848 67.5946 11.8264 68.2868 11.8715 68.9297C11.5012 72.3394 11.727 76.2523 13.7458 79.6464C15.8753 83.2265 19.719 85.7698 25.6485 86.7634C32.0481 87.8359 36.5719 88.4194 39.9772 88.7268C41.6613 90.6052 43.1792 92.1693 44.2091 93.2014C45.9369 94.9328 48.6936 94.9328 50.4214 93.2014C51.439 92.1816 52.9331 90.6424 54.5931 88.7939C58.0648 88.5798 62.0338 88.2079 65.6103 87.6976C67.5799 87.4166 69.4595 87.0896 71.0859 86.7164C72.6707 86.3528 74.1712 85.9114 75.2911 85.3531C77.0337 84.4844 78.6063 83.4364 79.8847 82.0531L82.2504 81.1083C84.4848 80.2158 85.7944 78.0395 85.7481 75.7803Z" fill="#0E5F9A"/>
<path d="M16.2856 39.036C19.5073 21.4793 33.9041 15 48.5022 15C63.1004 15 75.1816 20.7477 78.7053 39.036C81.8086 55.1426 81.7256 68.2973 81.2222 73H14.7754C14.2721 68.994 13.0639 56.5928 16.2856 39.036Z" fill="#3E98D9"/>
<path d="M17.3283 58.0517C17.9443 55.5042 18.6119 42.6712 19.8768 36.5731C21.001 31.3946 28.0737 20.9192 47.3708 20.4451C66.6679 19.971 73.3785 30.1078 74.3217 35.2355C75.2649 40.3631 76.391 49.7923 77.3523 54.7806C82.8422 73.6413 81.4594 79.4847 74.1758 83.1157C70.0015 85.1967 55.6733 86.4719 48.9174 86.506C45.1189 86.5993 40.4763 86.7134 26.0616 84.2978C6.91956 81.09 16.5582 61.236 17.3283 58.0517Z" fill="url(#paint0_linear_7_122)"/>
<path d="M55.0127 50.9509C55.6132 56.3532 57.938 60.5012 63.4522 59.8069C68.9664 59.1126 70.3177 54.5017 69.7172 49.0994C69.1168 43.6971 65.1933 38.4279 61.1328 38.9392C57.0723 39.4504 54.4123 45.5486 55.0127 50.9509Z" fill="white"/>
<path d="M57.1842 50.5031C57.5721 53.9936 59.0742 56.6736 62.6369 56.225C66.1996 55.7764 67.0727 52.7973 66.6847 49.3069C66.2968 45.8164 63.7619 42.412 61.1384 42.7423C58.5148 43.0727 56.7962 47.0127 57.1842 50.5031Z" fill="#0F1626"/>
<path d="M39.9211 50.9509C39.3206 56.3532 36.9958 60.5012 31.4816 59.8069C25.9674 59.1126 24.6161 54.5017 25.2166 49.0994C25.817 43.6971 29.7404 38.4279 33.801 38.9392C37.8615 39.4504 40.5215 45.5486 39.9211 50.9509Z" fill="white"/>
<path d="M37.7496 50.5031C37.3617 53.9936 35.8596 56.6736 32.2969 56.225C28.7342 55.7764 27.8611 52.7973 28.249 49.3069C28.637 45.8164 31.1719 42.412 33.7954 42.7423C36.4189 43.0727 38.1376 47.0127 37.7496 50.5031Z" fill="#0F1626"/>
<path fill-rule="evenodd" clip-rule="evenodd" d="M31.0202 31.7821C29.5497 32.3495 28.2229 33.1478 27.4648 33.6998C27.1244 33.9476 26.6524 33.8658 26.4105 33.5171C26.1686 33.1685 26.2484 32.6849 26.5888 32.4371C27.4385 31.8185 28.8795 30.9529 30.4871 30.3325C32.0734 29.7203 33.9457 29.2983 35.5958 29.7236C36.0007 29.828 36.2464 30.2489 36.1445 30.6637C36.0426 31.0785 35.6317 31.3302 35.2268 31.2258C34.028 30.9168 32.512 31.2064 31.0202 31.7821ZM30.6331 35.4593C28.5259 36.2871 26.7241 37.6708 25.7257 38.6791C25.4283 38.9794 24.9496 38.9759 24.6565 38.6713C24.3633 38.3667 24.3667 37.8763 24.6641 37.576C25.7835 36.4454 27.7568 34.9302 30.0917 34.0129C32.4302 33.0943 35.2225 32.7438 37.8723 34.1144C38.245 34.3072 38.3946 34.7731 38.2064 35.1549C38.0182 35.5367 37.5634 35.69 37.1907 35.4972C35.054 34.3919 32.7369 34.6328 30.6331 35.4593Z" fill="#DAAB07"/>
<path fill-rule="evenodd" clip-rule="evenodd" d="M64.0858 31.7821C65.5562 32.3495 66.8831 33.1478 67.6412 33.6998C67.9816 33.9476 68.4536 33.8658 68.6955 33.5171C68.9374 33.1685 68.8575 32.6849 68.5172 32.4371C67.6675 31.8185 66.2265 30.9529 64.6188 30.3325C63.0326 29.7203 61.1602 29.2983 59.5102 29.7236C59.1053 29.828 58.8596 30.2489 58.9615 30.6637C59.0634 31.0785 59.4742 31.3302 59.8792 31.2258C61.078 30.9168 62.5939 31.2064 64.0858 31.7821ZM64.4728 35.4593C66.5801 36.2871 68.3819 37.6708 69.3803 38.6791C69.6776 38.9794 70.1563 38.9759 70.4495 38.6713C70.7426 38.3667 70.7392 37.8763 70.4419 37.576C69.3225 36.4454 67.3492 34.9302 65.0142 34.0129C62.6758 33.0943 59.8835 32.7438 57.2337 34.1144C56.861 34.3072 56.7114 34.7731 56.8996 35.1549C57.0878 35.5367 57.5425 35.69 57.9153 35.4972C60.052 34.3919 62.3691 34.6328 64.4728 35.4593Z" fill="#DAAB07"/>
<path d="M57.362 79.3211C58.0834 78.0972 60.4482 76.2414 62.1233 75.6493C64.7204 74.7314 70.6103 75.1904 71.9089 69.2237" stroke="#DAAB07" stroke-width="1.5" stroke-linecap="round"/>
<path d="M37.2686 79.3211C36.5472 78.0972 34.1823 76.2414 32.5073 75.6493C29.9102 74.7314 24.0203 75.1904 22.7217 69.2237" stroke="#DAAB07" stroke-width="1.5" stroke-linecap="round"/>
<path d="M63.4446 68.9629C63.4446 75.9898 52.5187 87.5604 48.6518 91.4355C47.9007 92.1881 46.7298 92.1881 45.9787 91.4355C42.1118 87.5604 31.1859 75.9898 31.1859 68.9629C31.1859 60.4251 38.4073 53.5038 47.3153 53.5038C56.2232 53.5038 63.4446 60.4251 63.4446 68.9629Z" fill="url(#paint1_linear_7_122)"/>
<mask id="mask0_7_122" style="mask-type:alpha" maskUnits="userSpaceOnUse" x="31" y="53" width="33" height="39">
<path d="M63.4446 68.9629C63.4446 75.9898 52.5187 87.5604 48.6518 91.4355C47.9007 92.1881 46.7298 92.1881 45.9787 91.4355C42.1118 87.5604 31.1859 75.9898 31.1859 68.9629C31.1859 60.4251 38.4073 53.5038 47.3153 53.5038C56.2232 53.5038 63.4446 60.4251 63.4446 68.9629Z" fill="url(#paint2_linear_7_122)"/>
</mask>
<g mask="url(#mask0_7_122)">
<g style="mix-blend-mode:multiply">
<path d="M28.1617 71.0595C34.938 80.5616 42.7823 89.0487 45.9167 92.3341C46.6826 93.1369 47.9479 93.1369 48.7138 92.3341C51.8483 89.0487 59.6926 80.5616 66.4689 71.0595C62.3451 76.1952 52.7412 86.4665 47.3153 86.4665C41.8893 86.4665 32.2854 76.1952 28.1617 71.0595Z" fill="#C4C4C4"/>
</g>
</g>
<ellipse opacity="0.4" cx="47.3153" cy="59.6999" rx="9.07275" ry="4.13077" fill="#FFF69D"/>
<path d="M48.482 4C46.063 4 41.9306 14.7012 40.1668 20.0518C45.6095 20.7277 53.5215 20.3334 56.7972 20.0518C55.0334 14.7012 50.901 4 48.482 4Z" fill="url(#paint3_linear_7_122)"/>
<path d="M60.3609 6.52692C58.2875 6.52692 54.7454 15.5818 53.2336 20.1092C57.8987 20.6811 64.6805 20.3475 67.4882 20.1092C65.9764 15.5818 62.4343 6.52692 60.3609 6.52692Z" fill="url(#paint4_linear_7_122)"/>
<path d="M36.6031 6.52692C34.5297 6.52692 30.9876 15.5818 29.4758 20.1092C34.1409 20.6811 40.9227 20.3475 43.7304 20.1092C42.2186 15.5818 38.6765 6.52692 36.6031 6.52692Z" fill="url(#paint5_linear_7_122)"/>
<path d="M14.1267 64.598C15.9724 64.7981 18.1397 58.4643 18.9675 50.4511C19.7954 42.4379 18.9703 35.7797 17.1246 35.5796L13.7828 35.2173L10.7849 64.2357L14.1267 64.598Z" fill="#0F1626"/>
<ellipse cx="2.80119" cy="14.5864" rx="2.80119" ry="14.5864" transform="matrix(0.994174 0.107785 -0.102764 0.994706 10.9979 34.9153)" fill="#313A52"/>
<path d="M80.8733 64.598C79.0277 64.7981 76.8604 58.4643 76.0325 50.4511C75.2047 42.4379 76.0298 35.7797 77.8754 35.5796L81.2173 35.2173L84.2152 64.2357L80.8733 64.598Z" fill="#0F1626"/>
<ellipse cx="2.80119" cy="14.5864" rx="2.80119" ry="14.5864" transform="matrix(-0.994174 0.107785 0.102764 0.994706 84.0021 34.9153)" fill="#313A52"/>
<path fill-rule="evenodd" clip-rule="evenodd" d="M83.6978 66.2233C83.457 64.3737 83.0485 62.4842 82.7477 61.3198L85.1069 60.6802C85.4283 61.9244 85.8598 63.9187 86.1168 65.8928C86.2453 66.8798 86.3333 67.885 86.3375 68.8013C86.3417 69.6936 86.2681 70.606 86.0113 71.3514C85.4928 72.8567 84.1729 73.9518 82.9951 74.681C81.7745 75.4368 80.4574 75.9517 79.5932 76.2026L78.9278 73.7973C79.6192 73.5966 80.7288 73.1631 81.7327 72.5415C82.7795 71.8934 83.4818 71.182 83.71 70.5195C83.8266 70.1811 83.9008 69.6106 83.8971 68.8131C83.8936 68.0397 83.8182 67.1481 83.6978 66.2233Z" fill="#313A52"/>
<path d="M72.5499 75.639C71.943 74.0446 72.7129 72.2481 74.2693 71.6265L78.0269 70.1257C79.5833 69.5041 81.337 70.2926 81.9438 71.8871L83.0426 74.774C83.6494 76.3685 82.8796 78.165 81.3232 78.7866L77.5656 80.2874C76.0092 80.909 74.2555 80.1204 73.6486 78.526L72.5499 75.639Z" fill="#313A52"/>
<mask id="mask1_7_122" style="mask-type:alpha" maskUnits="userSpaceOnUse" x="72" y="69" width="12" height="12">
<path d="M72.5499 75.6389C71.943 74.0445 72.7129 72.248 74.2693 71.6264L78.0269 70.1256C79.5833 69.5039 81.337 70.2925 81.9438 71.887L83.0426 74.7739C83.6494 76.3684 82.8796 78.1648 81.3232 78.7865L77.5656 80.2873C76.0092 80.9089 74.2555 80.1203 73.6486 78.5259L72.5499 75.6389Z" fill="#313A52"/>
</mask>
<g mask="url(#mask1_7_122)">
<path d="M79.0131 76.2301C76.9966 77.8828 73.8037 77.9516 72.4594 77.7795C72.4594 78.8123 76.4924 82.9439 80.5255 80.8781C83.752 79.2255 83.5503 74.3365 83.0462 72.0986C82.542 72.7872 81.0296 74.5775 79.0131 76.2301Z" fill="#0F1626"/>
</g>
<defs>
<linearGradient id="paint0_linear_7_122" x1="45.9143" y1="25.6458" x2="47.4107" y2="86.5554" gradientUnits="userSpaceOnUse">
<stop stop-color="#FBEE74"/>
<stop offset="1" stop-color="#EDDD44"/>
</linearGradient>
<linearGradient id="paint1_linear_7_122" x1="47.3153" y1="53.5038" x2="47.3153" y2="92.7461" gradientUnits="userSpaceOnUse">
<stop stop-color="#983232"/>
<stop offset="1" stop-color="#671B1B"/>
</linearGradient>
<linearGradient id="paint2_linear_7_122" x1="47.3153" y1="53.5038" x2="47.3153" y2="92.7461" gradientUnits="userSpaceOnUse">
<stop stop-color="#983232"/>
<stop offset="1" stop-color="#671B1B"/>
</linearGradient>
<linearGradient id="paint3_linear_7_122" x1="48.482" y1="4" x2="48.482" y2="20.425" gradientUnits="userSpaceOnUse">
<stop stop-color="#046CB8"/>
<stop offset="1" stop-color="#3E98D9"/>
</linearGradient>
<linearGradient id="paint4_linear_7_122" x1="60.3609" y1="6.52692" x2="60.3609" y2="20.425" gradientUnits="userSpaceOnUse">
<stop stop-color="#046CB8"/>
<stop offset="1" stop-color="#3E98D9"/>
</linearGradient>
<linearGradient id="paint5_linear_7_122" x1="36.6031" y1="6.52692" x2="36.6031" y2="20.425" gradientUnits="userSpaceOnUse">
<stop stop-color="#046CB8"/>
<stop offset="1" stop-color="#3E98D9"/>
</linearGradient>
</defs>
</svg>
