<svg width="96" height="96" viewBox="0 0 96 96" fill="none" xmlns="http://www.w3.org/2000/svg">
<path fill-rule="evenodd" clip-rule="evenodd" d="M49.2744 8.4203C39.5752 11.5161 19.318 23.394 14.2265 46.8148C12.2004 56.1352 13.4406 62.5735 16.2061 66.9799C11.2394 70.2426 9.58059 76.4484 9.37823 79.2814C16.9699 80.1852 31.3508 80.4773 36.8428 75.889C37.3047 75.8276 37.6776 75.7482 37.9434 75.6596C40.2983 77.0182 44.2274 78.6072 48.9494 79.4012C54.2941 84.2168 65.7315 87.4137 72.3234 88.6215C72.4656 88.0099 72.7952 87.1475 73.1865 86.124C74.5513 82.5541 76.6658 77.0232 74.1891 73.3305C86.7533 64.3068 87.2488 54.328 86.659 44.8918C86.0204 34.6739 69.4753 11.7307 49.7018 8.39149C49.5568 8.36701 49.4144 8.3756 49.2744 8.4203Z" fill="url(#paint0_radial_36_14)"/>
<path fill-rule="evenodd" clip-rule="evenodd" d="M9.75647 76.9315C10.4935 73.8073 12.3558 69.5092 16.206 66.98C13.4405 62.5735 12.2003 56.1352 14.2265 46.8149C19.318 23.3941 39.5752 11.5161 49.2744 8.42034C49.4144 8.37565 49.5568 8.36706 49.7017 8.39154C69.4753 11.7307 86.0204 34.6739 86.659 44.8919C87.2487 54.3281 86.7533 64.3069 74.189 73.3305C76.6658 77.0232 74.5513 82.5541 73.1865 86.124C72.7952 87.1476 72.4655 88.0099 72.3234 88.6215C65.7315 87.4138 54.2941 84.2168 48.9494 79.4012C44.2273 78.6073 40.2982 77.0183 37.9433 75.6597C37.6775 75.7483 37.3046 75.8277 36.8427 75.889C31.3507 80.4773 16.9698 80.1852 9.3782 79.2814C9.40181 78.9509 9.44525 78.5745 9.51146 78.1621C9.5728 77.7801 9.65369 77.3672 9.75647 76.9315ZM37.6948 78.2329C36.0517 79.4044 34.026 80.2105 31.9211 80.778C29.4911 81.4332 26.7825 81.8157 24.0735 82.0164C18.6582 82.4176 13.0084 82.1085 9.09708 81.6429C7.83619 81.4928 6.91566 80.3786 7.00613 79.112C7.12711 77.4183 7.66125 74.8795 8.84384 72.3006C9.7764 70.2669 11.155 68.117 13.1407 66.3452C10.7628 61.4376 10.0371 54.8912 11.9027 46.3097C17.2425 21.7464 38.4007 9.39466 48.5513 6.15483C49.069 5.9896 49.596 5.96189 50.0977 6.04663C60.7138 7.83939 70.2414 14.8249 77.1235 22.4712C80.586 26.3182 83.4453 30.404 85.4919 34.2246C87.5122 37.9961 88.8421 41.6975 89.0325 44.7436C89.3313 49.5248 89.3854 54.7657 87.61 60.0264C85.9622 64.909 82.8019 69.6352 77.1763 74.0601C77.8734 76.1129 77.7943 78.282 77.4728 80.1721C77.0436 82.6952 76.1044 85.1516 75.4361 86.8993L75.4078 86.9733C74.9886 88.0698 74.7358 88.7468 74.6397 89.16C74.3522 90.3968 73.1438 91.1895 71.8948 90.9607C68.4926 90.3374 63.8592 89.2056 59.3697 87.6042C55.1926 86.1142 50.9038 84.1364 47.8901 81.6288C43.7422 80.8593 40.1849 79.5232 37.6948 78.2329Z" fill="#B93A41"/>
<path d="M17.0703 66.4615C22.7111 63.3847 30.5312 65.1795 33.7362 66.4615L38.8642 72.8714C36.813 80.5633 18.3523 80.3497 9.37836 79.2814C9.59202 76.2901 11.4295 69.5383 17.0703 66.4615Z" fill="#308C60"/>
<mask id="mask0_36_14" style="mask-type:alpha" maskUnits="userSpaceOnUse" x="9" y="64" width="30" height="16">
<path d="M17.0703 66.4615C22.7111 63.3847 30.5312 65.1795 33.7362 66.4615L38.8642 72.8714C36.813 80.5633 18.3523 80.3497 9.37836 79.2814C9.59202 76.2901 11.4295 69.5383 17.0703 66.4615Z" fill="#308C60"/>
</mask>
<g mask="url(#mask0_36_14)">
<g style="mix-blend-mode:multiply">
<path d="M14.5063 66.6856L15.7883 65.4036L38.8642 75.6596L31.1722 79.5055C20.4035 78.4799 15.5747 70.5316 14.5063 66.6856Z" fill="#C4C4C4"/>
</g>
</g>
<path d="M52.8846 69.1778L52.8363 69.1817L46.0445 73.792C45.7333 81.7466 63.4342 86.9927 72.3236 88.6214C73.0025 85.7004 77.9589 77.0595 73.4779 72.4545C69.0176 67.8708 56.3942 68.8935 52.8846 69.1778Z" fill="#308C60"/>
<mask id="mask1_36_14" style="mask-type:alpha" maskUnits="userSpaceOnUse" x="46" y="68" width="30" height="21">
<path d="M52.8846 69.1778L52.8363 69.1817L46.0445 73.792C45.7333 81.7466 63.4342 86.9927 72.3236 88.6214C73.0025 85.7004 77.9589 77.0595 73.4779 72.4545C69.0176 67.8708 56.3942 68.8935 52.8846 69.1778Z" fill="#308C60"/>
</mask>
<g mask="url(#mask1_36_14)">
<g style="mix-blend-mode:multiply">
<path d="M50.402 81.4285L46.556 78.8645L74.1188 71.1725L76.0418 75.6595C67.3243 83.8643 55.3163 82.9241 50.402 81.4285Z" fill="#C4C4C4"/>
</g>
</g>
<path d="M14.2266 46.8148C19.3162 23.4026 39.5604 11.5248 49.2638 8.42372C49.411 8.37668 49.5608 8.36762 49.7131 8.39341C69.4817 11.7394 86.0206 34.6758 86.6591 44.8919C87.3001 55.1478 86.6591 66.0447 70.6342 75.6596C57.8143 83.3516 43.4987 78.8646 37.9434 75.6596C34.0975 76.9416 7.81664 76.3006 14.2266 46.8148Z" fill="url(#paint1_radial_36_14)"/>
<mask id="mask2_36_14" style="mask-type:alpha" maskUnits="userSpaceOnUse" x="13" y="8" width="74" height="72">
<path d="M14.2266 46.8148C19.3162 23.4026 39.5604 11.5248 49.2638 8.42372C49.411 8.37668 49.5608 8.36762 49.7131 8.39341C69.4817 11.7394 86.0206 34.6758 86.6591 44.8919C87.3001 55.1478 86.6591 66.0447 70.6342 75.6596C57.8143 83.3516 43.4987 78.8646 37.9434 75.6596C34.0975 76.9416 7.81664 76.3006 14.2266 46.8148Z" fill="url(#paint2_radial_36_14)"/>
</mask>
<g mask="url(#mask2_36_14)">
<path d="M38.9462 43.5764C35.4969 55.3654 36.4332 69.0773 37.5303 75.3689C37.5608 75.5437 37.4679 75.7104 37.3058 75.7824L32.191 78.0556C31.9869 78.1464 31.7486 78.0456 31.6775 77.8339C28.0872 67.1484 33.4378 52.3586 38.1351 43.203C38.3532 42.778 39.0804 43.118 38.9462 43.5764Z" fill="url(#paint3_linear_36_14)"/>
<path d="M9.37823 58.9937C16.6429 61.1304 31.8131 69.1214 34.3771 83.9925C27.1124 83.3515 11.9422 77.4544 9.37823 58.9937Z" fill="url(#paint4_linear_36_14)"/>
<path d="M79.2468 58.9937C80.7851 56.4297 85.0157 57.9254 86.9387 58.9937C86.9387 80.1466 42.71 96.1715 38.223 83.9925C33.7361 71.8136 45.274 64.7627 52.3249 64.7627C59.3759 64.7627 60.6579 68.6087 67.7088 71.8136C74.7598 75.0186 77.3238 62.1987 79.2468 58.9937Z" fill="url(#paint5_linear_36_14)"/>
<g style="mix-blend-mode:multiply" opacity="0.3">
<path d="M21.557 59.6348C16.9419 48.8661 24.762 29.0807 29.249 20.5341C9.24987 25.662 10.2328 53.4385 13.2241 66.6857C11.0875 67.5404 12.9677 71.3009 37.582 79.5056C62.1962 87.7104 79.4603 72.241 85.0156 63.4808C68.6061 78.8647 46.5559 77.1553 37.582 74.3777L36.941 70.5317C33.736 71.3864 26.1722 70.4035 21.557 59.6348Z" fill="#C4C4C4"/>
</g>
</g>
<path opacity="0.4" fill-rule="evenodd" clip-rule="evenodd" d="M52.3645 19.8859C53.7918 17.4397 56.9318 16.6137 59.378 18.041C64.6647 21.1256 75.8247 30.5405 78.5308 44.547C79.068 47.3276 77.2493 50.0173 74.4686 50.5546C71.688 51.0918 68.9983 49.2731 68.461 46.4925C66.5319 36.5074 58.1262 29.1846 54.2094 26.8993C51.7633 25.4721 50.9373 22.332 52.3645 19.8859Z" fill="#FFFCDF"/>
<defs>
<radialGradient id="paint0_radial_36_14" cx="0" cy="0" r="1" gradientUnits="userSpaceOnUse" gradientTransform="translate(56.8119 40.4) rotate(112.962) scale(41.0772 42.2445)">
<stop stop-color="#F8DBCB"/>
<stop offset="1" stop-color="#EE8B6C"/>
</radialGradient>
<radialGradient id="paint1_radial_36_14" cx="0" cy="0" r="1" gradientUnits="userSpaceOnUse" gradientTransform="translate(56.8119 40.4049) rotate(112.964) scale(41.0738 42.2439)">
<stop stop-color="#F8DBCB"/>
<stop offset="1" stop-color="#EE8B6C"/>
</radialGradient>
<radialGradient id="paint2_radial_36_14" cx="0" cy="0" r="1" gradientUnits="userSpaceOnUse" gradientTransform="translate(56.8119 40.4049) rotate(112.964) scale(41.0738 42.2439)">
<stop stop-color="#F8DBCB"/>
<stop offset="1" stop-color="#EE8B6C"/>
</radialGradient>
<linearGradient id="paint3_linear_36_14" x1="41.428" y1="60.2758" x2="15.1472" y2="49.3788" gradientUnits="userSpaceOnUse">
<stop stop-color="#CB5E41"/>
<stop offset="1" stop-color="#FFEBEC" stop-opacity="0"/>
</linearGradient>
<linearGradient id="paint4_linear_36_14" x1="48.1585" y1="57.578" x2="48.1585" y2="88.2068" gradientUnits="userSpaceOnUse">
<stop stop-color="#FFFECD"/>
<stop offset="1" stop-color="#FFEA7E"/>
</linearGradient>
<linearGradient id="paint5_linear_36_14" x1="48.1585" y1="57.578" x2="48.1585" y2="88.2068" gradientUnits="userSpaceOnUse">
<stop stop-color="#FFFECD"/>
<stop offset="1" stop-color="#FFEA7E"/>
</linearGradient>
</defs>
</svg>
