<svg width="96" height="96" viewBox="0 0 96 96" fill="none" xmlns="http://www.w3.org/2000/svg">
<path fill-rule="evenodd" clip-rule="evenodd" d="M58.1013 7.19738C59.746 9.05625 61.9135 12.7139 61.5047 17.2109C61.2686 19.8079 60.9756 22.0785 60.6911 23.8361C67.5011 26.0222 69.3848 30.2385 70.4764 34.0587C71.0298 35.9956 71.5278 38.0096 72.0653 40.1831L72.0654 40.1833L72.0654 40.1834C73.03 44.0841 74.1219 48.4992 75.8893 53.9063C78.6417 62.3265 78.8965 89.9928 50.6288 89.9928C15.1386 89.9928 15.6919 59.8098 22.9625 51.5005C25.6054 48.48 27.4781 46.5261 28.9524 44.9878C32.175 41.6252 33.4944 40.2486 36.7956 34.0587C41.4458 25.3396 47.2196 21.1148 57.3746 23.013C57.8204 19.4984 57.4154 15.4021 54.5275 13.4685C54.4625 13.4525 54.3979 13.4336 54.3336 13.4119C52.7604 12.8796 52.0348 10.8232 52.713 8.8188C53.3912 6.8144 55.2163 5.62104 56.7896 6.15334C56.9677 6.2136 57.1349 6.2934 57.2905 6.39045L57.2946 6.38499C57.3055 6.39454 57.3165 6.40422 57.3275 6.41403C57.6344 6.61321 57.8944 6.88039 58.1013 7.19738Z" fill="#4E5800"/>
<path fill-rule="evenodd" clip-rule="evenodd" d="M72.0653 40.1833C73.03 44.0841 74.1218 48.4992 75.8892 53.9063C78.6416 62.3265 78.8964 89.9928 50.6287 89.9928C15.1386 89.9928 15.6919 59.8097 22.9624 51.5005C25.6054 48.4799 27.478 46.526 28.9523 44.9877C32.1749 41.6252 33.4943 40.2486 36.7956 34.0587C40.9702 26.2313 46.0504 22.0259 54.393 22.621C55.3433 22.6888 56.336 22.8189 57.3746 23.013C57.4994 22.0283 57.5575 20.998 57.513 19.9823C57.3985 17.3728 56.6062 14.8603 54.5275 13.4685C54.4625 13.4525 54.3978 13.4336 54.3336 13.4119C52.7603 12.8796 52.0348 10.8232 52.713 8.81876C53.3911 6.81437 55.2163 5.621 56.7895 6.1533C56.9674 6.21351 57.1345 6.29322 57.29 6.39014C57.2898 6.39005 57.2901 6.39023 57.29 6.39014L57.2945 6.38496L57.3275 6.414C57.3451 6.42546 57.3626 6.43714 57.38 6.44904C57.4368 6.48803 57.4919 6.5294 57.5453 6.57301C57.5733 6.59589 57.6008 6.61938 57.6278 6.64348C57.8073 6.8033 57.9657 6.98963 58.1012 7.19734C58.465 7.60848 58.8543 8.10761 59.2357 8.68435C60.5787 10.7152 61.823 13.7085 61.5046 17.2109C61.2685 19.8079 60.9756 22.0785 60.691 23.8361C67.501 26.0222 69.3847 30.2385 70.4763 34.0587C71.0297 35.9956 71.5278 38.0098 72.0653 40.1833ZM74.9827 39.4539L74.9846 39.4612C75.9482 43.3581 77.0176 47.6793 78.7476 52.9719C80.3124 57.7591 81.1032 67.5059 77.6911 76.2052C75.956 80.6286 73.095 84.8764 68.6082 88.0051C64.1128 91.1398 58.2018 93 50.6287 93C41.3336 93 34.1386 91.0222 28.7388 87.7103C23.32 84.3869 19.8803 79.8228 17.9632 74.9669C16.0594 70.1447 15.668 65.0722 16.2451 60.6327C16.8142 56.2548 18.3699 52.1824 20.6992 49.5203C23.3871 46.4483 25.2969 44.4556 26.7804 42.9078C28.4111 41.2063 29.4166 40.1518 30.4324 38.7875C31.4468 37.4251 32.5203 35.6845 34.1421 32.6436C36.5934 28.0475 39.5313 24.2597 43.513 21.9524C46.7116 20.0989 50.3399 19.3393 54.4758 19.6128C54.4364 19.1676 54.3705 18.7423 54.2759 18.3453C54.0268 17.3005 53.6227 16.6098 53.1172 16.1688C49.5865 14.7982 48.9068 10.6851 49.8644 7.85495C50.8444 4.95862 54.0028 2.03573 57.7533 3.30473C58.0572 3.40754 58.3473 3.53577 58.6221 3.68662C58.8021 3.77518 58.9739 3.88207 59.1345 4.00637C59.6737 4.38589 60.1219 4.8472 60.4812 5.35104C62.4413 7.62718 64.9978 12.0011 64.4995 17.4832C64.3542 19.0816 64.1873 20.5648 64.0129 21.892C66.6528 23.0841 68.6103 24.642 70.067 26.4444C71.9013 28.7142 72.781 31.179 73.3678 33.2325C73.9361 35.2213 74.445 37.2793 74.9771 39.431L74.9827 39.4539Z" fill="#4E5800"/>
<path d="M58.4475 23.2327C67.1083 25.1573 69.2734 29.8485 70.4764 34.0586C72.023 39.4716 72.2806 45.9671 75.8893 53.9062C79.498 61.8453 78.8965 89.9927 50.6288 89.9927C15.1386 89.9927 15.6919 59.8097 22.9625 51.5004C31.3826 41.8774 31.9841 43.0803 36.7956 34.0586C41.6072 25.037 47.6216 20.8269 58.4475 23.2327Z" fill="url(#paint0_radial_36_11)"/>
<mask id="mask0_36_11" style="mask-type:alpha" maskUnits="userSpaceOnUse" x="19" y="22" width="59" height="68">
<path d="M58.4475 23.2327C67.1083 25.1573 69.2734 29.8485 70.4764 34.0586C72.023 39.4716 72.2806 45.9671 75.8893 53.9062C79.498 61.8453 78.8965 89.9927 50.6288 89.9927C15.1386 89.9927 15.6919 59.8097 22.9625 51.5004C31.3826 41.8774 31.9841 43.0803 36.7956 34.0586C41.6072 25.037 47.6216 20.8269 58.4475 23.2327Z" fill="url(#paint1_radial_36_11)"/>
</mask>
<g mask="url(#mask0_36_11)">
<path d="M52.0313 25.0247C49.4811 23.3644 45.1567 23.5197 43.3133 23.8048C52.1365 18.1963 63.8166 22.7363 68.5538 25.7073C66.2795 25.3891 62.4749 27.0757 59.9052 27.4428C55.6952 28.0442 55.2191 27.1001 52.0313 25.0247Z" fill="url(#paint2_linear_36_11)"/>
<g style="mix-blend-mode:multiply" opacity="0.3">
<path d="M37.0506 80.3696C20.2102 69.3031 28.4299 46.0874 34.6448 35.8629C8.18142 48.4932 12.9928 90.5941 41.8621 93.6013C64.9574 96.0071 75.5428 82.1739 77.9486 74.9566C71.3327 81.372 53.8909 91.4361 37.0506 80.3696Z" fill="#C4C4C4"/>
</g>
</g>
<path d="M57.2946 6.38489L55.4902 8.79065L53.6859 13.0007C58.9786 15.4065 57.6999 23.8341 56.2965 27.4428C57.2588 27.9239 59.1032 27.6432 59.9052 27.4428C60.3061 26.4404 61.0235 22.5035 61.5047 17.2108C61.9858 11.9182 58.8984 7.78825 57.2946 6.38489Z" fill="url(#paint3_linear_36_11)"/>
<ellipse cx="55.5616" cy="9.78254" rx="3.00721" ry="3.83139" transform="rotate(18.6933 55.5616 9.78254)" fill="#B66919"/>
<ellipse cx="58.6793" cy="38.1293" rx="7.89702" ry="7.12005" transform="rotate(4.19925 58.6793 38.1293)" fill="#FFF6A2" fill-opacity="0.4"/>
<ellipse cx="53.0569" cy="68.1483" rx="12.7905" ry="11.5321" transform="rotate(4.19925 53.0569 68.1483)" fill="#FFF6A2" fill-opacity="0.2"/>
<g opacity="0.5">
<g style="mix-blend-mode:multiply">
<circle cx="44.2678" cy="32.8558" r="1.20288" fill="#C9DB45"/>
</g>
<g style="mix-blend-mode:multiply">
<circle cx="37.0505" cy="46.0875" r="1.20288" fill="#C9DB45"/>
</g>
<g style="mix-blend-mode:multiply">
<circle cx="44.2678" cy="40.0731" r="1.20288" fill="#C9DB45"/>
</g>
<g style="mix-blend-mode:multiply">
<circle cx="70.7312" cy="60.5222" r="1.20288" fill="#C9DB45"/>
</g>
<g style="mix-blend-mode:multiply">
<circle cx="65.9197" cy="67.7395" r="1.20288" fill="#C9DB45"/>
</g>
<g style="mix-blend-mode:multiply">
<circle cx="70.7312" cy="71.3481" r="1.20288" fill="#C9DB45"/>
</g>
<g style="mix-blend-mode:multiply">
<circle cx="29.8331" cy="71.3481" r="1.20288" fill="#C9DB45"/>
</g>
<g style="mix-blend-mode:multiply">
<circle cx="34.6447" cy="78.5654" r="1.20288" fill="#C9DB45"/>
</g>
<g style="mix-blend-mode:multiply">
<circle cx="28.6303" cy="77.3625" r="1.20288" fill="#C9DB45"/>
</g>
</g>
<defs>
<radialGradient id="paint0_radial_36_11" cx="0" cy="0" r="1" gradientUnits="userSpaceOnUse" gradientTransform="translate(56.898 44.8846) rotate(107.526) scale(47.9346 41.5403)">
<stop stop-color="#DCED56"/>
<stop offset="1" stop-color="#849906"/>
</radialGradient>
<radialGradient id="paint1_radial_36_11" cx="0" cy="0" r="1" gradientUnits="userSpaceOnUse" gradientTransform="translate(56.898 44.8846) rotate(107.526) scale(47.9346 41.5403)">
<stop stop-color="#DCED56"/>
<stop offset="1" stop-color="#9FB038"/>
</radialGradient>
<linearGradient id="paint2_linear_36_11" x1="56.4067" y1="21.3743" x2="55.5733" y2="27.3307" gradientUnits="userSpaceOnUse">
<stop offset="0.416188" stop-color="#829400" stop-opacity="0"/>
<stop offset="1" stop-color="#6F7F00"/>
</linearGradient>
<linearGradient id="paint3_linear_36_11" x1="57.6204" y1="6.38489" x2="57.6204" y2="27.7084" gradientUnits="userSpaceOnUse">
<stop stop-color="#8E4901"/>
<stop offset="1" stop-color="#703900"/>
</linearGradient>
</defs>
</svg>
