<svg width="96" height="96" viewBox="0 0 96 96" fill="none" xmlns="http://www.w3.org/2000/svg">
<g clip-path="url(#clip0_26_56)">
<path fill-rule="evenodd" clip-rule="evenodd" d="M28.77 8.07724C29.0414 4.4948 32.1657 1.81072 35.7481 2.0822L84.6715 5.7896C88.2539 6.06108 90.938 9.18531 90.6665 12.7678L85.2189 84.6552C84.9474 88.2376 81.8232 90.9217 78.2408 90.6502L73.5014 90.2911C72.7422 90.6661 71.897 90.8972 71.0027 90.9472L22.5815 93.6545C19.0199 93.8536 15.9712 91.1278 15.7721 87.5662L11.7941 16.4166C11.5949 12.855 14.3208 9.80635 17.8824 9.60722L28.6999 9.00241L28.77 8.07724ZM31.0271 11.3762L31.2628 8.26615C31.43 6.06047 33.3535 4.40791 35.5592 4.57505L84.4826 8.28245C86.6883 8.4496 88.3408 10.3732 88.1737 12.5788L82.7261 84.4663C82.5589 86.6719 80.6354 88.3245 78.4297 88.1574L72.9164 87.7396C72.3319 88.1505 71.629 88.4083 70.8631 88.4511L22.4419 91.1584C20.2589 91.2804 18.3902 89.6097 18.2682 87.4266L14.2902 16.2771C14.1681 14.094 15.8389 12.2254 18.0219 12.1033L31.0271 11.3762Z" fill="#B0ADAB"/>
<path d="M14.2902 16.277C14.1681 14.094 15.8389 12.2253 18.0219 12.1033L66.4431 9.39603C68.6262 9.27397 70.4948 10.9447 70.6169 13.1278L74.5949 84.2773C74.7169 86.4604 73.0462 88.329 70.8631 88.4511L22.4419 91.1583C20.2589 91.2804 18.3902 89.6096 18.2682 87.4266L14.2902 16.277Z" fill="#D6D6D6"/>
<path d="M31.2628 8.26608C31.43 6.0604 33.3536 4.40784 35.5592 4.57498L84.4826 8.28239C86.6883 8.44953 88.3409 10.3731 88.1737 12.5788L82.7261 84.4662C82.5589 86.6719 80.6354 88.3244 78.4297 88.1573L29.5063 84.4499C27.3006 84.2827 25.6481 82.3592 25.8152 80.1535L31.2628 8.26608Z" fill="#FFFAF8"/>
<path d="M35.9146 13.1374C36.0608 11.2074 37.6537 9.75455 39.4725 9.89237L79.8128 12.9494C81.6315 13.0872 82.9873 14.7635 82.8411 16.6934L78.0744 79.5949C77.9282 81.5249 76.3352 82.9777 74.5165 82.8399L34.1762 79.7829C32.3575 79.6451 31.0017 77.9688 31.1479 76.0388L35.9146 13.1374Z" fill="#E68F71"/>
<path d="M57.512 65.3817C62.1667 61.8569 69.7651 66.3102 71.2337 46.9307C71.3022 46.0265 71.2888 45.1351 71.1997 44.2636C59.9008 39.677 46.9349 40.8705 41.8643 42.0406C41.6448 42.8886 41.4972 43.7679 41.4287 44.6721C39.9601 64.0516 48.1429 60.7942 52.2133 64.9802C53.4169 66.2179 54.3472 66.9674 54.7251 66.9961C55.103 67.0247 56.1356 66.4239 57.512 65.3817Z" fill="#443321"/>
<path fill-rule="evenodd" clip-rule="evenodd" d="M67.0702 46.5533C68.0705 46.6233 68.8248 47.491 68.7548 48.4914C68.6937 49.365 68.4913 52.052 67.5288 54.4297C67.1526 55.3593 66.094 55.8078 65.1645 55.4316C64.2349 55.0553 63.7864 53.9968 64.1626 53.0672C64.8884 51.2741 65.0716 49.1033 65.1321 48.238C65.2021 47.2376 66.0698 46.4834 67.0702 46.5533Z" fill="#E68F71"/>
<circle cx="63.3038" cy="57.7442" r="1.84823" transform="rotate(4.3968 63.3038 57.7442)" fill="#E68F71"/>
<path fill-rule="evenodd" clip-rule="evenodd" d="M57.6732 31.0991C54.1785 29.2927 46.5127 26.864 42.5244 31.0221C38.474 35.2449 40.3516 39.1842 41.7966 40.626C43.7173 40.0002 49.4366 38.8966 57.0341 39.4494C64.6347 40.0467 70.1273 42.0011 71.9328 42.9097C73.5786 41.7021 76.0283 38.0908 72.6606 33.3059C69.3445 28.5943 61.4003 29.8399 57.6732 31.0991Z" fill="#FDD849"/>
<path d="M58.6672 31.0889C58.2397 31.7722 57.2209 31.695 56.9013 30.9551L55.8588 28.5412C55.5606 27.8509 56.1025 27.0908 56.8524 27.1476L59.2893 27.3323C60.0392 27.3891 60.4604 28.2222 60.0616 28.8597L58.6672 31.0889Z" fill="#FDD849"/>
<path fill-rule="evenodd" clip-rule="evenodd" d="M56.2116 37.7193C50.8145 36.5263 45.1987 37.6517 43.0873 38.3582C42.8438 38.4397 42.5804 38.3083 42.4989 38.0648C42.4174 37.8213 42.5488 37.5578 42.7923 37.4763C45.0095 36.7345 50.8027 35.5714 56.4123 36.8113C56.663 36.8667 56.8214 37.1149 56.766 37.3656C56.7105 37.6164 56.4623 37.7747 56.2116 37.7193Z" fill="#E68F71"/>
<path fill-rule="evenodd" clip-rule="evenodd" d="M54.0411 35.6208C49.9959 34.8386 45.8215 35.6902 44.2616 36.2082C44.0179 36.2891 43.7548 36.1572 43.6738 35.9135C43.5929 35.6698 43.7249 35.4066 43.9686 35.3257C45.6302 34.7739 49.9716 33.8867 54.2176 34.7078C54.4698 34.7565 54.6346 35.0004 54.5859 35.2526C54.5371 35.5047 54.2932 35.6695 54.0411 35.6208Z" fill="#E68F71"/>
<path fill-rule="evenodd" clip-rule="evenodd" d="M51.9163 33.5075C49.1001 32.963 46.1879 33.5569 45.1056 33.9163C44.8619 33.9972 44.5987 33.8653 44.5178 33.6215C44.4369 33.3778 44.5688 33.1147 44.8125 33.0337C45.9967 32.6405 49.0757 32.0111 52.0928 32.5945C52.3449 32.6433 52.5098 32.8872 52.461 33.1393C52.4123 33.3914 52.1684 33.5563 51.9163 33.5075Z" fill="#E68F71"/>
</g>
<defs>
<clipPath id="clip0_26_56">
<rect width="96" height="96" fill="white"/>
</clipPath>
</defs>
</svg>
