<svg width="96" height="96" viewBox="0 0 96 96" fill="none" xmlns="http://www.w3.org/2000/svg">
<path fill-rule="evenodd" clip-rule="evenodd" d="M43.1021 21.5815C42.5131 18.3786 41.7458 14.6109 40.933 11.3943C40.4272 9.39214 39.8824 7.51674 39.3265 6.10688C39.0547 5.41754 38.7326 4.71461 38.3465 4.14213C38.1544 3.85735 37.8793 3.50277 37.5023 3.19713C37.1276 2.89345 36.4767 2.5 35.5982 2.5C34.6518 2.5 33.9519 2.96926 33.6596 3.18188C33.2854 3.45408 32.947 3.78655 32.6572 4.10405C32.0694 4.74799 31.4338 5.60578 30.7889 6.5722C29.4868 8.52364 27.9724 11.1824 26.4942 14.1326C23.6837 19.7415 20.8256 26.7592 19.8772 32.2784C17.0651 35.954 15.5 40.518 15.5 45.9024C15.5 53.8038 17.7873 65.4756 22.8349 75.2461C27.8615 84.9759 36.0245 93.5 48 93.5C59.4241 93.5 67.5769 84.9377 72.7184 75.2728C77.9017 65.5293 80.5 53.8529 80.5 45.9024C80.5 41.0174 79.212 36.7995 76.8595 33.3042C76.1307 27.7808 73.2296 20.4943 70.3489 14.6603C68.83 11.5843 67.2596 8.79687 65.9084 6.74819C65.239 5.73316 64.5816 4.83542 63.9773 4.16351C63.6794 3.83235 63.3346 3.48836 62.9559 3.20748C62.6652 2.99194 61.9512 2.5 60.9824 2.5C60.1007 2.5 59.4483 2.89624 59.0739 3.20072C58.6968 3.50742 58.4217 3.86316 58.2295 4.14894C57.8431 4.72361 57.5204 5.42968 57.2478 6.12294C56.6903 7.5407 56.1437 9.42667 55.6362 11.4393C54.8234 14.663 54.0565 18.4337 53.469 21.6331C51.6863 21.4621 49.8587 21.3781 48 21.3781C46.3391 21.3781 44.7033 21.4452 43.1021 21.5815ZM55.5169 24.3953C53.1147 24.049 50.5958 23.8781 48 23.8781C45.6077 23.8781 43.2808 24.0233 41.0502 24.3171C39.8323 17.2455 37.3095 5 35.5982 5C33.5672 5 23.7638 22.9013 22.2432 33.3169C19.5488 36.6081 18 40.7885 18 45.9024C18 60.9623 26.8161 91 48 91C68.0301 91 78 60.9623 78 45.9024C78 41.2445 76.7151 37.361 74.4499 34.2185C73.402 23.9731 63.0734 5 60.9824 5C59.2648 5 56.7297 17.3362 55.5169 24.3953Z" fill="#C87100"/>
<path d="M35.5982 5C37.4027 5 40.1095 18.6157 41.2373 25.4236C41.6205 27.6316 28.615 33.7035 22.0644 36.4634C21.5004 27.0796 33.3425 5 35.5982 5Z" fill="url(#paint0_linear_17_49)"/>
<mask id="mask0_17_49" style="mask-type:alpha" maskUnits="userSpaceOnUse" x="22" y="5" width="20" height="32">
<path d="M35.5982 5C37.4027 5 40.1095 18.6157 41.2373 25.4236C41.6205 27.6316 28.615 33.7035 22.0644 36.4634C21.5004 27.0796 33.3425 5 35.5982 5Z" fill="url(#paint1_linear_17_49)"/>
</mask>
<g mask="url(#mask0_17_49)">
<path d="M35.2333 11.0719C36.6112 11.0719 38.6781 22.06 39.5393 27.5541C39.8319 29.336 29.9009 34.2361 24.8988 36.4634C24.4682 28.8905 33.5108 11.0719 35.2333 11.0719Z" fill="url(#paint2_linear_17_49)"/>
<g style="mix-blend-mode:multiply" opacity="0.2">
<path d="M20.9365 29.2876C26.8012 24.8716 36.1621 21.0077 41.8012 22.1117L42.929 25.9756L20.9365 37.5674V29.2876Z" fill="#9A4F01"/>
</g>
</g>
<path d="M60.9824 5C59.1779 5 56.4712 18.6157 55.3433 25.4236C54.9601 27.6316 67.9656 33.7035 74.5163 36.4634C75.0802 27.0796 63.2381 5 60.9824 5Z" fill="url(#paint3_linear_17_49)"/>
<mask id="mask1_17_49" style="mask-type:alpha" maskUnits="userSpaceOnUse" x="55" y="5" width="20" height="32">
<path d="M60.9824 5C59.1779 5 56.4712 18.6157 55.3433 25.4236C54.9601 27.6316 67.9656 33.7035 74.5163 36.4634C75.0802 27.0796 63.2381 5 60.9824 5Z" fill="url(#paint4_linear_17_49)"/>
</mask>
<g mask="url(#mask1_17_49)">
<path d="M61.3474 11.0719C59.9695 11.0719 57.9026 22.06 57.0414 27.5541C56.7488 29.336 66.6798 34.2361 71.6818 36.4634C72.1124 28.8905 63.0698 11.0719 61.3474 11.0719Z" fill="url(#paint5_linear_17_49)"/>
<g style="mix-blend-mode:multiply" opacity="0.2">
<path d="M75.6441 29.2876C69.7794 24.8716 60.4185 21.0077 54.7794 22.1117L53.6516 25.9756L75.6441 37.5674V29.2876Z" fill="#9A4F01"/>
</g>
</g>
<path d="M78 45.9024C78 60.9623 68.0301 91 48 91C26.8161 91 18 60.9623 18 45.9024C18 30.8426 31.4315 23.8781 48 23.8781C64.5685 23.8781 78 30.8426 78 45.9024Z" fill="url(#paint6_radial_17_49)"/>
<path opacity="0.4" d="M35.1429 73.1708C40.5 71.0732 47.4643 66.3537 59.7857 73.1708C56.1849 66.8393 46.2153 57.9752 35.1429 73.1708Z" fill="url(#paint7_linear_17_49)"/>
<ellipse cx="47.8751" cy="75.2683" rx="13.8036" ry="10.4878" fill="url(#paint8_radial_17_49)"/>
<ellipse cx="47.8604" cy="71.9362" rx="3.67704" ry="1.96357" fill="#41170E"/>
<path d="M40.218 63.3654C41.7017 62.4017 33.7469 51.3224 29.3674 44.3824C29.1273 44.002 28.629 44.1684 28.7427 44.5997C30.4937 51.2454 38.7344 64.329 40.218 63.3654Z" fill="#DE8611"/>
<path fill-rule="evenodd" clip-rule="evenodd" d="M28.6752 43.4936C29.199 43.3145 29.7307 43.5611 30.0055 43.9966C31.0261 45.614 32.2427 47.4586 33.4937 49.3553C33.5787 49.4842 33.6639 49.6133 33.7492 49.7427C35.087 51.7713 36.4503 53.8442 37.631 55.7317C38.8082 57.6135 39.8201 59.3365 40.4452 60.6607C40.7548 61.3165 40.9909 61.918 41.0927 62.4128C41.1432 62.6583 41.1716 62.9273 41.1294 63.1855C41.0853 63.4556 40.9514 63.7702 40.6327 63.9771C40.2817 64.2051 39.9016 64.169 39.6356 64.0858C39.3751 64.0043 39.1303 63.853 38.9142 63.6907C38.4761 63.3616 37.9831 62.8532 37.4672 62.2419C36.4261 61.0085 35.1808 59.2223 33.9392 57.2165C31.4639 53.218 28.9199 48.2119 28.0164 44.7831C27.9516 44.5369 27.9591 44.2641 28.0824 44.0126C28.2057 43.7612 28.4222 43.58 28.6752 43.4936ZM30.6398 47.7296C31.8055 50.5011 33.5133 53.6953 35.222 56.4556C36.4449 58.431 37.6475 60.1504 38.6235 61.3067C38.9506 61.6942 39.2403 62.0041 39.4869 62.2354C39.3935 61.9696 39.2598 61.6498 39.0836 61.2767C38.4977 60.0356 37.5253 58.3744 36.3518 56.4984C35.1819 54.6281 33.8281 52.5697 32.4889 50.539C32.4028 50.4084 32.3168 50.2779 32.2308 50.1476C31.6914 49.3298 31.1564 48.5187 30.6398 47.7296Z" fill="#DE8611"/>
<path d="M55.3304 63.3654C53.8467 62.4017 61.8015 51.3224 66.181 44.3824C66.4211 44.002 66.9194 44.1684 66.8057 44.5997C65.0547 51.2454 56.814 64.329 55.3304 63.3654Z" fill="#DE8611"/>
<path fill-rule="evenodd" clip-rule="evenodd" d="M66.8733 43.4936C66.3494 43.3145 65.8178 43.5611 65.543 43.9966C64.5223 45.614 63.3057 47.4586 62.0547 49.3553C61.9697 49.4842 61.8845 49.6133 61.7992 49.7427C60.4615 51.7713 59.0981 53.8442 57.9174 55.7317C56.7402 57.6135 55.7284 59.3365 55.1032 60.6607C54.7936 61.3165 54.5575 61.918 54.4558 62.4128C54.4053 62.6583 54.3769 62.9273 54.419 63.1855C54.4631 63.4556 54.5971 63.7702 54.9157 63.9771C55.2668 64.2051 55.6468 64.169 55.9129 64.0858C56.1733 64.0043 56.4182 63.853 56.6342 63.6907C57.0724 63.3616 57.5654 62.8532 58.0813 62.2419C59.1224 61.0085 60.3676 59.2223 61.6092 57.2165C64.0845 53.218 66.6286 48.2119 67.532 44.7831C67.5969 44.5369 67.5893 44.2641 67.466 44.0126C67.3427 43.7612 67.1262 43.58 66.8733 43.4936ZM64.9087 47.7296C63.7429 50.5011 62.0351 53.6953 60.3264 56.4556C59.1035 58.431 57.9009 60.1504 56.9249 61.3067C56.5978 61.6942 56.3081 62.0041 56.0615 62.2354C56.1549 61.9696 56.2887 61.6498 56.4648 61.2767C57.0507 60.0356 58.0231 58.3744 59.1966 56.4984C60.3666 54.6281 61.7204 52.5697 63.0595 50.539C63.1456 50.4084 63.2317 50.2779 63.3176 50.1476C63.857 49.3298 64.392 48.5187 64.9087 47.7296Z" fill="#DE8611"/>
<path d="M40.218 63.0508C41.7017 62.0872 33.7469 51.0078 29.3674 44.0678C29.1273 43.6874 28.629 43.8538 28.7427 44.2852C30.4937 50.9308 38.7344 64.0144 40.218 63.0508Z" fill="#41170E"/>
<path d="M55.3304 63.0508C53.8467 62.0872 61.8015 51.0078 66.181 44.0678C66.4211 43.6874 66.9194 43.8538 66.8057 44.2852C65.0547 50.9308 56.814 64.0144 55.3304 63.0508Z" fill="#41170E"/>
<defs>
<linearGradient id="paint0_linear_17_49" x1="31.6452" y1="5" x2="31.6452" y2="36.4634" gradientUnits="userSpaceOnUse">
<stop stop-color="#FFCA5E"/>
<stop offset="1" stop-color="#F7910D"/>
</linearGradient>
<linearGradient id="paint1_linear_17_49" x1="31.6452" y1="5" x2="31.6452" y2="36.4634" gradientUnits="userSpaceOnUse">
<stop stop-color="#FFCA5E"/>
<stop offset="1" stop-color="#F7910D"/>
</linearGradient>
<linearGradient id="paint2_linear_17_49" x1="32.2148" y1="11.0719" x2="32.2148" y2="36.4634" gradientUnits="userSpaceOnUse">
<stop stop-color="#FFCA5E"/>
<stop offset="0.0001" stop-color="#FFB4CF"/>
<stop offset="1" stop-color="#D86452"/>
</linearGradient>
<linearGradient id="paint3_linear_17_49" x1="64.9354" y1="5" x2="64.9354" y2="36.4634" gradientUnits="userSpaceOnUse">
<stop stop-color="#FFCA5E"/>
<stop offset="1" stop-color="#F7910D"/>
</linearGradient>
<linearGradient id="paint4_linear_17_49" x1="64.9354" y1="5" x2="64.9354" y2="36.4634" gradientUnits="userSpaceOnUse">
<stop stop-color="#FFCA5E"/>
<stop offset="1" stop-color="#F7910D"/>
</linearGradient>
<linearGradient id="paint5_linear_17_49" x1="64.3659" y1="11.0719" x2="64.3659" y2="36.4634" gradientUnits="userSpaceOnUse">
<stop stop-color="#FFCA5E"/>
<stop offset="0.0001" stop-color="#FFB4CF"/>
<stop offset="1" stop-color="#D86452"/>
</linearGradient>
<radialGradient id="paint6_radial_17_49" cx="0" cy="0" r="1" gradientUnits="userSpaceOnUse" gradientTransform="translate(48 35.939) rotate(90) scale(55.061 49.2187)">
<stop stop-color="#FBB615"/>
<stop offset="1" stop-color="#F78F0C"/>
</radialGradient>
<linearGradient id="paint7_linear_17_49" x1="47.4643" y1="64.7805" x2="47.4643" y2="73.1708" gradientUnits="userSpaceOnUse">
<stop stop-color="#B66919"/>
<stop offset="0.791211" stop-color="#B66919" stop-opacity="0"/>
</linearGradient>
<radialGradient id="paint8_radial_17_49" cx="0" cy="0" r="1" gradientUnits="userSpaceOnUse" gradientTransform="translate(47.8751 75.2683) rotate(90) scale(8.80976 11.3113)">
<stop offset="0.598958" stop-color="#4E2219"/>
<stop offset="0.838542" stop-color="#4E2219" stop-opacity="0"/>
</radialGradient>
</defs>
</svg>
