<svg width="96" height="96" viewBox="0 0 96 96" fill="none" xmlns="http://www.w3.org/2000/svg">
<g clip-path="url(#clip0_34_127)">
<path fill-rule="evenodd" clip-rule="evenodd" d="M56.8412 17.8312L55.089 19.6144L43.9875 8.70538C40.6917 5.46673 35.1425 6.80066 33.6787 11.1834L28.7482 25.9461C28.4848 26.7349 27.8464 27.341 27.0451 27.5632L12.0469 31.7229C7.59425 32.9578 5.97484 38.4305 9.03853 41.8896L19.3582 53.5409C19.9095 54.1634 20.1153 55.0193 19.9071 55.8244L17.4867 55.1985L7.16705 43.5472C2.8779 38.7045 5.14506 31.0427 11.3788 29.3138L26.3769 25.1542L26.377 25.1542L31.3075 10.3914C33.3567 4.25562 41.1257 2.38812 45.7398 6.92223L56.8412 17.8312ZM68.8568 68.1878L69.525 70.5969L84.5231 66.4372C90.7568 64.7084 93.024 57.0465 88.7348 52.2039L78.4152 40.5526L82.3119 25.4839C83.9316 19.2209 78.4298 13.4266 72.0914 14.7198L56.8412 17.8312L55.089 19.6144C55.6821 20.1972 56.5262 20.447 57.341 20.2808L72.5911 17.1694C77.1186 16.2456 81.0484 20.3845 79.8916 24.858L75.9948 39.9266C75.7866 40.7317 75.9924 41.5876 76.5437 42.2102L86.8634 53.8615C89.9271 57.3205 88.3077 62.7933 83.855 64.0282L68.8568 68.1878ZM68.8568 68.1878C68.0555 68.41 67.4171 69.0162 67.1537 69.8049L62.2232 84.5676C60.7594 88.9504 55.2102 90.2843 51.9144 87.0457L40.8129 76.1367C40.2198 75.5538 39.3757 75.3041 38.5609 75.4703L23.3108 78.5817C18.7833 79.5054 14.8535 75.3666 16.0103 70.893L19.9071 55.8244L17.4867 55.1985L13.59 70.2671C11.9703 76.5301 17.4721 82.3244 23.8105 81.0312L39.0607 77.9198L50.1621 88.8288C54.7762 93.3629 62.5452 91.4954 64.5944 85.3596L69.5249 70.5969L68.8568 68.1878Z" fill="#C4C4C4"/>
<path d="M33.6787 11.1834C35.1425 6.80069 40.6917 5.46676 43.9875 8.70541L55.089 19.6144C55.6821 20.1972 56.5262 20.447 57.341 20.2808L72.5911 17.1694C77.1186 16.2457 81.0484 20.3845 79.8916 24.8581L75.9948 39.9267C75.7866 40.7318 75.9924 41.5877 76.5437 42.2102L86.8634 53.8615C89.9271 57.3205 88.3077 62.7933 83.855 64.0282L68.8568 68.1878C68.0555 68.4101 67.4171 69.0162 67.1537 69.805L62.2232 84.5677C60.7594 88.9504 55.2102 90.2843 51.9144 87.0457L40.8129 76.1367C40.2198 75.5539 39.3757 75.3041 38.5609 75.4703L23.3108 78.5817C18.7833 79.5054 14.8535 75.3666 16.0103 70.8931L19.9071 55.8244C20.1153 55.0193 19.9095 54.1634 19.3582 53.5409L9.03853 41.8896C5.97484 38.4306 7.59425 32.9578 12.0469 31.7229L27.0451 27.5633C27.8464 27.341 28.4848 26.7349 28.7482 25.9462L33.6787 11.1834Z" fill="url(#paint0_radial_34_127)"/>
<path d="M51.9601 22.3591L41.0798 32.0329C38.8878 33.9818 38.6256 37.363 40.772 39.3621C50.0886 48.0393 58.6423 47.7019 63.7783 45.5039C65.8292 44.6262 66.4845 42.2212 65.7813 40.1042L60.6607 24.6891C59.4395 21.0126 54.8553 19.785 51.9601 22.3591Z" fill="url(#paint1_linear_34_127)"/>
<path d="M44.4663 72.7118L55.483 63.1937C57.7026 61.2761 58.0128 57.8991 55.895 55.8696C46.7028 47.0608 38.1451 47.2765 32.9784 49.4013C30.9152 50.2497 30.2258 52.6452 30.8989 54.7719L35.7997 70.2583C36.9685 73.9518 41.5348 75.2445 44.4663 72.7118Z" fill="url(#paint2_linear_34_127)"/>
</g>
<defs>
<radialGradient id="paint0_radial_34_127" cx="0" cy="0" r="1" gradientUnits="userSpaceOnUse" gradientTransform="translate(47.951 47.8756) rotate(76.4838) scale(41.951 37.1757)">
<stop offset="0.478692" stop-color="white"/>
<stop offset="1" stop-color="#E3E3E3"/>
</radialGradient>
<linearGradient id="paint1_linear_34_127" x1="55.1479" y1="51.2082" x2="57.0211" y2="22.5522" gradientUnits="userSpaceOnUse">
<stop offset="0.421397" stop-color="white"/>
<stop offset="0.931844" stop-color="#E3E3E3"/>
</linearGradient>
<linearGradient id="paint2_linear_34_127" x1="41.6891" y1="43.8203" x2="39.4085" y2="72.4468" gradientUnits="userSpaceOnUse">
<stop offset="0.421397" stop-color="white"/>
<stop offset="0.931844" stop-color="#E3E3E3"/>
</linearGradient>
<clipPath id="clip0_34_127">
<rect width="96" height="96" fill="white"/>
</clipPath>
</defs>
</svg>
