<svg width="96" height="96" viewBox="0 0 96 96" fill="none" xmlns="http://www.w3.org/2000/svg">
<path fill-rule="evenodd" clip-rule="evenodd" d="M84.6435 69.7952L84.6387 69.806C81.7388 76.2188 70.788 85.422 49.5723 85.422C23.7942 85.422 14.2661 76.7301 11.5941 69.6597C10.3253 66.3021 10.1198 60.2736 11.1894 53.7429C12.1739 47.7321 14.2953 40.9286 18.0417 34.8091C16.7995 33.564 15.6669 31.9764 14.9054 30.1921C13.745 27.4731 13.3738 24.0891 15.0885 20.7834C17.016 17.0674 19.3512 14.3262 22.2774 12.6055C25.2186 10.876 28.5092 10.3229 32.0771 10.5477C35.717 10.777 37.9127 13.2261 39.1108 15.6575C39.7718 16.9989 40.1998 18.453 40.464 19.8184C44.0576 19.0872 47.3126 18.8902 49.6269 18.9877C52.1083 18.99 54.4069 19.1499 56.532 19.4378C56.8269 18.0587 57.2938 16.5995 58.0072 15.2696C59.2403 12.9707 61.4033 10.7643 64.8414 10.5477C68.4093 10.3229 71.6999 10.876 74.6411 12.6055C77.5674 14.3262 79.9025 17.0674 81.83 20.7834C83.4536 23.9135 83.2081 27.1223 82.1868 29.765C81.4935 31.5587 80.4233 33.1594 79.2349 34.4372C88.4853 50.7284 87.0431 64.3527 84.6483 69.7845L84.6435 69.7952ZM76.0604 33.971C79.0021 31.6905 82.0538 26.6444 79.6108 21.9346C76.0468 15.0636 71.4137 12.6386 64.9986 13.0428C61.4113 13.2688 59.7046 16.6675 59.0022 19.8434C58.811 20.7079 58.6942 21.5558 58.6342 22.3188C57.841 22.1625 57.0165 22.0255 56.1597 21.9102C54.1456 21.639 51.9533 21.4877 49.5723 21.4877C47.4244 21.3922 44.2821 21.5777 40.7901 22.3037C39.9828 22.4715 39.1568 22.6682 38.3201 22.897C38.2868 22.1473 38.1961 21.2842 38.0274 20.387C37.4035 17.0678 35.713 13.2817 31.9199 13.0428C25.5048 12.6386 20.8717 15.0636 17.3077 21.9346C14.7604 26.8455 18.1872 32.1221 21.234 34.2479C21.2687 34.2722 21.3035 34.296 21.3381 34.3194C21.2266 34.4817 21.1164 34.6447 21.0075 34.8084C12.7795 47.1743 11.8839 63.3546 13.9327 68.7759C16.0711 74.4343 24.2682 82.922 49.5723 82.922C70.1324 82.922 79.9848 74.0302 82.3607 68.7759C84.4667 63.9993 86.0887 50.4416 76.0604 33.971Z" fill="#6F3700"/>
<path d="M64.9986 13.0427C59.8665 13.3661 58.5834 20.1831 58.5834 23.5512C65.9965 23.5512 72.3641 31.0958 74.6213 34.8681C77.8288 33.3861 82.462 27.4313 79.6108 21.9345C76.0468 15.0636 71.4137 12.6386 64.9986 13.0427Z" fill="url(#paint0_linear_11_0)"/>
<path d="M63.9955 18.7012C62.2848 20.9645 62.0948 24.4943 62.2136 25.9763L70.4107 30.8263C76.8258 28.8055 76.4694 24.3596 75.0438 21.9346C73.6182 19.5095 66.1339 15.872 63.9955 18.7012Z" fill="#FC888E"/>
<g style="mix-blend-mode:multiply" opacity="0.2">
<mask id="mask0_11_0" style="mask-type:alpha" maskUnits="userSpaceOnUse" x="58" y="13" width="23" height="22">
<path d="M64.9986 13.0427C59.8665 13.3661 58.5834 20.1831 58.5834 23.5512C65.9965 23.5512 72.3641 31.0958 74.6213 34.8681C77.8288 33.3861 82.462 27.4313 79.6108 21.9345C76.0468 15.0636 71.4137 12.6386 64.9986 13.0427Z" fill="#9A4F01"/>
</mask>
<g mask="url(#mask0_11_0)">
<path d="M78.7919 31.4449C74.3331 25.1434 68.452 21.6925 60.8486 21.513C59.1226 21.4723 55.9818 21.6321 54.8675 22.4589C59.9644 24.7415 72.8248 32.2636 75.9248 41.2531C78.1423 38.8575 81.0054 34.5732 78.7919 31.4449Z" fill="#7D4000"/>
</g>
</g>
<path d="M31.9199 13.0427C37.052 13.3661 38.3351 20.1831 38.3351 23.5512C30.922 23.5512 24.5544 31.0958 22.2972 34.8681C19.0897 33.3861 14.4565 27.4313 17.3077 21.9345C20.8717 15.0636 25.5048 12.6386 31.9199 13.0427Z" fill="url(#paint1_linear_11_0)"/>
<path d="M32.9229 18.7012C34.6336 20.9645 34.8237 24.4943 34.7049 25.9763L26.5078 30.8263C20.0927 28.8055 20.4491 24.3596 21.8746 21.9346C23.3002 19.5095 30.7845 15.872 32.9229 18.7012Z" fill="#FC888E"/>
<g style="mix-blend-mode:multiply" opacity="0.2">
<mask id="mask1_11_0" style="mask-type:alpha" maskUnits="userSpaceOnUse" x="16" y="13" width="23" height="22">
<path d="M31.9199 13.0427C37.052 13.3661 38.3351 20.1831 38.3351 23.5512C30.922 23.5512 24.5544 31.0958 22.2972 34.8681C19.0897 33.3861 14.4565 27.4313 17.3077 21.9345C20.8717 15.0636 25.5048 12.6386 31.9199 13.0427Z" fill="#9A4F01"/>
</mask>
<g mask="url(#mask1_11_0)">
<path d="M17.6994 33.3366C21.4794 26.1585 30.6026 21.6925 38.206 21.513C39.932 21.4723 39.655 22.105 40.7693 22.9318C35.6724 25.2144 24.0937 32.2636 20.9937 41.2531C18.7762 38.8574 15.8916 36.7697 17.6994 33.3366Z" fill="#7D4000"/>
</g>
</g>
<path d="M22.1298 33.2087C29.5428 23.1852 43.5136 21.2182 49.5723 21.4877C66.6793 21.4877 74.0448 29.3017 75.5892 33.2087C86.1385 50.0223 84.4991 63.9258 82.3607 68.7759C79.9848 74.0302 70.1324 82.922 49.5723 82.922C24.2682 82.922 16.0711 74.4343 13.9327 68.7759C11.7943 63.1175 12.8635 45.7381 22.1298 33.2087Z" fill="url(#paint2_linear_11_0)"/>
<ellipse cx="48.0457" cy="68.1422" rx="14.1481" ry="11.1422" fill="url(#paint3_radial_11_0)"/>
<ellipse cx="48.0306" cy="64.6022" rx="3.76881" ry="2.08609" fill="#41170E"/>
<path d="M24.2586 37.884C30.2917 31.5017 35.9699 30 48.7458 30C62.9413 30 70.2756 35.256 72.1684 37.884C82.4601 52.1504 77.8466 64.915 68.2646 64.915C58.6827 64.915 57.2631 56.6556 48.7458 56.6556C40.2286 56.6556 40.5834 63.4133 28.1624 64.915C15.7413 66.4167 15.0315 47.6452 24.2586 37.884Z" fill="#4E2219"/>
<path d="M39.9096 52.2035C39.0485 57.145 34.2305 60.905 29.7659 60.127C25.3012 59.3489 22.8804 54.3274 23.7415 49.386C24.6027 44.4445 28.9201 41.0694 33.3848 41.8474C37.8495 42.6255 40.7707 47.262 39.9096 52.2035Z" fill="#34140E"/>
<ellipse cx="32.4324" cy="47.7923" rx="7.9753" ry="10.2125" transform="rotate(6.91169 32.4324 47.7923)" fill="white"/>
<ellipse cx="33.1622" cy="46.6863" rx="5.36187" ry="7.32371" transform="rotate(6.91169 33.1622 46.6863)" fill="url(#paint4_linear_11_0)"/>
<path d="M56.3598 52.2035C57.2209 57.145 62.0389 60.905 66.5035 60.127C70.9682 59.3489 73.389 54.3274 72.5279 49.386C71.6667 44.4445 67.3493 41.0694 62.8846 41.8474C58.4199 42.6255 55.4987 47.262 56.3598 52.2035Z" fill="#34140E"/>
<ellipse cx="7.9753" cy="10.2125" rx="7.9753" ry="10.2125" transform="matrix(-0.992733 0.120339 0.120339 0.992733 70.5253 36.6943)" fill="white"/>
<ellipse cx="5.36187" cy="7.32371" rx="5.36187" ry="7.32371" transform="matrix(-0.992733 0.120339 0.120339 0.992733 67.5487 38.7706)" fill="url(#paint5_linear_11_0)"/>
<g style="mix-blend-mode:multiply" opacity="0.1">
<mask id="mask2_11_0" style="mask-type:alpha" maskUnits="userSpaceOnUse" x="13" y="21" width="71" height="62">
<path d="M22.1298 33.2087C29.5428 23.1852 43.5136 21.2182 49.5723 21.4877C66.6793 21.4877 74.0448 29.3017 75.5892 33.2087C86.1385 50.0223 84.4991 63.9258 82.3607 68.7759C79.9848 74.0302 70.1324 82.922 49.5723 82.922C24.2682 82.922 16.0711 74.4343 13.9327 68.7759C11.7943 63.1175 12.8635 45.7381 22.1298 33.2087Z" fill="#B66919"/>
</mask>
<g mask="url(#mask2_11_0)">
<path d="M55.8469 72.4458C23.2934 75.3333 0.404032 59.7327 -6.97144 51.5715C1.35728 74.3405 16.0671 95.5641 57.405 91.8974C90.4752 88.9641 105.344 56.9545 108.645 41.3163C104.61 50.4897 88.4005 69.5583 55.8469 72.4458Z" fill="#9E560A"/>
</g>
</g>
<defs>
<linearGradient id="paint0_linear_11_0" x1="69.5421" y1="13" x2="69.5421" y2="34.8681" gradientUnits="userSpaceOnUse">
<stop stop-color="#C87927"/>
<stop offset="1" stop-color="#9A4F01"/>
</linearGradient>
<linearGradient id="paint1_linear_11_0" x1="27.3764" y1="13" x2="27.3764" y2="34.8681" gradientUnits="userSpaceOnUse">
<stop stop-color="#C87927"/>
<stop offset="1" stop-color="#9A4F01"/>
</linearGradient>
<linearGradient id="paint2_linear_11_0" x1="48.8865" y1="21.513" x2="48.3771" y2="82.9212" gradientUnits="userSpaceOnUse">
<stop stop-color="#DB8935"/>
<stop offset="0.885417" stop-color="#B66919"/>
</linearGradient>
<radialGradient id="paint3_radial_11_0" cx="0" cy="0" r="1" gradientUnits="userSpaceOnUse" gradientTransform="translate(48.0457 68.1422) rotate(90) scale(9.35942 11.5936)">
<stop offset="0.598958" stop-color="#4E2219"/>
<stop offset="0.838542" stop-color="#4E2219" stop-opacity="0"/>
</radialGradient>
<linearGradient id="paint4_linear_11_0" x1="33.1622" y1="39.3626" x2="33.1622" y2="54.01" gradientUnits="userSpaceOnUse">
<stop stop-color="#214DBE"/>
<stop offset="1" stop-color="#0732A0"/>
</linearGradient>
<linearGradient id="paint5_linear_11_0" x1="5.36187" y1="0" x2="5.36187" y2="14.6474" gradientUnits="userSpaceOnUse">
<stop stop-color="#214DBE"/>
<stop offset="1" stop-color="#0732A0"/>
</linearGradient>
</defs>
</svg>
