<svg width="96" height="96" viewBox="0 0 96 96" fill="none" xmlns="http://www.w3.org/2000/svg">
<path fill-rule="evenodd" clip-rule="evenodd" d="M89.418 71.0745L89.4124 71.0857C86.0481 77.8063 73.3921 87.4219 48.8027 87.4219C18.85 87.4219 7.88284 78.3356 4.78526 70.9315C4.01059 69.0798 3.60352 66.5538 3.51741 63.7487C3.42988 60.8972 3.66916 57.581 4.3085 54.0549C5.4621 47.6925 7.94409 40.5089 12.3104 34.058C10.8781 32.7647 9.55487 31.0987 8.66069 29.2061C7.29795 26.3218 6.86056 22.7064 8.87356 19.2008C11.1316 15.2684 13.8392 12.4216 17.1682 10.6533C20.4939 8.88681 24.2124 8.31743 28.2851 8.54922C32.2177 8.77303 34.7067 11.173 36.1291 13.7805C36.9467 15.2793 37.461 16.9153 37.7662 18.4354C42.1295 17.5915 46.0901 17.3669 48.8522 17.4732C51.9162 17.4752 54.7362 17.6644 57.3257 18.0027C57.6684 16.4756 58.2281 14.8462 59.1033 13.3723C60.5599 10.9194 63.0016 8.76055 66.7149 8.54922C70.7876 8.31743 74.5061 8.88681 77.8318 10.6533C81.1608 12.4216 83.8684 15.2684 86.1264 19.2008C88.0312 22.5179 87.7442 25.946 86.5425 28.7546C85.7292 30.6556 84.4796 32.3362 83.1083 33.6661C93.9093 50.8682 92.2381 65.2966 89.4235 71.0632L89.418 71.0745ZM79.8033 33.1707C83.246 30.7597 86.8176 25.4249 83.9584 20.4457C79.7873 13.1816 74.3649 10.6179 66.8569 11.0452C62.5967 11.2876 60.6028 14.9838 59.8035 18.3829C59.6007 19.2454 59.4747 20.0888 59.4083 20.8518C58.6104 20.7099 57.7853 20.5829 56.9325 20.4726C54.4608 20.1529 51.7557 19.9732 48.8027 19.9732C46.2031 19.8688 42.359 20.0821 38.1047 20.9164C37.294 21.0754 36.4683 21.2569 35.6335 21.4631C35.5968 20.7141 35.4999 19.858 35.3228 18.9656C34.619 15.4202 32.6482 11.3016 28.1431 11.0452C20.6351 10.6179 15.2127 13.1816 11.0416 20.4457C8.54101 24.8004 10.9593 29.4271 13.9082 32.132C14.5153 32.6888 15.1448 33.1642 15.7586 33.539C15.2501 34.2077 14.7646 34.8877 14.3014 35.5769C5.66662 48.4245 4.78574 64.455 7.09157 69.9666C9.59423 75.9488 19.1878 84.9219 48.8027 84.9219C72.8653 84.9219 84.3961 75.5215 87.1768 69.9666C89.6416 64.9168 91.5399 50.5835 79.8033 33.1707Z" fill="#6F3700"/>
<path d="M66.8569 11.0452C60.8505 11.387 59.3489 18.594 59.3489 22.1548C68.0248 22.1548 75.4772 30.131 78.1189 34.1191C81.8729 32.5523 87.2953 26.2569 83.9584 20.4456C79.7873 13.1816 74.3649 10.6179 66.8569 11.0452Z" fill="url(#paint0_linear_1_1007)"/>
<path d="M65.683 17.0273C63.6809 19.4202 63.4584 23.1519 63.5974 24.7186L73.191 29.8461C80.699 27.7097 80.2819 23.0094 78.6134 20.4457C76.945 17.8819 68.1857 14.0363 65.683 17.0273Z" fill="#FC888E"/>
<g style="mix-blend-mode:multiply" opacity="0.2">
<mask id="mask0_1_1007" style="mask-type:alpha" maskUnits="userSpaceOnUse" x="59" y="11" width="26" height="24">
<path d="M66.8569 11.0452C60.8505 11.387 59.3489 18.594 59.3489 22.1548C68.0248 22.1548 75.4772 30.131 78.1189 34.1191C81.8729 32.5523 87.2953 26.2569 83.9584 20.4456C79.7873 13.1816 74.3649 10.6179 66.8569 11.0452Z" fill="#9A4F01"/>
</mask>
<g mask="url(#mask0_1_1007)">
<path d="M83 30.5C77.7817 23.8381 70.8986 20.1898 62 20C59.9799 19.9569 56.3041 20.1259 55 21C60.9651 23.4132 76.0164 31.3656 79.6445 40.8694C82.2398 38.3367 85.5906 33.8073 83 30.5Z" fill="#7D4000"/>
</g>
</g>
<path d="M28.143 11.0452C34.1494 11.387 35.651 18.594 35.651 22.1548C26.9751 22.1548 19.5228 30.131 16.8811 34.1191C13.1271 32.5523 7.70465 26.2569 11.0415 20.4456C15.2126 13.1816 20.6351 10.6179 28.143 11.0452Z" fill="url(#paint1_linear_1_1007)"/>
<path d="M29.3169 17.0273C31.3191 19.4202 31.5415 23.1519 31.4025 24.7186L21.809 29.8461C14.301 27.7097 14.7181 23.0094 16.3865 20.4457C18.055 17.8819 26.8143 14.0363 29.3169 17.0273Z" fill="#FC888E"/>
<g style="mix-blend-mode:multiply" opacity="0.2">
<mask id="mask1_1_1007" style="mask-type:alpha" maskUnits="userSpaceOnUse" x="10" y="11" width="26" height="24">
<path d="M28.143 11.0452C34.1494 11.387 35.651 18.594 35.651 22.1548C26.9751 22.1548 19.5228 30.131 16.8811 34.1191C13.1271 32.5523 7.70465 26.2569 11.0415 20.4456C15.2126 13.1816 20.6351 10.6179 28.143 11.0452Z" fill="#9A4F01"/>
</mask>
<g mask="url(#mask1_1_1007)">
<path d="M11.4999 32.5C15.9239 24.9112 26.6013 20.1898 35.5 20C37.5201 19.9569 37.1958 20.6259 38.5 21.5C32.5348 23.9131 18.9836 31.3656 15.3554 40.8694C12.7601 38.3367 9.38413 36.1294 11.4999 32.5Z" fill="#7D4000"/>
</g>
</g>
<path d="M16.6851 32.3647C25.361 21.7678 41.7118 19.6883 48.8027 19.9732C68.824 19.9732 77.4443 28.2342 79.2517 32.3647C91.5982 50.1402 89.6795 64.8391 87.1768 69.9666C84.3961 75.5215 72.8653 84.9219 48.8027 84.9219C19.1878 84.9219 9.59423 75.9488 7.09157 69.9666C4.5889 63.9845 5.84024 45.6109 16.6851 32.3647Z" fill="url(#paint2_linear_1_1007)"/>
<ellipse cx="47.016" cy="70.3939" rx="15.016" ry="10.6824" fill="url(#paint3_radial_1_1007)"/>
<ellipse cx="47" cy="67" rx="4" ry="2" fill="#41170E"/>
<path d="M19.356 37.0649C26.4469 29.8009 33.1207 28.0917 48.1367 28.0917C64.8211 28.0917 73.4414 34.0739 75.666 37.0649C87.7622 53.3021 82.3397 67.8301 71.0777 67.8301C59.8158 67.8301 58.1473 58.4296 48.1367 58.4296C38.126 58.4296 38.5431 66.1209 23.9442 67.8301C9.34534 69.5393 8.51109 48.1745 19.356 37.0649Z" fill="#4E2219"/>
<g style="mix-blend-mode:multiply" opacity="0.1">
<mask id="mask2_1_1007" style="mask-type:alpha" maskUnits="userSpaceOnUse" x="6" y="19" width="84" height="66">
<path d="M16.6851 32.3647C25.361 21.7678 41.7118 19.6883 48.8027 19.9732C68.824 19.9732 77.4443 28.2342 79.2517 32.3647C91.5982 50.1402 89.6795 64.8391 87.1768 69.9666C84.3961 75.5215 72.8653 84.9219 48.8027 84.9219C19.1878 84.9219 9.59423 75.9488 7.09157 69.9666C4.5889 63.9845 5.84024 45.6109 16.6851 32.3647Z" fill="#B66919"/>
</mask>
<g mask="url(#mask2_1_1007)">
<path d="M56.1462 73.8465C18.0469 76.8992 -8.74175 60.4062 -17.3737 51.7781C-7.62611 75.8496 9.58967 98.2873 57.9697 94.4109C96.6738 91.3097 114.076 57.469 117.939 40.9362C113.216 50.6344 94.2455 70.7938 56.1462 73.8465Z" fill="#9E560A"/>
</g>
</g>
<path d="M35.6618 54.3778C35.3896 59.6174 30.8599 64.1283 26.1258 63.8824C21.3917 63.6365 18.2459 58.7268 18.5181 53.4872C18.7903 48.2476 22.8487 44.1994 27.5828 44.4453C32.3169 44.6912 35.9339 49.1381 35.6618 54.3778Z" fill="#34140E"/>
<path d="M58.6186 54.3778C58.8908 59.6174 63.4205 64.1283 68.1546 63.8824C72.8887 63.6365 76.0345 58.7268 75.7623 53.4872C75.4901 48.2476 71.4317 44.1994 66.6976 44.4453C61.9635 44.6912 58.3465 49.1381 58.6186 54.3778Z" fill="#34140E"/>
<ellipse cx="27.3422" cy="50.7384" rx="8.34222" ry="10.6824" fill="white"/>
<ellipse cx="27.3422" cy="51.1656" rx="5.00533" ry="6.83671" fill="#214DBE"/>
<path d="M27.3422 40.056C22.7349 40.056 19 44.8387 19 50.7384C19 51.7767 19.1157 52.7803 19.3314 53.7295L34.2547 44.7563C32.7549 41.9201 30.2185 40.056 27.3422 40.056Z" fill="url(#paint4_linear_1_1007)"/>
<ellipse cx="8.34222" cy="10.6824" rx="8.34222" ry="10.6824" transform="matrix(-1 0 0 1 75.4432 40.056)" fill="white"/>
<ellipse cx="5.00533" cy="6.83671" rx="5.00533" ry="6.83671" transform="matrix(-1 0 0 1 72.1063 44.3289)" fill="#214DBE"/>
<path d="M67.101 40.056C71.7083 40.056 75.4432 44.8387 75.4432 50.7384C75.4432 51.7767 75.3276 52.7803 75.1118 53.7295L60.1885 44.7563C61.6883 41.9201 64.2247 40.056 67.101 40.056Z" fill="url(#paint5_linear_1_1007)"/>
<defs>
<linearGradient id="paint0_linear_1_1007" x1="72.1744" y1="11" x2="72.1744" y2="34.1191" gradientUnits="userSpaceOnUse">
<stop stop-color="#C87927"/>
<stop offset="1" stop-color="#9A4F01"/>
</linearGradient>
<linearGradient id="paint1_linear_1_1007" x1="22.8255" y1="11" x2="22.8255" y2="34.1191" gradientUnits="userSpaceOnUse">
<stop stop-color="#C87927"/>
<stop offset="1" stop-color="#9A4F01"/>
</linearGradient>
<linearGradient id="paint2_linear_1_1007" x1="48" y1="20" x2="47.5136" y2="84.9219" gradientUnits="userSpaceOnUse">
<stop stop-color="#DB8935"/>
<stop offset="0.885417" stop-color="#B66919"/>
</linearGradient>
<radialGradient id="paint3_radial_1_1007" cx="0" cy="0" r="1" gradientUnits="userSpaceOnUse" gradientTransform="translate(47.016 70.3939) rotate(90) scale(8.97318 12.3048)">
<stop offset="0.598958" stop-color="#4E2219"/>
<stop offset="0.838542" stop-color="#4E2219" stop-opacity="0"/>
</radialGradient>
<linearGradient id="paint4_linear_1_1007" x1="26.6273" y1="40.056" x2="26.6273" y2="53.7295" gradientUnits="userSpaceOnUse">
<stop stop-color="#DB8935"/>
<stop offset="1" stop-color="#AF6217"/>
</linearGradient>
<linearGradient id="paint5_linear_1_1007" x1="67.8159" y1="40.056" x2="67.8159" y2="53.7295" gradientUnits="userSpaceOnUse">
<stop stop-color="#DB8935"/>
<stop offset="1" stop-color="#AF6217"/>
</linearGradient>
</defs>
</svg>
