<svg width="96" height="96" viewBox="0 0 96 96" fill="none" xmlns="http://www.w3.org/2000/svg">
<path fill-rule="evenodd" clip-rule="evenodd" d="M41.9136 15.1728C43.9296 9.93323 46.6808 4 48.482 4C50.2832 4 53.0344 9.93323 55.0504 15.1728C56.7406 10.9595 58.9102 6.52692 60.3609 6.52692C62.2798 6.52692 65.4567 14.2828 67.118 19.0275C75.032 20.9025 79.8434 27.6557 82.0057 32.4072C83.2845 32.3844 84.4195 33.6549 84.6902 35.4229L87.9933 56.998C88.25 58.6747 87.6574 60.3468 86.5599 61.0425L85.9898 61.4039C86.2361 62.522 86.4912 63.872 86.6657 65.2126C86.7942 66.1997 86.8822 67.2048 86.8864 68.1212C86.8905 69.0135 86.817 69.9258 86.5602 70.6712C86.0431 72.1723 84.729 73.2655 83.5537 73.9948L83.5915 74.0939C84.1983 75.6883 83.4285 77.4848 81.8721 78.1064L78.8929 79.2963C77.7997 80.9031 76.2202 82.0966 74.1758 83.1157C70.7864 84.8054 60.7029 85.9638 53.4139 86.358C51.5223 88.5056 49.7843 90.3006 48.6518 91.4355C47.9007 92.1881 46.7298 92.1881 45.9787 91.4355C44.8396 90.2939 43.0879 88.4846 41.1834 86.3204C37.7689 86.0488 33.0704 85.4723 26.0617 84.2978C15.2764 82.4904 13.6277 75.3987 14.3815 68.9815C14.2947 67.787 14.2192 66.4069 14.1745 64.8535L13.5418 64.3736C13.5354 64.4067 13.5293 64.4387 13.5236 64.4695L8.11749 61.0425C7.02002 60.3468 6.42746 58.6747 6.68417 56.998L9.98723 35.4229C10.2611 33.6343 11.4196 32.3548 12.7167 32.4085L14.5745 32.4855C16.4875 28.0415 21.3924 20.9296 29.8436 19.0344C31.5042 14.2903 34.6833 6.52692 36.6031 6.52692C38.0538 6.52692 40.2234 10.9595 41.9136 15.1728ZM84.2588 69.8393C84.0586 70.4207 83.4931 71.0398 82.6502 71.6207L82.4927 71.2069C82.1844 70.3968 81.5799 69.7947 80.8558 69.4799C80.985 68.0459 81.115 66.3495 81.2108 64.4333L83.7872 62.8001C83.9596 63.6583 84.1247 64.6058 84.2467 65.5431C84.3671 66.4679 84.4424 67.3595 84.446 68.1329C84.4497 68.9304 84.3754 69.5009 84.2588 69.8393Z" fill="url(#paint0_linear_7_306)"/>
<path fill-rule="evenodd" clip-rule="evenodd" d="M8.11749 61.0425C7.02001 60.3468 6.42746 58.6747 6.68417 56.998L9.98723 35.4229C10.2611 33.6343 11.4196 32.3548 12.7167 32.4085L14.5745 32.4855C16.4875 28.0415 21.3924 20.9296 29.8436 19.0344C31.5042 14.2903 34.6833 6.52692 36.6031 6.52692C37.6764 6.52692 39.1433 8.9534 40.5184 11.9222C41.0019 12.966 41.474 14.0768 41.9136 15.1728C42.3311 14.0878 42.7801 12.9731 43.2456 11.8875C45.0283 7.73041 47.0538 4 48.482 4C49.9102 4 51.9357 7.73041 53.7184 11.8875C54.1839 12.9731 54.6329 14.0878 55.0504 15.1728C55.49 14.0768 55.9621 12.966 56.4456 11.9222C57.8207 8.9534 59.2876 6.52692 60.3609 6.52692C62.2798 6.52692 65.4567 14.2828 67.118 19.0275C75.032 20.9025 79.8434 27.6557 82.0057 32.4072C83.2845 32.3844 84.4195 33.6549 84.6902 35.4229L87.9933 56.998C88.25 58.6747 87.6574 60.3468 86.5599 61.0425L85.9898 61.4039C86.0538 61.6948 86.1185 62.0013 86.1822 62.3192C86.3634 63.2237 86.5366 64.2207 86.6657 65.2126C86.6664 65.2177 86.667 65.2228 86.6677 65.2279C86.7951 66.2101 86.8822 67.2096 86.8864 68.1212C86.8864 68.121 86.8864 68.1213 86.8864 68.1212C86.8904 68.9993 86.8192 69.8975 86.5721 70.6362C86.5682 70.6479 86.5642 70.6596 86.5602 70.6712C86.1162 71.9601 85.0847 72.9482 84.058 73.6635C83.8889 73.7813 83.7199 73.8917 83.5537 73.9948L83.5915 74.0939C84.1983 75.6883 83.4285 77.4848 81.8721 78.1064L78.8929 79.2963C77.7997 80.9031 76.2202 82.0966 74.1758 83.1157C70.7864 84.8054 60.7029 85.9638 53.4139 86.358C51.5223 88.5056 49.7843 90.3006 48.6518 91.4355C47.9007 92.1881 46.7298 92.1881 45.9787 91.4355C44.8396 90.2939 43.0879 88.4846 41.1834 86.3204C37.7689 86.0488 33.0704 85.4723 26.0617 84.2978C15.2764 82.4904 13.6277 75.3987 14.3815 68.9815C14.3571 68.6452 14.3335 68.2942 14.3113 67.9287C14.2547 66.9962 14.2066 65.9696 14.1745 64.8535L13.5418 64.3736C13.5354 64.4067 13.5293 64.4387 13.5236 64.4695L8.11749 61.0425ZM11.7239 66.2886L6.77901 63.154C4.57217 61.7551 3.86146 58.9156 4.21296 56.6196L7.51602 35.0446C7.87594 32.6936 9.65215 29.7794 12.8202 29.9107L13.0254 29.9192C15.3659 25.3792 20.161 19.2268 27.9359 16.9466C28.7451 14.7361 29.7936 12.1198 30.8814 9.90106C31.5269 8.58456 32.2341 7.3083 32.9615 6.32612C33.3223 5.83901 33.7543 5.33294 34.2574 4.926C34.7244 4.54826 35.5344 4.02692 36.6031 4.02692C37.423 4.02692 38.0844 4.33612 38.5298 4.62229C38.9818 4.91269 39.3596 5.27354 39.6644 5.61173C40.2721 6.28611 40.835 7.14809 41.3387 8.02869C41.5028 8.31569 41.6669 8.61571 41.8301 8.92606C42.2418 8.04307 42.6621 7.19809 43.083 6.42551C43.6978 5.29703 44.3693 4.21895 45.0749 3.38925C45.4276 2.97459 45.8528 2.5453 46.3516 2.20329C46.8387 1.86927 47.5704 1.5 48.482 1.5C49.3936 1.5 50.1253 1.86927 50.6124 2.20329C51.1112 2.5453 51.5364 2.97459 51.8891 3.38925C52.5947 4.21895 53.2662 5.29703 53.881 6.42551C54.3019 7.19809 54.7222 8.04307 55.1339 8.92606C55.2971 8.61571 55.4612 8.31569 55.6253 8.02869C56.129 7.14809 56.6919 6.28611 57.2997 5.61173C57.6044 5.27354 57.9822 4.91269 58.4342 4.62229C58.8796 4.33612 59.541 4.02692 60.3609 4.02692C61.4292 4.02692 62.2389 4.5478 62.7059 4.92538C63.2089 5.33209 63.6407 5.83786 64.0014 6.32465C64.7286 7.30617 65.4355 8.58156 66.0807 9.89718C67.1713 12.1211 68.2226 14.7452 69.0328 16.9596C76.5992 19.2956 81.3273 25.5092 83.727 30.2224C85.7326 31.0225 86.8787 33.198 87.1614 35.0446L90.4645 56.6196C90.7655 58.5861 90.2874 60.9512 88.7575 62.4685C88.9022 63.242 89.0374 64.065 89.1448 64.8899C89.2812 65.9378 89.3815 67.0539 89.3864 68.1096C89.3909 69.095 89.318 70.3413 88.9239 71.4854C88.3822 73.0581 87.3295 74.2437 86.297 75.1001C86.3433 77.3593 85.0338 79.5357 82.7993 80.4281L80.4828 81.3534C79.115 83.0882 77.3207 84.3414 75.2911 85.3531C74.1712 85.9114 72.6707 86.3528 71.0859 86.7164C69.4595 87.0896 67.5799 87.4166 65.6103 87.6976C62.0338 88.2079 58.0648 88.5798 54.5931 88.7939C52.9331 90.6424 51.439 92.1816 50.4214 93.2014C48.6936 94.9328 45.9369 94.9328 44.2091 93.2014C43.1792 92.1693 41.6613 90.6052 39.9772 88.7268C36.5719 88.4194 32.0481 87.8359 25.6485 86.7634C19.719 85.7698 15.8753 83.2265 13.7458 79.6464C11.727 76.2523 11.5012 72.3394 11.8715 68.9298C11.8151 68.1254 11.7642 67.2439 11.7239 66.2886ZM84.3677 69.3771C84.3382 69.5619 84.3013 69.716 84.2588 69.8393C84.2548 69.851 84.2507 69.8626 84.2464 69.8743C84.1398 70.1634 83.9438 70.4615 83.669 70.7592C83.4009 71.0496 83.058 71.3396 82.6502 71.6207L82.4927 71.2069C82.2615 70.5994 81.8637 70.1089 81.3739 69.7688C81.2105 69.6553 81.0369 69.5586 80.8558 69.4799C80.985 68.0459 81.115 66.3495 81.2108 64.4333L83.7872 62.8001C83.9554 63.6374 84.1166 64.5597 84.2377 65.4746C84.24 65.4923 84.2424 65.5101 84.2447 65.5278C84.2453 65.5329 84.246 65.538 84.2467 65.5431C84.367 66.4677 84.4424 67.3591 84.446 68.1324C84.446 68.1322 84.446 68.1326 84.446 68.1324C84.4483 68.6393 84.4192 69.055 84.3677 69.3771Z" fill="#0E5F9A"/>
<path d="M16.2856 39.036C19.5073 21.4793 33.9041 15 48.5022 15C63.1004 15 75.9763 19.953 79.5 38.2413C82.6034 54.3478 81.0034 68.2973 80.5 73H14.7755C14.2721 68.994 13.064 56.5928 16.2856 39.036Z" fill="#3E98D9"/>
<path d="M28.5 23.1379L30 19C20.4 21.069 15.3333 29.8621 14 34L19 32.9655C20.6 28.4138 23 26.2414 28.5 23.1379Z" fill="#313A52"/>
<path d="M68.5 23.4138L67 19C76.6 21.2069 81.6667 30.5862 83 35L78 33.8966C76.4 29.0414 74 26.7241 68.5 23.4138Z" fill="#313A52"/>
<path d="M48.482 4C46.063 4 41.9306 14.7012 40.1667 20.0518C45.6094 20.7277 53.5215 20.3334 56.7972 20.0518C55.0334 14.7012 50.9009 4 48.482 4Z" fill="url(#paint1_linear_7_306)"/>
<path d="M60.3609 6.52692C58.2875 6.52692 54.7454 15.5818 53.2336 20.1092C57.8987 20.6811 64.6805 20.3475 67.4882 20.1092C65.9764 15.5818 62.4343 6.52692 60.3609 6.52692Z" fill="url(#paint2_linear_7_306)"/>
<path d="M36.6031 6.52692C34.5297 6.52692 30.9876 15.5818 29.4758 20.1092C34.1409 20.6811 40.9227 20.3475 43.7304 20.1092C42.2186 15.5818 38.6765 6.52692 36.6031 6.52692Z" fill="url(#paint3_linear_7_306)"/>
<path fill-rule="evenodd" clip-rule="evenodd" d="M84.2467 65.5431C84.0059 63.6935 83.5974 61.804 83.2966 60.6396L85.6558 60C85.9772 61.2442 86.4087 63.2386 86.6657 65.2126C86.7942 66.1997 86.8822 67.2048 86.8864 68.1212C86.8905 69.0135 86.817 69.9258 86.5602 70.6712C86.0417 72.1765 84.7218 73.2716 83.544 74.0009C82.3233 74.7567 81.0062 75.2716 80.142 75.5224L79.4766 73.1172C80.168 72.9164 81.2777 72.4829 82.2816 71.8613C83.3283 71.2132 84.0307 70.5018 84.2589 69.8393C84.3754 69.5009 84.4497 68.9304 84.446 68.133C84.4424 67.3595 84.3671 66.4679 84.2467 65.5431Z" fill="#313A52"/>
<path d="M20.5453 32.8055C20.211 32.2976 18.9279 32.5327 18.3281 32.7136L12.1728 63.3354L14.7568 65.2951C15.6182 65.9483 18.2697 55.5601 18.8665 51.8796C19.4632 48.1991 20.9632 33.4404 20.5453 32.8055Z" fill="#277650"/>
<path d="M16.7665 49.8219C17.6924 44.4403 18.6172 36.9644 18.357 32.6423L12.7167 32.4085C11.4196 32.3548 10.2611 33.6342 9.98725 35.4229L6.68419 56.9979C6.42748 58.6747 7.02004 60.3468 8.11752 61.0425L13.5237 64.4694C13.901 62.432 15.8406 55.2036 16.7665 49.8219Z" fill="#A8DCC3"/>
<mask id="mask0_7_306" style="mask-type:alpha" maskUnits="userSpaceOnUse" x="6" y="32" width="13" height="33">
<path d="M16.9038 49.8276C17.8396 44.4464 18.773 36.9709 18.5067 32.6485L12.7873 32.4115C11.472 32.357 10.298 33.6358 10.0214 35.4243L6.68463 56.998C6.42531 58.6746 7.02712 60.3471 8.14036 61.0434L13.6241 64.4736C14.0055 62.4364 15.9681 55.2089 16.9038 49.8276Z" fill="#A8DCC3"/>
</mask>
<g mask="url(#mask0_7_306)">
<path d="M9.87661 58.1592C10.8131 53.476 12.971 41.5346 14.1106 31.2345" stroke="#66AF8C"/>
<path d="M13.1424 54.599C10.8856 57.4619 7.16211 55.583 5.58249 54.2858L3.96811 60.9939L11.6415 69.3187L17.1053 66.4656L20.7533 53.6826L18.5577 31.4188C17.693 37.9527 15.3993 51.7362 13.1424 54.599Z" fill="#E0E0E0" style="mix-blend-mode:multiply"/>
</g>
<path d="M74.1322 32.8055C74.4665 32.2976 75.7496 32.5327 76.3494 32.7136L82.5047 63.3354L79.9206 65.2951C79.0593 65.9483 76.4078 55.5601 75.811 51.8796C75.2143 48.1991 73.7143 33.4404 74.1322 32.8055Z" fill="#277650"/>
<path d="M77.911 49.8219C76.9851 44.4403 76.0603 36.9644 76.3205 32.6423L81.9608 32.4085C83.2579 32.3548 84.4164 33.6342 84.6903 35.4229L87.9933 56.9979C88.25 58.6747 87.6575 60.3468 86.56 61.0425L81.1539 64.4694C80.7766 62.432 78.8369 55.2036 77.911 49.8219Z" fill="#A8DCC3"/>
<mask id="mask1_7_306" style="mask-type:alpha" maskUnits="userSpaceOnUse" x="76" y="32" width="13" height="33">
<path d="M77.7737 49.8276C76.8379 44.4464 75.9045 36.9709 76.1708 32.6485L81.8902 32.4115C83.2055 32.357 84.3795 33.6358 84.6561 35.4243L87.9929 56.998C88.2522 58.6746 87.6504 60.3471 86.5372 61.0434L81.0534 64.4736C80.672 62.4364 78.7094 55.2089 77.7737 49.8276Z" fill="#A8DCC3"/>
</mask>
<g mask="url(#mask1_7_306)">
<path d="M84.8009 58.1592C83.8644 53.476 81.7065 41.5346 80.5669 31.2345" stroke="#66AF8C"/>
<path d="M81.5351 54.599C83.792 57.4619 87.5154 55.583 89.0951 54.2858L90.7094 60.9939L83.036 69.3187L77.5722 66.4656L73.9242 53.6826L76.1199 31.4188C76.9846 37.9527 79.2782 51.7362 81.5351 54.599Z" fill="#E0E0E0" style="mix-blend-mode:multiply"/>
</g>
<path d="M17.3283 58.0517C17.9443 55.5042 18.6119 42.6712 19.8768 36.5731C21.001 31.3946 28.0737 20.9192 47.3708 20.4451C66.6679 19.971 73.3785 30.1078 74.3217 35.2355C75.2649 40.3631 76.391 49.7923 77.3523 54.7806C82.8422 73.6413 81.4594 79.4847 74.1758 83.1157C70.0015 85.1967 55.6733 86.4719 48.9174 86.506C45.1189 86.5993 40.4763 86.7134 26.0616 84.2978C6.91956 81.09 16.5582 61.236 17.3283 58.0517Z" fill="url(#paint4_linear_7_306)"/>
<path d="M73.0988 74.9589C72.4919 73.3644 73.2617 71.568 74.8182 70.9463L78.5757 69.4455C80.1322 68.8239 81.8859 69.6125 82.4927 71.2069L83.5915 74.0939C84.1983 75.6883 83.4285 77.4848 81.872 78.1064L78.1145 79.6072C76.558 80.2289 74.8044 79.4403 74.1975 77.8458L73.0988 74.9589Z" fill="#313A52"/>
<mask id="mask2_7_306" style="mask-type:alpha" maskUnits="userSpaceOnUse" x="72" y="69" width="12" height="11">
<path d="M73.0988 74.9587C72.4919 73.3643 73.2617 71.5678 74.8182 70.9462L78.5757 69.4454C80.1322 68.8238 81.8859 69.6123 82.4927 71.2068L83.5915 74.0937C84.1983 75.6882 83.4285 77.4847 81.872 78.1063L78.1145 79.6071C76.558 80.2287 74.8044 79.4401 74.1975 77.8457L73.0988 74.9587Z" fill="#313A52"/>
</mask>
<g mask="url(#mask2_7_306)">
<path d="M79.562 75.55C77.5454 77.2026 74.3526 77.2714 73.0082 77.0993C73.0082 78.1322 77.0413 82.2637 81.0744 80.1979C84.3008 78.5453 84.0992 73.6564 83.595 71.4185C83.0909 72.107 81.5785 73.8974 79.562 75.55Z" fill="#0F1626"/>
</g>
<path fill-rule="evenodd" clip-rule="evenodd" d="M31.4012 31.8341C29.8535 32.1317 28.4061 32.6821 27.5621 33.0909C27.1832 33.2744 26.7332 33.1102 26.5569 32.7242C26.3807 32.3381 26.545 31.8764 26.9239 31.6929C27.8699 31.2348 29.4415 30.6384 31.1337 30.3129C32.8034 29.9918 34.7209 29.9085 36.2694 30.6197C36.6494 30.7942 36.8165 31.252 36.6426 31.6422C36.4688 32.0324 36.0198 32.2072 35.6398 32.0327C34.5148 31.516 32.9715 31.5321 31.4012 31.8341ZM30.3682 35.3844C28.1475 35.8254 26.1289 36.8675 24.9675 37.6828C24.6216 37.9256 24.1511 37.8373 23.9167 37.4855C23.6822 37.1338 23.7725 36.6518 24.1184 36.4089C25.4206 35.4948 27.6313 34.3536 30.0919 33.8649C32.5562 33.3755 35.3664 33.5258 37.7311 35.3446C38.0637 35.6005 38.1283 36.0855 37.8754 36.4279C37.6224 36.7703 37.1477 36.8404 36.8151 36.5846C34.9083 35.1179 32.5852 34.9441 30.3682 35.3844Z" fill="#DAAB07"/>
<path fill-rule="evenodd" clip-rule="evenodd" d="M63.6355 31.8511C65.1922 32.0975 66.657 32.5998 67.514 32.9805C67.8988 33.1514 68.3431 32.9725 68.5065 32.5808C68.6699 32.1892 68.4904 31.7331 68.1057 31.5622C67.1451 31.1356 65.5546 30.5914 63.8526 30.322C62.1733 30.0562 60.254 30.0362 58.7299 30.7981C58.3559 30.9851 58.2039 31.4482 58.3906 31.8324C58.5772 32.2166 59.0317 32.3765 59.4058 32.1896C60.5131 31.636 62.0561 31.6011 63.6355 31.8511ZM64.7851 35.3654C67.0192 35.7329 69.0711 36.7078 70.2587 37.4843C70.6125 37.7156 71.0798 37.6118 71.3025 37.2524C71.5253 36.8931 71.4191 36.4143 71.0654 36.1831C69.7337 35.3125 67.4865 34.2448 65.0112 33.8377C62.532 33.4299 59.7283 33.6728 57.4249 35.5687C57.1009 35.8354 57.0524 36.3223 57.3165 36.6561C57.5806 36.99 58.0574 37.0445 58.3814 36.7778C60.2388 35.249 62.5548 34.9985 64.7851 35.3654Z" fill="#DAAB07"/>
<path d="M57.3619 79.3211C58.0834 78.0972 60.4482 76.2414 62.1233 75.6493C64.7204 74.7314 70.6103 75.1904 71.9088 69.2237" stroke="#DAAB07" stroke-width="1.5" stroke-linecap="round"/>
<path d="M37.2686 79.3211C36.5472 78.0972 34.1823 76.2414 32.5073 75.6493C29.9102 74.7314 24.0203 75.1904 22.7217 69.2237" stroke="#DAAB07" stroke-width="1.5" stroke-linecap="round"/>
<path d="M20.0336 42.2291C25.7539 39.1843 35.8622 39.7956 40.8125 40.5205C44.1127 41.0038 43.6849 44.9478 42.5848 48.2101C41.0098 52.8811 35.4344 61.8032 26.634 62.8906C17.8335 63.9781 12.8832 46.0352 20.0336 42.2291Z" fill="url(#paint5_linear_7_306)"/>
<path d="M75.1683 42.2763C69.448 39.2314 59.3396 39.8427 54.3894 40.5677C51.0892 41.051 51.517 44.9949 52.6171 48.2572C54.1921 52.9282 59.7674 61.8503 68.5679 62.9378C77.3684 64.0252 82.3187 46.0823 75.1683 42.2763Z" fill="url(#paint6_linear_7_306)"/>
<mask id="mask3_7_306" style="mask-type:alpha" maskUnits="userSpaceOnUse" x="16" y="39" width="63" height="24">
<path fill-rule="evenodd" clip-rule="evenodd" d="M40.8125 40.5205C35.8623 39.7956 25.7539 39.1843 20.0336 42.2291C12.8832 46.0352 17.8335 63.9781 26.634 62.8906C35.4345 61.8032 41.0098 52.8811 42.5848 48.2101C43.6849 44.9478 44.1127 41.0038 40.8125 40.5205ZM54.3894 40.5677C59.3397 39.8427 69.448 39.2314 75.1683 42.2763C82.3187 46.0823 77.3684 64.0252 68.568 62.9378C59.7675 61.8503 54.1921 52.9282 52.6171 48.2572C51.517 44.9949 51.0892 41.051 54.3894 40.5677Z" fill="url(#paint7_linear_7_306)"/>
</mask>
<g mask="url(#mask3_7_306)">
<rect opacity="0.25" x="10" y="56.3364" width="43" height="8" transform="rotate(-34.4691 10 56.3364)" fill="white"/>
<rect opacity="0.25" x="43" y="57.3364" width="43" height="3.63433" transform="rotate(-34.4691 43 57.3364)" fill="white"/>
<rect opacity="0.25" x="49" y="61.3364" width="43" height="6.85519" transform="rotate(-34.4691 49 61.3364)" fill="white"/>
</g>
<path fill-rule="evenodd" clip-rule="evenodd" d="M41.1479 39.7153C41.1759 39.702 41.2019 39.6905 41.2248 39.6807C41.351 39.6269 41.4928 39.5806 41.6392 39.54C41.9332 39.4584 42.3045 39.3835 42.7294 39.3172C43.5829 39.184 44.7114 39.0763 45.9939 39.0279C48.4893 38.9335 51.6282 39.0608 54.5172 39.6906C57.0309 39.3367 60.7263 39.024 64.5203 39.1588C68.4191 39.2973 72.5339 39.9111 75.5677 41.5259C77.6602 42.6397 78.7945 44.7528 79.2272 47.1098C79.2724 47.3561 79.3102 47.6063 79.3409 47.8595L81 48L80.5875 52.7621L79.1548 52.6408C79.0296 53.3292 78.865 54.0142 78.664 54.6857C77.9122 57.1986 76.6309 59.5934 74.9183 61.3047C73.1971 63.0246 70.9908 64.0936 68.4637 63.7813C63.7963 63.2046 60.0299 60.5567 57.2549 57.5141C54.4818 54.4734 52.6353 50.9716 51.8116 48.5288C51.5984 47.8965 51.4043 47.2245 51.2557 46.5443C49.5259 45.3534 47.9695 45.1027 46.683 45.2568C45.6226 45.3839 44.7058 45.7916 43.9998 46.2419C43.8458 47.0089 43.6301 47.7704 43.3903 48.4817C42.5666 50.9244 40.7201 54.4263 37.947 57.467C35.172 60.5096 31.4056 63.1575 26.7382 63.7342C24.2111 64.0465 22.0048 62.9774 20.2836 61.2576C18.571 59.5463 17.2897 57.1515 16.5379 54.6386C16.3397 53.9762 16.1768 53.3006 16.0522 52.6217L14.4078 52.7625L14 48L15.8576 47.8409C15.8888 47.5779 15.9278 47.3182 15.9747 47.0626C16.4074 44.7057 17.5417 42.5926 19.6342 41.4788C22.668 39.864 26.7828 39.2502 30.6816 39.1117C34.6039 38.9724 38.4209 39.3112 40.9357 39.6795C41.0075 39.69 41.0782 39.702 41.1479 39.7153ZM44.235 44.3013C44.897 44.0044 45.6553 43.7685 46.4927 43.6682C47.8463 43.506 49.3682 43.7033 50.9733 44.5165C50.9531 44.0896 50.9626 43.6722 51.0088 43.2727C51.1049 42.4405 51.3672 41.6252 51.9122 40.9705C51.9381 40.9394 51.9644 40.9089 51.9913 40.8789C49.9254 40.6105 47.831 40.5595 46.0543 40.6267C44.9521 40.6684 43.9849 40.7551 43.2354 40.8598C43.2537 40.8807 43.2718 40.9019 43.2897 40.9234C43.8347 41.5781 44.097 42.3934 44.1931 43.2256C44.2332 43.5725 44.2457 43.9329 44.235 44.3013ZM30.742 40.8106C26.9191 40.9464 23.1195 41.5495 20.433 42.9795C18.9502 43.7687 18.022 45.3258 17.6468 47.3696C17.2719 49.4119 17.4748 51.8395 18.1665 54.1513C18.8585 56.464 20.018 58.5889 21.4852 60.055C22.9439 61.5125 24.6566 62.2785 26.5297 62.0471C30.6628 61.5363 34.0843 59.1795 36.6909 56.3214C39.2993 53.4614 41.028 50.1667 41.7794 47.9385C42.3168 46.3447 42.6507 44.6868 42.5044 43.4208C42.4325 42.7988 42.2517 42.3336 41.9831 42.011C41.7274 41.7037 41.335 41.4561 40.6894 41.3616C38.2538 41.0049 34.5415 40.6756 30.742 40.8106ZM64.4599 40.8577C68.2828 40.9936 72.0824 41.5966 74.7689 43.0266C76.2517 43.8158 77.1799 45.3729 77.5551 47.4167C77.93 49.459 77.7271 51.8866 77.0354 54.1984C76.3434 56.5111 75.1839 58.636 73.7167 60.1021C72.258 61.5596 70.5453 62.3256 68.6722 62.0942C64.5391 61.5835 61.1176 59.2266 58.511 56.3685C55.9026 53.5085 54.1739 50.2138 53.4225 47.9856C52.8851 46.3918 52.5512 44.7339 52.6975 43.4679C52.7694 42.8459 52.9502 42.3807 53.2188 42.0581C53.4745 41.7509 53.8669 41.5032 54.5126 41.4087C56.9481 41.052 60.6604 40.7228 64.4599 40.8577Z" fill="#0F1626"/>
<path d="M63.4446 68.9629C63.4446 75.9898 52.5188 87.5604 48.6518 91.4355C47.9007 92.1881 46.7298 92.1881 45.9787 91.4355C42.1118 87.5604 31.1859 75.9898 31.1859 68.9629C31.1859 60.4251 38.4073 53.5038 47.3153 53.5038C56.2233 53.5038 63.4446 60.4251 63.4446 68.9629Z" fill="url(#paint8_linear_7_306)"/>
<mask id="mask4_7_306" style="mask-type:alpha" maskUnits="userSpaceOnUse" x="31" y="53" width="33" height="39">
<path d="M63.4446 68.9629C63.4446 75.9898 52.5188 87.5604 48.6518 91.4355C47.9007 92.1881 46.7298 92.1881 45.9787 91.4355C42.1118 87.5604 31.1859 75.9898 31.1859 68.9629C31.1859 60.4251 38.4073 53.5038 47.3153 53.5038C56.2233 53.5038 63.4446 60.4251 63.4446 68.9629Z" fill="url(#paint9_linear_7_306)"/>
</mask>
<g mask="url(#mask4_7_306)">
<g style="mix-blend-mode:multiply" filter="url(#filter0_d_7_306)">
<path d="M28.1617 71.0595C34.938 80.5616 42.7823 89.0487 45.9167 92.3341C46.6827 93.1369 47.9479 93.1369 48.7139 92.3341C51.8483 89.0487 59.6926 80.5616 66.4689 71.0595C62.3452 76.1952 52.7412 86.4665 47.3153 86.4665C41.8894 86.4665 32.2854 76.1952 28.1617 71.0595Z" fill="#C4C4C4"/>
</g>
</g>
<ellipse opacity="0.4" cx="47.3153" cy="60.1308" rx="9.07275" ry="4.13077" fill="#FFF69D"/>
<defs>
<filter id="filter0_d_7_306" x="24.1617" y="71.0595" width="46.3072" height="29.8767" filterUnits="userSpaceOnUse" color-interpolation-filters="sRGB">
<feFlood flood-opacity="0" result="BackgroundImageFix"/>
<feColorMatrix in="SourceAlpha" type="matrix" values="0 0 0 0 0 0 0 0 0 0 0 0 0 0 0 0 0 0 127 0" result="hardAlpha"/>
<feOffset dy="4"/>
<feGaussianBlur stdDeviation="2"/>
<feColorMatrix type="matrix" values="0 0 0 0 0 0 0 0 0 0 0 0 0 0 0 0 0 0 0.25 0"/>
<feBlend mode="normal" in2="BackgroundImageFix" result="effect1_dropShadow_7_306"/>
<feBlend mode="normal" in="SourceGraphic" in2="effect1_dropShadow_7_306" result="shape"/>
</filter>
<linearGradient id="paint0_linear_7_306" x1="47.3153" y1="53.5038" x2="47.3153" y2="92.7461" gradientUnits="userSpaceOnUse">
<stop stop-color="#983232"/>
<stop offset="1" stop-color="#671B1B"/>
</linearGradient>
<linearGradient id="paint1_linear_7_306" x1="48.482" y1="4" x2="48.482" y2="20.425" gradientUnits="userSpaceOnUse">
<stop stop-color="#046CB8"/>
<stop offset="1" stop-color="#3E98D9"/>
</linearGradient>
<linearGradient id="paint2_linear_7_306" x1="60.3609" y1="6.52692" x2="60.3609" y2="20.425" gradientUnits="userSpaceOnUse">
<stop stop-color="#046CB8"/>
<stop offset="1" stop-color="#3E98D9"/>
</linearGradient>
<linearGradient id="paint3_linear_7_306" x1="36.6031" y1="6.52692" x2="36.6031" y2="20.425" gradientUnits="userSpaceOnUse">
<stop stop-color="#046CB8"/>
<stop offset="1" stop-color="#3E98D9"/>
</linearGradient>
<linearGradient id="paint4_linear_7_306" x1="45.9143" y1="25.6458" x2="47.4107" y2="86.5554" gradientUnits="userSpaceOnUse">
<stop stop-color="#FBEE74"/>
<stop offset="1" stop-color="#EDDD44"/>
</linearGradient>
<linearGradient id="paint5_linear_7_306" x1="30" y1="39.9297" x2="30" y2="62.938" gradientUnits="userSpaceOnUse">
<stop stop-color="#A92D2D"/>
<stop offset="1" stop-color="#390000"/>
</linearGradient>
<linearGradient id="paint6_linear_7_306" x1="65.2019" y1="39.9768" x2="65.2019" y2="62.9852" gradientUnits="userSpaceOnUse">
<stop stop-color="#A92D2D"/>
<stop offset="1" stop-color="#390000"/>
</linearGradient>
<linearGradient id="paint7_linear_7_306" x1="65.2019" y1="39.9768" x2="65.2019" y2="62.9852" gradientUnits="userSpaceOnUse">
<stop stop-color="#A92D2D"/>
<stop offset="1" stop-color="#390000"/>
</linearGradient>
<linearGradient id="paint8_linear_7_306" x1="47.3153" y1="53.5038" x2="47.3153" y2="92.7461" gradientUnits="userSpaceOnUse">
<stop stop-color="#983232"/>
<stop offset="1" stop-color="#671B1B"/>
</linearGradient>
<linearGradient id="paint9_linear_7_306" x1="47.3153" y1="53.5038" x2="47.3153" y2="92.7461" gradientUnits="userSpaceOnUse">
<stop stop-color="#983232"/>
<stop offset="1" stop-color="#671B1B"/>
</linearGradient>
</defs>
</svg>
