<svg width="96" height="96" viewBox="0 0 96 96" fill="none" xmlns="http://www.w3.org/2000/svg">
<path fill-rule="evenodd" clip-rule="evenodd" d="M52.6219 13.2699C56.2823 13.7145 59.151 14.6718 60.3668 15.867C74.8177 22.3371 86 38.7187 86 54.2174C86 55.3791 85.9372 56.5102 85.8148 57.6103C88.2517 59.5137 91.8573 62.9989 91.5 65.5C91.1535 67.9256 85.5287 69.0254 81.647 69.3845C75.0253 79.57 61.685 85 47.5 85C33.0433 85 19.464 79.36 12.98 68.7941C9.18006 68.3582 4.32128 67.249 3.99999 65C3.66691 62.6684 6.77767 59.4817 9.17508 57.5184C9.05938 56.4473 9 55.3468 9 54.2174C9 37.8024 21.5435 20.397 37.2288 14.8256C38.7767 14.0961 41.0329 13.5321 43.6822 13.2344L48.2034 10L52.6219 13.2699Z" fill="url(#paint0_linear_14_0)"/>
<path fill-rule="evenodd" clip-rule="evenodd" d="M46.7488 7.96673C47.6307 7.33579 48.8189 7.34537 49.6906 7.99045L53.5888 10.8754C55.2876 11.1145 56.8563 11.4648 58.205 11.9164C59.4979 12.3494 60.774 12.9359 61.7482 13.7486C76.8607 20.7006 88.5 37.7958 88.5 54.2174C88.5 54.994 88.4739 55.7596 88.4225 56.5139C89.4934 57.4292 90.6624 58.5509 91.6414 59.7496C92.3008 60.5569 92.9317 61.4686 93.3762 62.4348C93.8125 63.3829 94.1575 64.5754 93.9749 65.8536C93.7504 67.425 92.7131 68.4784 91.8027 69.1216C90.873 69.7784 89.7477 70.2484 88.6655 70.5969C86.8905 71.1685 84.8521 71.5311 83.0634 71.7473C75.6368 82.2142 61.7585 87.5 47.5 87.5C32.9664 87.5 18.8155 82.0051 11.506 71.1242C9.80888 70.8797 7.9527 70.5011 6.35055 69.9334C5.36377 69.5838 4.33789 69.1161 3.48839 68.4683C2.64462 67.8249 1.73335 66.8113 1.52511 65.3536C1.35448 64.1592 1.64524 63.0418 2.03377 62.137C2.42752 61.2201 2.99226 60.3561 3.58915 59.5876C4.47765 58.4436 5.55391 57.3633 6.57347 56.4539C6.52468 55.719 6.49999 54.9734 6.49999 54.2174C6.49999 45.3933 9.85941 36.439 15.2015 28.9973C20.5209 21.5872 27.9271 15.5074 36.2798 12.5099C38.0052 11.7185 40.2635 11.1548 42.7467 10.8298L46.7488 7.96673ZM43.6822 13.2344C41.0329 13.5321 38.7767 14.0961 37.2288 14.8256C21.5435 20.397 8.99999 37.8024 8.99999 54.2174C8.99999 55.3468 9.05937 56.4473 9.17507 57.5184C6.77765 59.4817 3.6669 62.6684 3.99998 65C4.32126 67.249 9.18004 68.3582 12.9799 68.7941C19.464 79.36 33.0433 85 47.5 85C61.685 85 75.0253 79.57 81.647 69.3845C85.5287 69.0254 91.1535 67.9256 91.5 65.5C91.8573 62.9989 88.2517 59.5137 85.8148 57.6103C85.9372 56.5102 86 55.3791 86 54.2174C86 38.7187 74.8177 22.3371 60.3668 15.867C59.151 14.6718 56.2823 13.7145 52.6219 13.2699L48.2034 10L43.6822 13.2344Z" fill="#CEC6D5"/>
<path fill-rule="evenodd" clip-rule="evenodd" d="M81.647 69.3845C75.0253 79.57 61.685 85 47.5 85C33.0433 85 19.464 79.36 12.98 68.7941C9.18006 68.3582 4.32128 67.249 3.99999 65C3.66691 62.6684 6.77767 59.4817 9.17508 57.5184C9.05938 56.4473 9 55.3468 9 54.2174C9 34.3351 27.4021 13 47.5 13C67.5979 13 86 34.3351 86 54.2174C86 55.3791 85.9372 56.5102 85.8148 57.6103C88.2517 59.5137 91.8573 62.9989 91.5 65.5C91.1535 67.9256 85.5287 69.0254 81.647 69.3845Z" fill="url(#paint1_radial_14_0)"/>
<path fill-rule="evenodd" clip-rule="evenodd" d="M26.1243 51.3685C29.461 48.9871 34.0742 49.7944 36.4253 53.1621C36.9119 53.859 40.6178 57.5424 47.5 57.5424C54.3822 57.5424 58.0881 53.859 58.5747 53.1621C60.9258 49.7944 65.539 48.9871 68.8757 51.3685C72.2071 53.7461 72.9972 58.397 70.6498 61.7594C67.627 66.089 59.5743 72.4624 47.5 72.4624C35.4257 72.4624 27.373 66.089 24.3502 61.7594C22.0028 58.397 22.7929 53.7461 26.1243 51.3685ZM35.1042 54.0844C33.2629 51.4471 29.6628 50.8226 27.0603 52.68C24.4524 54.5412 23.8264 58.1945 25.6713 60.837C28.4211 64.7756 35.9998 70.8512 47.5 70.8512C59.0002 70.8512 66.5789 64.7756 69.3287 60.837C71.1736 58.1945 70.5476 54.5412 67.9397 52.68C65.3372 50.8226 61.7371 51.4471 59.8958 54.0844C59.1345 55.1749 54.9535 59.1536 47.5 59.1536C40.0465 59.1536 35.8655 55.1749 35.1042 54.0844Z" fill="#ECC7A1"/>
<path fill-rule="evenodd" clip-rule="evenodd" d="M26.5922 52.0242C29.5618 49.9048 33.6685 50.6207 35.7647 53.6231C36.3887 54.5169 40.3321 58.3479 47.5 58.3479C54.6678 58.3479 58.6112 54.5169 59.2352 53.6231C61.3314 50.6207 65.4381 49.9048 68.4077 52.0242C71.3773 54.1436 72.0854 58.2957 69.9892 61.2981C67.1029 65.4322 59.2872 71.6567 47.5 71.6567C35.7127 71.6567 27.897 65.4322 25.0108 61.2981C22.9146 58.2957 23.6226 54.1436 26.5922 52.0242Z" fill="#EED1B4"/>
<path fill-rule="evenodd" clip-rule="evenodd" d="M30.7007 57.6009C31.0046 57.3523 31.4524 57.3971 31.701 57.7009C33.017 59.3093 38.1356 64.0746 47.7369 64.0746C57.3383 64.0746 62.4569 59.3093 63.7729 57.7009C64.0215 57.3971 64.4693 57.3523 64.7731 57.6009C65.077 57.8495 65.1218 58.2973 64.8732 58.6012C63.3458 60.468 57.8493 65.4963 47.7369 65.4963C37.6245 65.4963 32.1281 60.468 30.6007 58.6012C30.3521 58.2973 30.3969 57.8495 30.7007 57.6009Z" fill="#A55C4C"/>
<path fill-rule="evenodd" clip-rule="evenodd" d="M37.9616 24.513C38.0926 24.906 37.8802 25.3307 37.4873 25.4617C34.0547 26.6059 31.9538 28.7967 31.3741 29.6662C31.1444 30.0109 30.6787 30.104 30.3341 29.8742C29.9894 29.6445 29.8963 29.1788 30.126 28.8342C30.8797 27.7037 33.2455 25.2945 37.0129 24.0387C37.4059 23.9077 37.8306 24.1201 37.9616 24.513Z" fill="#988CA2"/>
<path fill-rule="evenodd" clip-rule="evenodd" d="M58.5386 24.513C58.4076 24.906 58.6199 25.3307 59.0129 25.4617C62.4455 26.6059 64.5464 28.7967 65.126 29.6662C65.3558 30.0109 65.8215 30.104 66.1661 29.8742C66.5107 29.6445 66.6039 29.1788 66.3741 28.8342C65.6205 27.7037 63.2547 25.2945 59.4872 24.0387C59.0943 23.9077 58.6695 24.1201 58.5386 24.513Z" fill="#988CA2"/>
<ellipse cx="4.39557" cy="5.8728" rx="4.39557" ry="5.8728" transform="matrix(0.952957 0.303105 -0.261979 0.965074 30.0771 33)" fill="#1D1E21"/>
<ellipse cx="4.39557" cy="5.8728" rx="4.39557" ry="5.8728" transform="matrix(-0.952957 0.303105 0.261979 0.965074 66.3776 33)" fill="#1D1E21"/>
<path fill-rule="evenodd" clip-rule="evenodd" d="M59.3984 17.9039C59.9384 17.5194 60 17.2547 60 17.15C60 17.0337 59.9253 16.7474 59.376 16.3328C58.8432 15.9307 58.0089 15.5259 56.8883 15.1681C54.6584 14.4563 51.5158 14 48 14C44.4842 14 41.3416 14.4563 39.1117 15.1681C37.9911 15.5259 37.1568 15.9307 36.624 16.3328C36.0747 16.7474 36 17.0337 36 17.15C36 17.2547 36.0616 17.5194 36.6016 17.9039C37.1291 18.2794 37.9598 18.6504 39.0838 18.9734C41.3187 19.6156 44.4693 20 48 20C51.5307 20 54.6813 19.6156 56.9162 18.9734C58.0402 18.6504 58.8709 18.2794 59.3984 17.9039ZM48 21C55.1797 21 61 19.442 61 17.15C61 14.858 55.1797 13 48 13C40.8203 13 35 14.858 35 17.15C35 19.442 40.8203 21 48 21Z" fill="#BFCDDB"/>
<path d="M36 18.7302L48.2034 10L60 18.7302C59.322 19.6614 56.0136 21 48.2034 21C40.3932 21 36.8136 19.6614 36 18.7302Z" fill="url(#paint2_linear_14_0)"/>
<defs>
<linearGradient id="paint0_linear_14_0" x1="48" y1="10" x2="48" y2="21" gradientUnits="userSpaceOnUse">
<stop stop-color="#E9F4FF"/>
<stop offset="1" stop-color="#C5D7EA"/>
</linearGradient>
<radialGradient id="paint1_radial_14_0" cx="0" cy="0" r="1" gradientUnits="userSpaceOnUse" gradientTransform="translate(48 27.5) rotate(90) scale(62.5 75.9977)">
<stop stop-color="#F9F8FF"/>
<stop offset="1" stop-color="#E1D7EA"/>
</radialGradient>
<linearGradient id="paint2_linear_14_0" x1="48" y1="10" x2="48" y2="21" gradientUnits="userSpaceOnUse">
<stop stop-color="#E9F4FF"/>
<stop offset="1" stop-color="#C5D7EA"/>
</linearGradient>
</defs>
</svg>
